%TF.GenerationSoftware,KiCad,Pcbnew,8.0.1*%
%TF.CreationDate,2024-04-30T12:08:59+02:00*%
%TF.ProjectId,Taiko IoBoard,5461696b-6f20-4496-9f42-6f6172642e6b,1*%
%TF.SameCoordinates,Original*%
%TF.FileFunction,Drillmap*%
%TF.FilePolarity,Positive*%
%FSLAX45Y45*%
G04 Gerber Fmt 4.5, Leading zero omitted, Abs format (unit mm)*
G04 Created by KiCad (PCBNEW 8.0.1) date 2024-04-30 12:08:59*
%MOMM*%
%LPD*%
G01*
G04 APERTURE LIST*
%ADD10C,0.050000*%
%ADD11C,0.200000*%
G04 APERTURE END LIST*
D10*
X6835000Y-2504951D02*
X13385000Y-2504951D01*
X13385000Y-9780798D01*
X6835000Y-9780798D01*
X6835000Y-2504951D01*
D11*
X7093277Y-10094782D02*
X7093277Y-9894782D01*
X7093277Y-9894782D02*
X7140896Y-9894782D01*
X7140896Y-9894782D02*
X7169467Y-9904306D01*
X7169467Y-9904306D02*
X7188515Y-9923354D01*
X7188515Y-9923354D02*
X7198039Y-9942401D01*
X7198039Y-9942401D02*
X7207562Y-9980496D01*
X7207562Y-9980496D02*
X7207562Y-10009068D01*
X7207562Y-10009068D02*
X7198039Y-10047163D01*
X7198039Y-10047163D02*
X7188515Y-10066211D01*
X7188515Y-10066211D02*
X7169467Y-10085258D01*
X7169467Y-10085258D02*
X7140896Y-10094782D01*
X7140896Y-10094782D02*
X7093277Y-10094782D01*
X7293277Y-10094782D02*
X7293277Y-9961449D01*
X7293277Y-9999544D02*
X7302800Y-9980496D01*
X7302800Y-9980496D02*
X7312324Y-9970973D01*
X7312324Y-9970973D02*
X7331372Y-9961449D01*
X7331372Y-9961449D02*
X7350420Y-9961449D01*
X7417086Y-10094782D02*
X7417086Y-9961449D01*
X7417086Y-9894782D02*
X7407562Y-9904306D01*
X7407562Y-9904306D02*
X7417086Y-9913830D01*
X7417086Y-9913830D02*
X7426610Y-9904306D01*
X7426610Y-9904306D02*
X7417086Y-9894782D01*
X7417086Y-9894782D02*
X7417086Y-9913830D01*
X7540896Y-10094782D02*
X7521848Y-10085258D01*
X7521848Y-10085258D02*
X7512324Y-10066211D01*
X7512324Y-10066211D02*
X7512324Y-9894782D01*
X7645658Y-10094782D02*
X7626610Y-10085258D01*
X7626610Y-10085258D02*
X7617086Y-10066211D01*
X7617086Y-10066211D02*
X7617086Y-9894782D01*
X7874229Y-10094782D02*
X7874229Y-9894782D01*
X7874229Y-9894782D02*
X7940896Y-10037639D01*
X7940896Y-10037639D02*
X8007562Y-9894782D01*
X8007562Y-9894782D02*
X8007562Y-10094782D01*
X8188515Y-10094782D02*
X8188515Y-9990020D01*
X8188515Y-9990020D02*
X8178991Y-9970973D01*
X8178991Y-9970973D02*
X8159943Y-9961449D01*
X8159943Y-9961449D02*
X8121848Y-9961449D01*
X8121848Y-9961449D02*
X8102800Y-9970973D01*
X8188515Y-10085258D02*
X8169467Y-10094782D01*
X8169467Y-10094782D02*
X8121848Y-10094782D01*
X8121848Y-10094782D02*
X8102800Y-10085258D01*
X8102800Y-10085258D02*
X8093277Y-10066211D01*
X8093277Y-10066211D02*
X8093277Y-10047163D01*
X8093277Y-10047163D02*
X8102800Y-10028115D01*
X8102800Y-10028115D02*
X8121848Y-10018592D01*
X8121848Y-10018592D02*
X8169467Y-10018592D01*
X8169467Y-10018592D02*
X8188515Y-10009068D01*
X8283753Y-9961449D02*
X8283753Y-10161449D01*
X8283753Y-9970973D02*
X8302800Y-9961449D01*
X8302800Y-9961449D02*
X8340896Y-9961449D01*
X8340896Y-9961449D02*
X8359943Y-9970973D01*
X8359943Y-9970973D02*
X8369467Y-9980496D01*
X8369467Y-9980496D02*
X8378991Y-9999544D01*
X8378991Y-9999544D02*
X8378991Y-10056687D01*
X8378991Y-10056687D02*
X8369467Y-10075734D01*
X8369467Y-10075734D02*
X8359943Y-10085258D01*
X8359943Y-10085258D02*
X8340896Y-10094782D01*
X8340896Y-10094782D02*
X8302800Y-10094782D01*
X8302800Y-10094782D02*
X8283753Y-10085258D01*
X8464705Y-10075734D02*
X8474229Y-10085258D01*
X8474229Y-10085258D02*
X8464705Y-10094782D01*
X8464705Y-10094782D02*
X8455182Y-10085258D01*
X8455182Y-10085258D02*
X8464705Y-10075734D01*
X8464705Y-10075734D02*
X8464705Y-10094782D01*
X8464705Y-9970973D02*
X8474229Y-9980496D01*
X8474229Y-9980496D02*
X8464705Y-9990020D01*
X8464705Y-9990020D02*
X8455182Y-9980496D01*
X8455182Y-9980496D02*
X8464705Y-9970973D01*
X8464705Y-9970973D02*
X8464705Y-9990020D01*
M02*
