G04 #@! TF.GenerationSoftware,KiCad,Pcbnew,8.0.1*
G04 #@! TF.CreationDate,2024-04-30T12:08:52+02:00*
G04 #@! TF.ProjectId,Taiko IoBoard,5461696b-6f20-4496-9f42-6f6172642e6b,1*
G04 #@! TF.SameCoordinates,Original*
G04 #@! TF.FileFunction,Soldermask,Bot*
G04 #@! TF.FilePolarity,Negative*
%FSLAX46Y46*%
G04 Gerber Fmt 4.6, Leading zero omitted, Abs format (unit mm)*
G04 Created by KiCad (PCBNEW 8.0.1) date 2024-04-30 12:08:52*
%MOMM*%
%LPD*%
G01*
G04 APERTURE LIST*
G04 Aperture macros list*
%AMRoundRect*
0 Rectangle with rounded corners*
0 $1 Rounding radius*
0 $2 $3 $4 $5 $6 $7 $8 $9 X,Y pos of 4 corners*
0 Add a 4 corners polygon primitive as box body*
4,1,4,$2,$3,$4,$5,$6,$7,$8,$9,$2,$3,0*
0 Add four circle primitives for the rounded corners*
1,1,$1+$1,$2,$3*
1,1,$1+$1,$4,$5*
1,1,$1+$1,$6,$7*
1,1,$1+$1,$8,$9*
0 Add four rect primitives between the rounded corners*
20,1,$1+$1,$2,$3,$4,$5,0*
20,1,$1+$1,$4,$5,$6,$7,0*
20,1,$1+$1,$6,$7,$8,$9,0*
20,1,$1+$1,$8,$9,$2,$3,0*%
G04 Aperture macros list end*
%ADD10R,2.000000X1.200000*%
%ADD11O,2.000000X1.200000*%
%ADD12RoundRect,0.300000X0.600000X-0.300000X0.600000X0.300000X-0.600000X0.300000X-0.600000X-0.300000X0*%
%ADD13O,1.800000X1.200000*%
%ADD14C,1.900000*%
%ADD15C,3.800000*%
%ADD16C,0.600000*%
G04 APERTURE END LIST*
D10*
X72350000Y-32554351D03*
D11*
X72350000Y-35094351D03*
X72350000Y-37634351D03*
X72350000Y-40174351D03*
X72350000Y-42714351D03*
X72350000Y-45254351D03*
X72350000Y-47794351D03*
X72350000Y-50334351D03*
X72350000Y-52874351D03*
X72350000Y-55414351D03*
X72350000Y-57954351D03*
X72350000Y-60494351D03*
X72350000Y-63034351D03*
X72350000Y-65574351D03*
X72350000Y-68114351D03*
X72350000Y-70654351D03*
X72350000Y-73194351D03*
X72350000Y-75734351D03*
X72350000Y-78274351D03*
X72346320Y-80811631D03*
X72346320Y-83351631D03*
X72346320Y-85891631D03*
X95210000Y-85894351D03*
X95210000Y-83354351D03*
X95210000Y-80814351D03*
X95210000Y-78274351D03*
X95210000Y-75734351D03*
X95210000Y-73194351D03*
X95210000Y-70654351D03*
X95210000Y-68114351D03*
X95210000Y-65574351D03*
X95210000Y-63034351D03*
X95210000Y-60494351D03*
X95210000Y-57954351D03*
X95210000Y-55414351D03*
X95210000Y-52874351D03*
X95210000Y-50334351D03*
X95210000Y-47794351D03*
X95210000Y-45254351D03*
X95210000Y-42714351D03*
X95210000Y-40174351D03*
X95210000Y-37634351D03*
X95210000Y-35094351D03*
X95210000Y-32554351D03*
D12*
X126207290Y-36454803D03*
D13*
X126207290Y-34454803D03*
D14*
X103760000Y-90381262D03*
X101220000Y-87841262D03*
X103760000Y-85301262D03*
D12*
X126207290Y-71257666D03*
D13*
X126207290Y-69257666D03*
D14*
X103760000Y-55419726D03*
X101220000Y-52879726D03*
X103760000Y-50339726D03*
X104170000Y-38056262D03*
X101630000Y-35516262D03*
X104170000Y-32976262D03*
D12*
X126207290Y-88779803D03*
D13*
X126207290Y-86779803D03*
D15*
X71350000Y-28054351D03*
D12*
X126207290Y-53799517D03*
D13*
X126207290Y-51799517D03*
D15*
X117600000Y-95054351D03*
D14*
X103760000Y-72859125D03*
X101220000Y-70319125D03*
X103760000Y-67779125D03*
D15*
X117600000Y-28054351D03*
D16*
X121100000Y-30134637D03*
X121100000Y-47529351D03*
X121100000Y-65000000D03*
X121100000Y-82534637D03*
M02*
