M48
; DRILL file {KiCad 8.0.1} date 2024-04-30T12:08:56+0200
; FORMAT={-:-/ absolute / metric / decimal}
; #@! TF.CreationDate,2024-04-30T12:08:56+02:00
; #@! TF.GenerationSoftware,Kicad,Pcbnew,8.0.1
; #@! TF.FileFunction,Plated,1,2,PTH
FMAT,2
METRIC
; #@! TA.AperFunction,Plated,PTH,ViaDrill
T1C0.300
; #@! TA.AperFunction,Plated,PTH,ComponentDrill
T2C0.800
; #@! TA.AperFunction,Plated,PTH,ComponentDrill
T3C2.200
%
G90
G05
T1
X121.1Y-30.135
X121.1Y-47.529
X121.1Y-65.0
X121.1Y-82.535
T2
X72.346Y-80.812
X72.346Y-83.352
X72.346Y-85.892
X72.35Y-32.554
X72.35Y-35.094
X72.35Y-37.634
X72.35Y-40.174
X72.35Y-42.714
X72.35Y-45.254
X72.35Y-47.794
X72.35Y-50.334
X72.35Y-52.874
X72.35Y-55.414
X72.35Y-57.954
X72.35Y-60.494
X72.35Y-63.034
X72.35Y-65.574
X72.35Y-68.114
X72.35Y-70.654
X72.35Y-73.194
X72.35Y-75.734
X72.35Y-78.274
X95.21Y-32.554
X95.21Y-35.094
X95.21Y-37.634
X95.21Y-40.174
X95.21Y-42.714
X95.21Y-45.254
X95.21Y-47.794
X95.21Y-50.334
X95.21Y-52.874
X95.21Y-55.414
X95.21Y-57.954
X95.21Y-60.494
X95.21Y-63.034
X95.21Y-65.574
X95.21Y-68.114
X95.21Y-70.654
X95.21Y-73.194
X95.21Y-75.734
X95.21Y-78.274
X95.21Y-80.814
X95.21Y-83.354
X95.21Y-85.894
X101.22Y-52.88
X101.22Y-70.319
X101.22Y-87.841
X101.63Y-35.516
X103.76Y-50.34
X103.76Y-55.42
X103.76Y-67.779
X103.76Y-72.859
X103.76Y-85.301
X103.76Y-90.381
X104.17Y-32.976
X104.17Y-38.056
X126.207Y-34.455
X126.207Y-36.455
X126.207Y-51.8
X126.207Y-53.8
X126.207Y-69.258
X126.207Y-71.258
X126.207Y-86.78
X126.207Y-88.78
T3
X71.35Y-28.054
X117.6Y-28.054
X117.6Y-95.054
M30
