%TF.GenerationSoftware,KiCad,Pcbnew,8.0.1*%
%TF.CreationDate,2024-04-30T12:08:59+02:00*%
%TF.ProjectId,Taiko IoBoard,5461696b-6f20-4496-9f42-6f6172642e6b,1*%
%TF.SameCoordinates,Original*%
%TF.FileFunction,Drillmap*%
%TF.FilePolarity,Positive*%
%FSLAX45Y45*%
G04 Gerber Fmt 4.5, Leading zero omitted, Abs format (unit mm)*
G04 Created by KiCad (PCBNEW 8.0.1) date 2024-04-30 12:08:59*
%MOMM*%
%LPD*%
G01*
G04 APERTURE LIST*
%ADD10C,0.050000*%
%ADD11C,0.200000*%
%ADD12C,0.100000*%
%ADD13C,0.220000*%
G04 APERTURE END LIST*
D10*
X6835000Y-2504951D02*
X13385000Y-2504951D01*
X13385000Y-9780798D01*
X6835000Y-9780798D01*
X6835000Y-2504951D01*
D11*
D12*
X12095000Y-2998464D02*
X12125000Y-3028464D01*
X12125000Y-2998464D02*
X12095000Y-3028464D01*
X12095000Y-4737935D02*
X12125000Y-4767935D01*
X12125000Y-4737935D02*
X12095000Y-4767935D01*
X12095000Y-6485000D02*
X12125000Y-6515000D01*
X12125000Y-6485000D02*
X12095000Y-6515000D01*
X12095000Y-8238464D02*
X12125000Y-8268464D01*
X12125000Y-8238464D02*
X12095000Y-8268464D01*
X7274632Y-8081163D02*
G75*
G02*
X7194632Y-8081163I-40000J0D01*
G01*
X7194632Y-8081163D02*
G75*
G02*
X7274632Y-8081163I40000J0D01*
G01*
X7274632Y-8335163D02*
G75*
G02*
X7194632Y-8335163I-40000J0D01*
G01*
X7194632Y-8335163D02*
G75*
G02*
X7274632Y-8335163I40000J0D01*
G01*
X7274632Y-8589163D02*
G75*
G02*
X7194632Y-8589163I-40000J0D01*
G01*
X7194632Y-8589163D02*
G75*
G02*
X7274632Y-8589163I40000J0D01*
G01*
X7275000Y-3255435D02*
G75*
G02*
X7195000Y-3255435I-40000J0D01*
G01*
X7195000Y-3255435D02*
G75*
G02*
X7275000Y-3255435I40000J0D01*
G01*
X7275000Y-3509435D02*
G75*
G02*
X7195000Y-3509435I-40000J0D01*
G01*
X7195000Y-3509435D02*
G75*
G02*
X7275000Y-3509435I40000J0D01*
G01*
X7275000Y-3763435D02*
G75*
G02*
X7195000Y-3763435I-40000J0D01*
G01*
X7195000Y-3763435D02*
G75*
G02*
X7275000Y-3763435I40000J0D01*
G01*
X7275000Y-4017435D02*
G75*
G02*
X7195000Y-4017435I-40000J0D01*
G01*
X7195000Y-4017435D02*
G75*
G02*
X7275000Y-4017435I40000J0D01*
G01*
X7275000Y-4271435D02*
G75*
G02*
X7195000Y-4271435I-40000J0D01*
G01*
X7195000Y-4271435D02*
G75*
G02*
X7275000Y-4271435I40000J0D01*
G01*
X7275000Y-4525435D02*
G75*
G02*
X7195000Y-4525435I-40000J0D01*
G01*
X7195000Y-4525435D02*
G75*
G02*
X7275000Y-4525435I40000J0D01*
G01*
X7275000Y-4779435D02*
G75*
G02*
X7195000Y-4779435I-40000J0D01*
G01*
X7195000Y-4779435D02*
G75*
G02*
X7275000Y-4779435I40000J0D01*
G01*
X7275000Y-5033435D02*
G75*
G02*
X7195000Y-5033435I-40000J0D01*
G01*
X7195000Y-5033435D02*
G75*
G02*
X7275000Y-5033435I40000J0D01*
G01*
X7275000Y-5287435D02*
G75*
G02*
X7195000Y-5287435I-40000J0D01*
G01*
X7195000Y-5287435D02*
G75*
G02*
X7275000Y-5287435I40000J0D01*
G01*
X7275000Y-5541435D02*
G75*
G02*
X7195000Y-5541435I-40000J0D01*
G01*
X7195000Y-5541435D02*
G75*
G02*
X7275000Y-5541435I40000J0D01*
G01*
X7275000Y-5795435D02*
G75*
G02*
X7195000Y-5795435I-40000J0D01*
G01*
X7195000Y-5795435D02*
G75*
G02*
X7275000Y-5795435I40000J0D01*
G01*
X7275000Y-6049435D02*
G75*
G02*
X7195000Y-6049435I-40000J0D01*
G01*
X7195000Y-6049435D02*
G75*
G02*
X7275000Y-6049435I40000J0D01*
G01*
X7275000Y-6303435D02*
G75*
G02*
X7195000Y-6303435I-40000J0D01*
G01*
X7195000Y-6303435D02*
G75*
G02*
X7275000Y-6303435I40000J0D01*
G01*
X7275000Y-6557435D02*
G75*
G02*
X7195000Y-6557435I-40000J0D01*
G01*
X7195000Y-6557435D02*
G75*
G02*
X7275000Y-6557435I40000J0D01*
G01*
X7275000Y-6811435D02*
G75*
G02*
X7195000Y-6811435I-40000J0D01*
G01*
X7195000Y-6811435D02*
G75*
G02*
X7275000Y-6811435I40000J0D01*
G01*
X7275000Y-7065435D02*
G75*
G02*
X7195000Y-7065435I-40000J0D01*
G01*
X7195000Y-7065435D02*
G75*
G02*
X7275000Y-7065435I40000J0D01*
G01*
X7275000Y-7319435D02*
G75*
G02*
X7195000Y-7319435I-40000J0D01*
G01*
X7195000Y-7319435D02*
G75*
G02*
X7275000Y-7319435I40000J0D01*
G01*
X7275000Y-7573435D02*
G75*
G02*
X7195000Y-7573435I-40000J0D01*
G01*
X7195000Y-7573435D02*
G75*
G02*
X7275000Y-7573435I40000J0D01*
G01*
X7275000Y-7827435D02*
G75*
G02*
X7195000Y-7827435I-40000J0D01*
G01*
X7195000Y-7827435D02*
G75*
G02*
X7275000Y-7827435I40000J0D01*
G01*
X9561000Y-3255435D02*
G75*
G02*
X9481000Y-3255435I-40000J0D01*
G01*
X9481000Y-3255435D02*
G75*
G02*
X9561000Y-3255435I40000J0D01*
G01*
X9561000Y-3509435D02*
G75*
G02*
X9481000Y-3509435I-40000J0D01*
G01*
X9481000Y-3509435D02*
G75*
G02*
X9561000Y-3509435I40000J0D01*
G01*
X9561000Y-3763435D02*
G75*
G02*
X9481000Y-3763435I-40000J0D01*
G01*
X9481000Y-3763435D02*
G75*
G02*
X9561000Y-3763435I40000J0D01*
G01*
X9561000Y-4017435D02*
G75*
G02*
X9481000Y-4017435I-40000J0D01*
G01*
X9481000Y-4017435D02*
G75*
G02*
X9561000Y-4017435I40000J0D01*
G01*
X9561000Y-4271435D02*
G75*
G02*
X9481000Y-4271435I-40000J0D01*
G01*
X9481000Y-4271435D02*
G75*
G02*
X9561000Y-4271435I40000J0D01*
G01*
X9561000Y-4525435D02*
G75*
G02*
X9481000Y-4525435I-40000J0D01*
G01*
X9481000Y-4525435D02*
G75*
G02*
X9561000Y-4525435I40000J0D01*
G01*
X9561000Y-4779435D02*
G75*
G02*
X9481000Y-4779435I-40000J0D01*
G01*
X9481000Y-4779435D02*
G75*
G02*
X9561000Y-4779435I40000J0D01*
G01*
X9561000Y-5033435D02*
G75*
G02*
X9481000Y-5033435I-40000J0D01*
G01*
X9481000Y-5033435D02*
G75*
G02*
X9561000Y-5033435I40000J0D01*
G01*
X9561000Y-5287435D02*
G75*
G02*
X9481000Y-5287435I-40000J0D01*
G01*
X9481000Y-5287435D02*
G75*
G02*
X9561000Y-5287435I40000J0D01*
G01*
X9561000Y-5541435D02*
G75*
G02*
X9481000Y-5541435I-40000J0D01*
G01*
X9481000Y-5541435D02*
G75*
G02*
X9561000Y-5541435I40000J0D01*
G01*
X9561000Y-5795435D02*
G75*
G02*
X9481000Y-5795435I-40000J0D01*
G01*
X9481000Y-5795435D02*
G75*
G02*
X9561000Y-5795435I40000J0D01*
G01*
X9561000Y-6049435D02*
G75*
G02*
X9481000Y-6049435I-40000J0D01*
G01*
X9481000Y-6049435D02*
G75*
G02*
X9561000Y-6049435I40000J0D01*
G01*
X9561000Y-6303435D02*
G75*
G02*
X9481000Y-6303435I-40000J0D01*
G01*
X9481000Y-6303435D02*
G75*
G02*
X9561000Y-6303435I40000J0D01*
G01*
X9561000Y-6557435D02*
G75*
G02*
X9481000Y-6557435I-40000J0D01*
G01*
X9481000Y-6557435D02*
G75*
G02*
X9561000Y-6557435I40000J0D01*
G01*
X9561000Y-6811435D02*
G75*
G02*
X9481000Y-6811435I-40000J0D01*
G01*
X9481000Y-6811435D02*
G75*
G02*
X9561000Y-6811435I40000J0D01*
G01*
X9561000Y-7065435D02*
G75*
G02*
X9481000Y-7065435I-40000J0D01*
G01*
X9481000Y-7065435D02*
G75*
G02*
X9561000Y-7065435I40000J0D01*
G01*
X9561000Y-7319435D02*
G75*
G02*
X9481000Y-7319435I-40000J0D01*
G01*
X9481000Y-7319435D02*
G75*
G02*
X9561000Y-7319435I40000J0D01*
G01*
X9561000Y-7573435D02*
G75*
G02*
X9481000Y-7573435I-40000J0D01*
G01*
X9481000Y-7573435D02*
G75*
G02*
X9561000Y-7573435I40000J0D01*
G01*
X9561000Y-7827435D02*
G75*
G02*
X9481000Y-7827435I-40000J0D01*
G01*
X9481000Y-7827435D02*
G75*
G02*
X9561000Y-7827435I40000J0D01*
G01*
X9561000Y-8081435D02*
G75*
G02*
X9481000Y-8081435I-40000J0D01*
G01*
X9481000Y-8081435D02*
G75*
G02*
X9561000Y-8081435I40000J0D01*
G01*
X9561000Y-8335435D02*
G75*
G02*
X9481000Y-8335435I-40000J0D01*
G01*
X9481000Y-8335435D02*
G75*
G02*
X9561000Y-8335435I40000J0D01*
G01*
X9561000Y-8589435D02*
G75*
G02*
X9481000Y-8589435I-40000J0D01*
G01*
X9481000Y-8589435D02*
G75*
G02*
X9561000Y-8589435I40000J0D01*
G01*
X10162000Y-5287973D02*
G75*
G02*
X10082000Y-5287973I-40000J0D01*
G01*
X10082000Y-5287973D02*
G75*
G02*
X10162000Y-5287973I40000J0D01*
G01*
X10162000Y-7031912D02*
G75*
G02*
X10082000Y-7031912I-40000J0D01*
G01*
X10082000Y-7031912D02*
G75*
G02*
X10162000Y-7031912I40000J0D01*
G01*
X10162000Y-8784126D02*
G75*
G02*
X10082000Y-8784126I-40000J0D01*
G01*
X10082000Y-8784126D02*
G75*
G02*
X10162000Y-8784126I40000J0D01*
G01*
X10203000Y-3551626D02*
G75*
G02*
X10123000Y-3551626I-40000J0D01*
G01*
X10123000Y-3551626D02*
G75*
G02*
X10203000Y-3551626I40000J0D01*
G01*
X10416000Y-5033973D02*
G75*
G02*
X10336000Y-5033973I-40000J0D01*
G01*
X10336000Y-5033973D02*
G75*
G02*
X10416000Y-5033973I40000J0D01*
G01*
X10416000Y-5541973D02*
G75*
G02*
X10336000Y-5541973I-40000J0D01*
G01*
X10336000Y-5541973D02*
G75*
G02*
X10416000Y-5541973I40000J0D01*
G01*
X10416000Y-6777912D02*
G75*
G02*
X10336000Y-6777912I-40000J0D01*
G01*
X10336000Y-6777912D02*
G75*
G02*
X10416000Y-6777912I40000J0D01*
G01*
X10416000Y-7285912D02*
G75*
G02*
X10336000Y-7285912I-40000J0D01*
G01*
X10336000Y-7285912D02*
G75*
G02*
X10416000Y-7285912I40000J0D01*
G01*
X10416000Y-8530126D02*
G75*
G02*
X10336000Y-8530126I-40000J0D01*
G01*
X10336000Y-8530126D02*
G75*
G02*
X10416000Y-8530126I40000J0D01*
G01*
X10416000Y-9038126D02*
G75*
G02*
X10336000Y-9038126I-40000J0D01*
G01*
X10336000Y-9038126D02*
G75*
G02*
X10416000Y-9038126I40000J0D01*
G01*
X10457000Y-3297626D02*
G75*
G02*
X10377000Y-3297626I-40000J0D01*
G01*
X10377000Y-3297626D02*
G75*
G02*
X10457000Y-3297626I40000J0D01*
G01*
X10457000Y-3805626D02*
G75*
G02*
X10377000Y-3805626I-40000J0D01*
G01*
X10377000Y-3805626D02*
G75*
G02*
X10457000Y-3805626I40000J0D01*
G01*
X12660729Y-3445480D02*
G75*
G02*
X12580729Y-3445480I-40000J0D01*
G01*
X12580729Y-3445480D02*
G75*
G02*
X12660729Y-3445480I40000J0D01*
G01*
X12660729Y-3645480D02*
G75*
G02*
X12580729Y-3645480I-40000J0D01*
G01*
X12580729Y-3645480D02*
G75*
G02*
X12660729Y-3645480I40000J0D01*
G01*
X12660729Y-5179952D02*
G75*
G02*
X12580729Y-5179952I-40000J0D01*
G01*
X12580729Y-5179952D02*
G75*
G02*
X12660729Y-5179952I40000J0D01*
G01*
X12660729Y-5379952D02*
G75*
G02*
X12580729Y-5379952I-40000J0D01*
G01*
X12580729Y-5379952D02*
G75*
G02*
X12660729Y-5379952I40000J0D01*
G01*
X12660729Y-6925767D02*
G75*
G02*
X12580729Y-6925767I-40000J0D01*
G01*
X12580729Y-6925767D02*
G75*
G02*
X12660729Y-6925767I40000J0D01*
G01*
X12660729Y-7125767D02*
G75*
G02*
X12580729Y-7125767I-40000J0D01*
G01*
X12580729Y-7125767D02*
G75*
G02*
X12660729Y-7125767I40000J0D01*
G01*
X12660729Y-8677980D02*
G75*
G02*
X12580729Y-8677980I-40000J0D01*
G01*
X12580729Y-8677980D02*
G75*
G02*
X12660729Y-8677980I40000J0D01*
G01*
X12660729Y-8877980D02*
G75*
G02*
X12580729Y-8877980I-40000J0D01*
G01*
X12580729Y-8877980D02*
G75*
G02*
X12660729Y-8877980I40000J0D01*
G01*
D13*
X7135000Y-2695435D02*
X7135000Y-2915435D01*
X7025000Y-2805435D02*
X7245000Y-2805435D01*
X11760000Y-2695435D02*
X11760000Y-2915435D01*
X11650000Y-2805435D02*
X11870000Y-2805435D01*
X11760000Y-9395435D02*
X11760000Y-9615435D01*
X11650000Y-9505435D02*
X11870000Y-9505435D01*
D11*
X7093277Y-10094782D02*
X7093277Y-9894782D01*
X7093277Y-9894782D02*
X7140896Y-9894782D01*
X7140896Y-9894782D02*
X7169467Y-9904306D01*
X7169467Y-9904306D02*
X7188515Y-9923354D01*
X7188515Y-9923354D02*
X7198039Y-9942401D01*
X7198039Y-9942401D02*
X7207562Y-9980496D01*
X7207562Y-9980496D02*
X7207562Y-10009068D01*
X7207562Y-10009068D02*
X7198039Y-10047163D01*
X7198039Y-10047163D02*
X7188515Y-10066211D01*
X7188515Y-10066211D02*
X7169467Y-10085258D01*
X7169467Y-10085258D02*
X7140896Y-10094782D01*
X7140896Y-10094782D02*
X7093277Y-10094782D01*
X7293277Y-10094782D02*
X7293277Y-9961449D01*
X7293277Y-9999544D02*
X7302800Y-9980496D01*
X7302800Y-9980496D02*
X7312324Y-9970973D01*
X7312324Y-9970973D02*
X7331372Y-9961449D01*
X7331372Y-9961449D02*
X7350420Y-9961449D01*
X7417086Y-10094782D02*
X7417086Y-9961449D01*
X7417086Y-9894782D02*
X7407562Y-9904306D01*
X7407562Y-9904306D02*
X7417086Y-9913830D01*
X7417086Y-9913830D02*
X7426610Y-9904306D01*
X7426610Y-9904306D02*
X7417086Y-9894782D01*
X7417086Y-9894782D02*
X7417086Y-9913830D01*
X7540896Y-10094782D02*
X7521848Y-10085258D01*
X7521848Y-10085258D02*
X7512324Y-10066211D01*
X7512324Y-10066211D02*
X7512324Y-9894782D01*
X7645658Y-10094782D02*
X7626610Y-10085258D01*
X7626610Y-10085258D02*
X7617086Y-10066211D01*
X7617086Y-10066211D02*
X7617086Y-9894782D01*
X7874229Y-10094782D02*
X7874229Y-9894782D01*
X7874229Y-9894782D02*
X7940896Y-10037639D01*
X7940896Y-10037639D02*
X8007562Y-9894782D01*
X8007562Y-9894782D02*
X8007562Y-10094782D01*
X8188515Y-10094782D02*
X8188515Y-9990020D01*
X8188515Y-9990020D02*
X8178991Y-9970973D01*
X8178991Y-9970973D02*
X8159943Y-9961449D01*
X8159943Y-9961449D02*
X8121848Y-9961449D01*
X8121848Y-9961449D02*
X8102800Y-9970973D01*
X8188515Y-10085258D02*
X8169467Y-10094782D01*
X8169467Y-10094782D02*
X8121848Y-10094782D01*
X8121848Y-10094782D02*
X8102800Y-10085258D01*
X8102800Y-10085258D02*
X8093277Y-10066211D01*
X8093277Y-10066211D02*
X8093277Y-10047163D01*
X8093277Y-10047163D02*
X8102800Y-10028115D01*
X8102800Y-10028115D02*
X8121848Y-10018592D01*
X8121848Y-10018592D02*
X8169467Y-10018592D01*
X8169467Y-10018592D02*
X8188515Y-10009068D01*
X8283753Y-9961449D02*
X8283753Y-10161449D01*
X8283753Y-9970973D02*
X8302800Y-9961449D01*
X8302800Y-9961449D02*
X8340896Y-9961449D01*
X8340896Y-9961449D02*
X8359943Y-9970973D01*
X8359943Y-9970973D02*
X8369467Y-9980496D01*
X8369467Y-9980496D02*
X8378991Y-9999544D01*
X8378991Y-9999544D02*
X8378991Y-10056687D01*
X8378991Y-10056687D02*
X8369467Y-10075734D01*
X8369467Y-10075734D02*
X8359943Y-10085258D01*
X8359943Y-10085258D02*
X8340896Y-10094782D01*
X8340896Y-10094782D02*
X8302800Y-10094782D01*
X8302800Y-10094782D02*
X8283753Y-10085258D01*
X8464705Y-10075734D02*
X8474229Y-10085258D01*
X8474229Y-10085258D02*
X8464705Y-10094782D01*
X8464705Y-10094782D02*
X8455182Y-10085258D01*
X8455182Y-10085258D02*
X8464705Y-10075734D01*
X8464705Y-10075734D02*
X8464705Y-10094782D01*
X8464705Y-9970973D02*
X8474229Y-9980496D01*
X8474229Y-9980496D02*
X8464705Y-9990020D01*
X8464705Y-9990020D02*
X8455182Y-9980496D01*
X8455182Y-9980496D02*
X8464705Y-9970973D01*
X8464705Y-9970973D02*
X8464705Y-9990020D01*
D12*
X6802500Y-10408298D02*
X6832500Y-10438298D01*
X6832500Y-10408298D02*
X6802500Y-10438298D01*
D11*
X7131372Y-10314782D02*
X7150420Y-10314782D01*
X7150420Y-10314782D02*
X7169467Y-10324306D01*
X7169467Y-10324306D02*
X7178991Y-10333830D01*
X7178991Y-10333830D02*
X7188515Y-10352877D01*
X7188515Y-10352877D02*
X7198039Y-10390973D01*
X7198039Y-10390973D02*
X7198039Y-10438592D01*
X7198039Y-10438592D02*
X7188515Y-10476687D01*
X7188515Y-10476687D02*
X7178991Y-10495734D01*
X7178991Y-10495734D02*
X7169467Y-10505258D01*
X7169467Y-10505258D02*
X7150420Y-10514782D01*
X7150420Y-10514782D02*
X7131372Y-10514782D01*
X7131372Y-10514782D02*
X7112324Y-10505258D01*
X7112324Y-10505258D02*
X7102800Y-10495734D01*
X7102800Y-10495734D02*
X7093277Y-10476687D01*
X7093277Y-10476687D02*
X7083753Y-10438592D01*
X7083753Y-10438592D02*
X7083753Y-10390973D01*
X7083753Y-10390973D02*
X7093277Y-10352877D01*
X7093277Y-10352877D02*
X7102800Y-10333830D01*
X7102800Y-10333830D02*
X7112324Y-10324306D01*
X7112324Y-10324306D02*
X7131372Y-10314782D01*
X7283753Y-10495734D02*
X7293277Y-10505258D01*
X7293277Y-10505258D02*
X7283753Y-10514782D01*
X7283753Y-10514782D02*
X7274229Y-10505258D01*
X7274229Y-10505258D02*
X7283753Y-10495734D01*
X7283753Y-10495734D02*
X7283753Y-10514782D01*
X7359943Y-10314782D02*
X7483753Y-10314782D01*
X7483753Y-10314782D02*
X7417086Y-10390973D01*
X7417086Y-10390973D02*
X7445658Y-10390973D01*
X7445658Y-10390973D02*
X7464705Y-10400496D01*
X7464705Y-10400496D02*
X7474229Y-10410020D01*
X7474229Y-10410020D02*
X7483753Y-10429068D01*
X7483753Y-10429068D02*
X7483753Y-10476687D01*
X7483753Y-10476687D02*
X7474229Y-10495734D01*
X7474229Y-10495734D02*
X7464705Y-10505258D01*
X7464705Y-10505258D02*
X7445658Y-10514782D01*
X7445658Y-10514782D02*
X7388515Y-10514782D01*
X7388515Y-10514782D02*
X7369467Y-10505258D01*
X7369467Y-10505258D02*
X7359943Y-10495734D01*
X7607562Y-10314782D02*
X7626610Y-10314782D01*
X7626610Y-10314782D02*
X7645658Y-10324306D01*
X7645658Y-10324306D02*
X7655181Y-10333830D01*
X7655181Y-10333830D02*
X7664705Y-10352877D01*
X7664705Y-10352877D02*
X7674229Y-10390973D01*
X7674229Y-10390973D02*
X7674229Y-10438592D01*
X7674229Y-10438592D02*
X7664705Y-10476687D01*
X7664705Y-10476687D02*
X7655181Y-10495734D01*
X7655181Y-10495734D02*
X7645658Y-10505258D01*
X7645658Y-10505258D02*
X7626610Y-10514782D01*
X7626610Y-10514782D02*
X7607562Y-10514782D01*
X7607562Y-10514782D02*
X7588515Y-10505258D01*
X7588515Y-10505258D02*
X7578991Y-10495734D01*
X7578991Y-10495734D02*
X7569467Y-10476687D01*
X7569467Y-10476687D02*
X7559943Y-10438592D01*
X7559943Y-10438592D02*
X7559943Y-10390973D01*
X7559943Y-10390973D02*
X7569467Y-10352877D01*
X7569467Y-10352877D02*
X7578991Y-10333830D01*
X7578991Y-10333830D02*
X7588515Y-10324306D01*
X7588515Y-10324306D02*
X7607562Y-10314782D01*
X7798039Y-10314782D02*
X7817086Y-10314782D01*
X7817086Y-10314782D02*
X7836134Y-10324306D01*
X7836134Y-10324306D02*
X7845658Y-10333830D01*
X7845658Y-10333830D02*
X7855181Y-10352877D01*
X7855181Y-10352877D02*
X7864705Y-10390973D01*
X7864705Y-10390973D02*
X7864705Y-10438592D01*
X7864705Y-10438592D02*
X7855181Y-10476687D01*
X7855181Y-10476687D02*
X7845658Y-10495734D01*
X7845658Y-10495734D02*
X7836134Y-10505258D01*
X7836134Y-10505258D02*
X7817086Y-10514782D01*
X7817086Y-10514782D02*
X7798039Y-10514782D01*
X7798039Y-10514782D02*
X7778991Y-10505258D01*
X7778991Y-10505258D02*
X7769467Y-10495734D01*
X7769467Y-10495734D02*
X7759943Y-10476687D01*
X7759943Y-10476687D02*
X7750420Y-10438592D01*
X7750420Y-10438592D02*
X7750420Y-10390973D01*
X7750420Y-10390973D02*
X7759943Y-10352877D01*
X7759943Y-10352877D02*
X7769467Y-10333830D01*
X7769467Y-10333830D02*
X7778991Y-10324306D01*
X7778991Y-10324306D02*
X7798039Y-10314782D01*
X7950420Y-10514782D02*
X7950420Y-10381449D01*
X7950420Y-10400496D02*
X7959943Y-10390973D01*
X7959943Y-10390973D02*
X7978991Y-10381449D01*
X7978991Y-10381449D02*
X8007562Y-10381449D01*
X8007562Y-10381449D02*
X8026610Y-10390973D01*
X8026610Y-10390973D02*
X8036134Y-10410020D01*
X8036134Y-10410020D02*
X8036134Y-10514782D01*
X8036134Y-10410020D02*
X8045658Y-10390973D01*
X8045658Y-10390973D02*
X8064705Y-10381449D01*
X8064705Y-10381449D02*
X8093277Y-10381449D01*
X8093277Y-10381449D02*
X8112324Y-10390973D01*
X8112324Y-10390973D02*
X8121848Y-10410020D01*
X8121848Y-10410020D02*
X8121848Y-10514782D01*
X8217086Y-10514782D02*
X8217086Y-10381449D01*
X8217086Y-10400496D02*
X8226610Y-10390973D01*
X8226610Y-10390973D02*
X8245658Y-10381449D01*
X8245658Y-10381449D02*
X8274229Y-10381449D01*
X8274229Y-10381449D02*
X8293277Y-10390973D01*
X8293277Y-10390973D02*
X8302801Y-10410020D01*
X8302801Y-10410020D02*
X8302801Y-10514782D01*
X8302801Y-10410020D02*
X8312324Y-10390973D01*
X8312324Y-10390973D02*
X8331372Y-10381449D01*
X8331372Y-10381449D02*
X8359943Y-10381449D01*
X8359943Y-10381449D02*
X8378991Y-10390973D01*
X8378991Y-10390973D02*
X8388515Y-10410020D01*
X8388515Y-10410020D02*
X8388515Y-10514782D01*
X8778991Y-10305258D02*
X8607563Y-10562401D01*
X9036134Y-10314782D02*
X9055182Y-10314782D01*
X9055182Y-10314782D02*
X9074229Y-10324306D01*
X9074229Y-10324306D02*
X9083753Y-10333830D01*
X9083753Y-10333830D02*
X9093277Y-10352877D01*
X9093277Y-10352877D02*
X9102801Y-10390973D01*
X9102801Y-10390973D02*
X9102801Y-10438592D01*
X9102801Y-10438592D02*
X9093277Y-10476687D01*
X9093277Y-10476687D02*
X9083753Y-10495734D01*
X9083753Y-10495734D02*
X9074229Y-10505258D01*
X9074229Y-10505258D02*
X9055182Y-10514782D01*
X9055182Y-10514782D02*
X9036134Y-10514782D01*
X9036134Y-10514782D02*
X9017086Y-10505258D01*
X9017086Y-10505258D02*
X9007563Y-10495734D01*
X9007563Y-10495734D02*
X8998039Y-10476687D01*
X8998039Y-10476687D02*
X8988515Y-10438592D01*
X8988515Y-10438592D02*
X8988515Y-10390973D01*
X8988515Y-10390973D02*
X8998039Y-10352877D01*
X8998039Y-10352877D02*
X9007563Y-10333830D01*
X9007563Y-10333830D02*
X9017086Y-10324306D01*
X9017086Y-10324306D02*
X9036134Y-10314782D01*
X9188515Y-10495734D02*
X9198039Y-10505258D01*
X9198039Y-10505258D02*
X9188515Y-10514782D01*
X9188515Y-10514782D02*
X9178991Y-10505258D01*
X9178991Y-10505258D02*
X9188515Y-10495734D01*
X9188515Y-10495734D02*
X9188515Y-10514782D01*
X9321848Y-10314782D02*
X9340896Y-10314782D01*
X9340896Y-10314782D02*
X9359944Y-10324306D01*
X9359944Y-10324306D02*
X9369467Y-10333830D01*
X9369467Y-10333830D02*
X9378991Y-10352877D01*
X9378991Y-10352877D02*
X9388515Y-10390973D01*
X9388515Y-10390973D02*
X9388515Y-10438592D01*
X9388515Y-10438592D02*
X9378991Y-10476687D01*
X9378991Y-10476687D02*
X9369467Y-10495734D01*
X9369467Y-10495734D02*
X9359944Y-10505258D01*
X9359944Y-10505258D02*
X9340896Y-10514782D01*
X9340896Y-10514782D02*
X9321848Y-10514782D01*
X9321848Y-10514782D02*
X9302801Y-10505258D01*
X9302801Y-10505258D02*
X9293277Y-10495734D01*
X9293277Y-10495734D02*
X9283753Y-10476687D01*
X9283753Y-10476687D02*
X9274229Y-10438592D01*
X9274229Y-10438592D02*
X9274229Y-10390973D01*
X9274229Y-10390973D02*
X9283753Y-10352877D01*
X9283753Y-10352877D02*
X9293277Y-10333830D01*
X9293277Y-10333830D02*
X9302801Y-10324306D01*
X9302801Y-10324306D02*
X9321848Y-10314782D01*
X9578991Y-10514782D02*
X9464706Y-10514782D01*
X9521848Y-10514782D02*
X9521848Y-10314782D01*
X9521848Y-10314782D02*
X9502801Y-10343354D01*
X9502801Y-10343354D02*
X9483753Y-10362401D01*
X9483753Y-10362401D02*
X9464706Y-10371925D01*
X9769467Y-10514782D02*
X9655182Y-10514782D01*
X9712325Y-10514782D02*
X9712325Y-10314782D01*
X9712325Y-10314782D02*
X9693277Y-10343354D01*
X9693277Y-10343354D02*
X9674229Y-10362401D01*
X9674229Y-10362401D02*
X9655182Y-10371925D01*
X9883753Y-10400496D02*
X9864706Y-10390973D01*
X9864706Y-10390973D02*
X9855182Y-10381449D01*
X9855182Y-10381449D02*
X9845658Y-10362401D01*
X9845658Y-10362401D02*
X9845658Y-10352877D01*
X9845658Y-10352877D02*
X9855182Y-10333830D01*
X9855182Y-10333830D02*
X9864706Y-10324306D01*
X9864706Y-10324306D02*
X9883753Y-10314782D01*
X9883753Y-10314782D02*
X9921848Y-10314782D01*
X9921848Y-10314782D02*
X9940896Y-10324306D01*
X9940896Y-10324306D02*
X9950420Y-10333830D01*
X9950420Y-10333830D02*
X9959944Y-10352877D01*
X9959944Y-10352877D02*
X9959944Y-10362401D01*
X9959944Y-10362401D02*
X9950420Y-10381449D01*
X9950420Y-10381449D02*
X9940896Y-10390973D01*
X9940896Y-10390973D02*
X9921848Y-10400496D01*
X9921848Y-10400496D02*
X9883753Y-10400496D01*
X9883753Y-10400496D02*
X9864706Y-10410020D01*
X9864706Y-10410020D02*
X9855182Y-10419544D01*
X9855182Y-10419544D02*
X9845658Y-10438592D01*
X9845658Y-10438592D02*
X9845658Y-10476687D01*
X9845658Y-10476687D02*
X9855182Y-10495734D01*
X9855182Y-10495734D02*
X9864706Y-10505258D01*
X9864706Y-10505258D02*
X9883753Y-10514782D01*
X9883753Y-10514782D02*
X9921848Y-10514782D01*
X9921848Y-10514782D02*
X9940896Y-10505258D01*
X9940896Y-10505258D02*
X9950420Y-10495734D01*
X9950420Y-10495734D02*
X9959944Y-10476687D01*
X9959944Y-10476687D02*
X9959944Y-10438592D01*
X9959944Y-10438592D02*
X9950420Y-10419544D01*
X9950420Y-10419544D02*
X9940896Y-10410020D01*
X9940896Y-10410020D02*
X9921848Y-10400496D01*
X10036134Y-10314782D02*
X10036134Y-10352877D01*
X10112325Y-10314782D02*
X10112325Y-10352877D01*
X10407563Y-10590973D02*
X10398039Y-10581449D01*
X10398039Y-10581449D02*
X10378991Y-10552877D01*
X10378991Y-10552877D02*
X10369468Y-10533830D01*
X10369468Y-10533830D02*
X10359944Y-10505258D01*
X10359944Y-10505258D02*
X10350420Y-10457639D01*
X10350420Y-10457639D02*
X10350420Y-10419544D01*
X10350420Y-10419544D02*
X10359944Y-10371925D01*
X10359944Y-10371925D02*
X10369468Y-10343354D01*
X10369468Y-10343354D02*
X10378991Y-10324306D01*
X10378991Y-10324306D02*
X10398039Y-10295734D01*
X10398039Y-10295734D02*
X10407563Y-10286211D01*
X10569468Y-10381449D02*
X10569468Y-10514782D01*
X10521848Y-10305258D02*
X10474229Y-10448115D01*
X10474229Y-10448115D02*
X10598039Y-10448115D01*
X10826610Y-10514782D02*
X10826610Y-10314782D01*
X10912325Y-10514782D02*
X10912325Y-10410020D01*
X10912325Y-10410020D02*
X10902801Y-10390973D01*
X10902801Y-10390973D02*
X10883753Y-10381449D01*
X10883753Y-10381449D02*
X10855182Y-10381449D01*
X10855182Y-10381449D02*
X10836134Y-10390973D01*
X10836134Y-10390973D02*
X10826610Y-10400496D01*
X11036134Y-10514782D02*
X11017087Y-10505258D01*
X11017087Y-10505258D02*
X11007563Y-10495734D01*
X11007563Y-10495734D02*
X10998039Y-10476687D01*
X10998039Y-10476687D02*
X10998039Y-10419544D01*
X10998039Y-10419544D02*
X11007563Y-10400496D01*
X11007563Y-10400496D02*
X11017087Y-10390973D01*
X11017087Y-10390973D02*
X11036134Y-10381449D01*
X11036134Y-10381449D02*
X11064706Y-10381449D01*
X11064706Y-10381449D02*
X11083753Y-10390973D01*
X11083753Y-10390973D02*
X11093277Y-10400496D01*
X11093277Y-10400496D02*
X11102801Y-10419544D01*
X11102801Y-10419544D02*
X11102801Y-10476687D01*
X11102801Y-10476687D02*
X11093277Y-10495734D01*
X11093277Y-10495734D02*
X11083753Y-10505258D01*
X11083753Y-10505258D02*
X11064706Y-10514782D01*
X11064706Y-10514782D02*
X11036134Y-10514782D01*
X11217087Y-10514782D02*
X11198039Y-10505258D01*
X11198039Y-10505258D02*
X11188515Y-10486211D01*
X11188515Y-10486211D02*
X11188515Y-10314782D01*
X11369468Y-10505258D02*
X11350420Y-10514782D01*
X11350420Y-10514782D02*
X11312325Y-10514782D01*
X11312325Y-10514782D02*
X11293277Y-10505258D01*
X11293277Y-10505258D02*
X11283753Y-10486211D01*
X11283753Y-10486211D02*
X11283753Y-10410020D01*
X11283753Y-10410020D02*
X11293277Y-10390973D01*
X11293277Y-10390973D02*
X11312325Y-10381449D01*
X11312325Y-10381449D02*
X11350420Y-10381449D01*
X11350420Y-10381449D02*
X11369468Y-10390973D01*
X11369468Y-10390973D02*
X11378991Y-10410020D01*
X11378991Y-10410020D02*
X11378991Y-10429068D01*
X11378991Y-10429068D02*
X11283753Y-10448115D01*
X11455182Y-10505258D02*
X11474229Y-10514782D01*
X11474229Y-10514782D02*
X11512325Y-10514782D01*
X11512325Y-10514782D02*
X11531372Y-10505258D01*
X11531372Y-10505258D02*
X11540896Y-10486211D01*
X11540896Y-10486211D02*
X11540896Y-10476687D01*
X11540896Y-10476687D02*
X11531372Y-10457639D01*
X11531372Y-10457639D02*
X11512325Y-10448115D01*
X11512325Y-10448115D02*
X11483753Y-10448115D01*
X11483753Y-10448115D02*
X11464706Y-10438592D01*
X11464706Y-10438592D02*
X11455182Y-10419544D01*
X11455182Y-10419544D02*
X11455182Y-10410020D01*
X11455182Y-10410020D02*
X11464706Y-10390973D01*
X11464706Y-10390973D02*
X11483753Y-10381449D01*
X11483753Y-10381449D02*
X11512325Y-10381449D01*
X11512325Y-10381449D02*
X11531372Y-10390973D01*
X11607563Y-10590973D02*
X11617087Y-10581449D01*
X11617087Y-10581449D02*
X11636134Y-10552877D01*
X11636134Y-10552877D02*
X11645658Y-10533830D01*
X11645658Y-10533830D02*
X11655182Y-10505258D01*
X11655182Y-10505258D02*
X11664706Y-10457639D01*
X11664706Y-10457639D02*
X11664706Y-10419544D01*
X11664706Y-10419544D02*
X11655182Y-10371925D01*
X11655182Y-10371925D02*
X11645658Y-10343354D01*
X11645658Y-10343354D02*
X11636134Y-10324306D01*
X11636134Y-10324306D02*
X11617087Y-10295734D01*
X11617087Y-10295734D02*
X11607563Y-10286211D01*
D12*
X6832500Y-10687298D02*
G75*
G02*
X6752500Y-10687298I-40000J0D01*
G01*
X6752500Y-10687298D02*
G75*
G02*
X6832500Y-10687298I40000J0D01*
G01*
D11*
X7131372Y-10578782D02*
X7150420Y-10578782D01*
X7150420Y-10578782D02*
X7169467Y-10588306D01*
X7169467Y-10588306D02*
X7178991Y-10597830D01*
X7178991Y-10597830D02*
X7188515Y-10616877D01*
X7188515Y-10616877D02*
X7198039Y-10654973D01*
X7198039Y-10654973D02*
X7198039Y-10702592D01*
X7198039Y-10702592D02*
X7188515Y-10740687D01*
X7188515Y-10740687D02*
X7178991Y-10759734D01*
X7178991Y-10759734D02*
X7169467Y-10769258D01*
X7169467Y-10769258D02*
X7150420Y-10778782D01*
X7150420Y-10778782D02*
X7131372Y-10778782D01*
X7131372Y-10778782D02*
X7112324Y-10769258D01*
X7112324Y-10769258D02*
X7102800Y-10759734D01*
X7102800Y-10759734D02*
X7093277Y-10740687D01*
X7093277Y-10740687D02*
X7083753Y-10702592D01*
X7083753Y-10702592D02*
X7083753Y-10654973D01*
X7083753Y-10654973D02*
X7093277Y-10616877D01*
X7093277Y-10616877D02*
X7102800Y-10597830D01*
X7102800Y-10597830D02*
X7112324Y-10588306D01*
X7112324Y-10588306D02*
X7131372Y-10578782D01*
X7283753Y-10759734D02*
X7293277Y-10769258D01*
X7293277Y-10769258D02*
X7283753Y-10778782D01*
X7283753Y-10778782D02*
X7274229Y-10769258D01*
X7274229Y-10769258D02*
X7283753Y-10759734D01*
X7283753Y-10759734D02*
X7283753Y-10778782D01*
X7407562Y-10664496D02*
X7388515Y-10654973D01*
X7388515Y-10654973D02*
X7378991Y-10645449D01*
X7378991Y-10645449D02*
X7369467Y-10626401D01*
X7369467Y-10626401D02*
X7369467Y-10616877D01*
X7369467Y-10616877D02*
X7378991Y-10597830D01*
X7378991Y-10597830D02*
X7388515Y-10588306D01*
X7388515Y-10588306D02*
X7407562Y-10578782D01*
X7407562Y-10578782D02*
X7445658Y-10578782D01*
X7445658Y-10578782D02*
X7464705Y-10588306D01*
X7464705Y-10588306D02*
X7474229Y-10597830D01*
X7474229Y-10597830D02*
X7483753Y-10616877D01*
X7483753Y-10616877D02*
X7483753Y-10626401D01*
X7483753Y-10626401D02*
X7474229Y-10645449D01*
X7474229Y-10645449D02*
X7464705Y-10654973D01*
X7464705Y-10654973D02*
X7445658Y-10664496D01*
X7445658Y-10664496D02*
X7407562Y-10664496D01*
X7407562Y-10664496D02*
X7388515Y-10674020D01*
X7388515Y-10674020D02*
X7378991Y-10683544D01*
X7378991Y-10683544D02*
X7369467Y-10702592D01*
X7369467Y-10702592D02*
X7369467Y-10740687D01*
X7369467Y-10740687D02*
X7378991Y-10759734D01*
X7378991Y-10759734D02*
X7388515Y-10769258D01*
X7388515Y-10769258D02*
X7407562Y-10778782D01*
X7407562Y-10778782D02*
X7445658Y-10778782D01*
X7445658Y-10778782D02*
X7464705Y-10769258D01*
X7464705Y-10769258D02*
X7474229Y-10759734D01*
X7474229Y-10759734D02*
X7483753Y-10740687D01*
X7483753Y-10740687D02*
X7483753Y-10702592D01*
X7483753Y-10702592D02*
X7474229Y-10683544D01*
X7474229Y-10683544D02*
X7464705Y-10674020D01*
X7464705Y-10674020D02*
X7445658Y-10664496D01*
X7607562Y-10578782D02*
X7626610Y-10578782D01*
X7626610Y-10578782D02*
X7645658Y-10588306D01*
X7645658Y-10588306D02*
X7655181Y-10597830D01*
X7655181Y-10597830D02*
X7664705Y-10616877D01*
X7664705Y-10616877D02*
X7674229Y-10654973D01*
X7674229Y-10654973D02*
X7674229Y-10702592D01*
X7674229Y-10702592D02*
X7664705Y-10740687D01*
X7664705Y-10740687D02*
X7655181Y-10759734D01*
X7655181Y-10759734D02*
X7645658Y-10769258D01*
X7645658Y-10769258D02*
X7626610Y-10778782D01*
X7626610Y-10778782D02*
X7607562Y-10778782D01*
X7607562Y-10778782D02*
X7588515Y-10769258D01*
X7588515Y-10769258D02*
X7578991Y-10759734D01*
X7578991Y-10759734D02*
X7569467Y-10740687D01*
X7569467Y-10740687D02*
X7559943Y-10702592D01*
X7559943Y-10702592D02*
X7559943Y-10654973D01*
X7559943Y-10654973D02*
X7569467Y-10616877D01*
X7569467Y-10616877D02*
X7578991Y-10597830D01*
X7578991Y-10597830D02*
X7588515Y-10588306D01*
X7588515Y-10588306D02*
X7607562Y-10578782D01*
X7798039Y-10578782D02*
X7817086Y-10578782D01*
X7817086Y-10578782D02*
X7836134Y-10588306D01*
X7836134Y-10588306D02*
X7845658Y-10597830D01*
X7845658Y-10597830D02*
X7855181Y-10616877D01*
X7855181Y-10616877D02*
X7864705Y-10654973D01*
X7864705Y-10654973D02*
X7864705Y-10702592D01*
X7864705Y-10702592D02*
X7855181Y-10740687D01*
X7855181Y-10740687D02*
X7845658Y-10759734D01*
X7845658Y-10759734D02*
X7836134Y-10769258D01*
X7836134Y-10769258D02*
X7817086Y-10778782D01*
X7817086Y-10778782D02*
X7798039Y-10778782D01*
X7798039Y-10778782D02*
X7778991Y-10769258D01*
X7778991Y-10769258D02*
X7769467Y-10759734D01*
X7769467Y-10759734D02*
X7759943Y-10740687D01*
X7759943Y-10740687D02*
X7750420Y-10702592D01*
X7750420Y-10702592D02*
X7750420Y-10654973D01*
X7750420Y-10654973D02*
X7759943Y-10616877D01*
X7759943Y-10616877D02*
X7769467Y-10597830D01*
X7769467Y-10597830D02*
X7778991Y-10588306D01*
X7778991Y-10588306D02*
X7798039Y-10578782D01*
X7950420Y-10778782D02*
X7950420Y-10645449D01*
X7950420Y-10664496D02*
X7959943Y-10654973D01*
X7959943Y-10654973D02*
X7978991Y-10645449D01*
X7978991Y-10645449D02*
X8007562Y-10645449D01*
X8007562Y-10645449D02*
X8026610Y-10654973D01*
X8026610Y-10654973D02*
X8036134Y-10674020D01*
X8036134Y-10674020D02*
X8036134Y-10778782D01*
X8036134Y-10674020D02*
X8045658Y-10654973D01*
X8045658Y-10654973D02*
X8064705Y-10645449D01*
X8064705Y-10645449D02*
X8093277Y-10645449D01*
X8093277Y-10645449D02*
X8112324Y-10654973D01*
X8112324Y-10654973D02*
X8121848Y-10674020D01*
X8121848Y-10674020D02*
X8121848Y-10778782D01*
X8217086Y-10778782D02*
X8217086Y-10645449D01*
X8217086Y-10664496D02*
X8226610Y-10654973D01*
X8226610Y-10654973D02*
X8245658Y-10645449D01*
X8245658Y-10645449D02*
X8274229Y-10645449D01*
X8274229Y-10645449D02*
X8293277Y-10654973D01*
X8293277Y-10654973D02*
X8302801Y-10674020D01*
X8302801Y-10674020D02*
X8302801Y-10778782D01*
X8302801Y-10674020D02*
X8312324Y-10654973D01*
X8312324Y-10654973D02*
X8331372Y-10645449D01*
X8331372Y-10645449D02*
X8359943Y-10645449D01*
X8359943Y-10645449D02*
X8378991Y-10654973D01*
X8378991Y-10654973D02*
X8388515Y-10674020D01*
X8388515Y-10674020D02*
X8388515Y-10778782D01*
X8778991Y-10569258D02*
X8607563Y-10826401D01*
X9036134Y-10578782D02*
X9055182Y-10578782D01*
X9055182Y-10578782D02*
X9074229Y-10588306D01*
X9074229Y-10588306D02*
X9083753Y-10597830D01*
X9083753Y-10597830D02*
X9093277Y-10616877D01*
X9093277Y-10616877D02*
X9102801Y-10654973D01*
X9102801Y-10654973D02*
X9102801Y-10702592D01*
X9102801Y-10702592D02*
X9093277Y-10740687D01*
X9093277Y-10740687D02*
X9083753Y-10759734D01*
X9083753Y-10759734D02*
X9074229Y-10769258D01*
X9074229Y-10769258D02*
X9055182Y-10778782D01*
X9055182Y-10778782D02*
X9036134Y-10778782D01*
X9036134Y-10778782D02*
X9017086Y-10769258D01*
X9017086Y-10769258D02*
X9007563Y-10759734D01*
X9007563Y-10759734D02*
X8998039Y-10740687D01*
X8998039Y-10740687D02*
X8988515Y-10702592D01*
X8988515Y-10702592D02*
X8988515Y-10654973D01*
X8988515Y-10654973D02*
X8998039Y-10616877D01*
X8998039Y-10616877D02*
X9007563Y-10597830D01*
X9007563Y-10597830D02*
X9017086Y-10588306D01*
X9017086Y-10588306D02*
X9036134Y-10578782D01*
X9188515Y-10759734D02*
X9198039Y-10769258D01*
X9198039Y-10769258D02*
X9188515Y-10778782D01*
X9188515Y-10778782D02*
X9178991Y-10769258D01*
X9178991Y-10769258D02*
X9188515Y-10759734D01*
X9188515Y-10759734D02*
X9188515Y-10778782D01*
X9321848Y-10578782D02*
X9340896Y-10578782D01*
X9340896Y-10578782D02*
X9359944Y-10588306D01*
X9359944Y-10588306D02*
X9369467Y-10597830D01*
X9369467Y-10597830D02*
X9378991Y-10616877D01*
X9378991Y-10616877D02*
X9388515Y-10654973D01*
X9388515Y-10654973D02*
X9388515Y-10702592D01*
X9388515Y-10702592D02*
X9378991Y-10740687D01*
X9378991Y-10740687D02*
X9369467Y-10759734D01*
X9369467Y-10759734D02*
X9359944Y-10769258D01*
X9359944Y-10769258D02*
X9340896Y-10778782D01*
X9340896Y-10778782D02*
X9321848Y-10778782D01*
X9321848Y-10778782D02*
X9302801Y-10769258D01*
X9302801Y-10769258D02*
X9293277Y-10759734D01*
X9293277Y-10759734D02*
X9283753Y-10740687D01*
X9283753Y-10740687D02*
X9274229Y-10702592D01*
X9274229Y-10702592D02*
X9274229Y-10654973D01*
X9274229Y-10654973D02*
X9283753Y-10616877D01*
X9283753Y-10616877D02*
X9293277Y-10597830D01*
X9293277Y-10597830D02*
X9302801Y-10588306D01*
X9302801Y-10588306D02*
X9321848Y-10578782D01*
X9455182Y-10578782D02*
X9578991Y-10578782D01*
X9578991Y-10578782D02*
X9512325Y-10654973D01*
X9512325Y-10654973D02*
X9540896Y-10654973D01*
X9540896Y-10654973D02*
X9559944Y-10664496D01*
X9559944Y-10664496D02*
X9569467Y-10674020D01*
X9569467Y-10674020D02*
X9578991Y-10693068D01*
X9578991Y-10693068D02*
X9578991Y-10740687D01*
X9578991Y-10740687D02*
X9569467Y-10759734D01*
X9569467Y-10759734D02*
X9559944Y-10769258D01*
X9559944Y-10769258D02*
X9540896Y-10778782D01*
X9540896Y-10778782D02*
X9483753Y-10778782D01*
X9483753Y-10778782D02*
X9464706Y-10769258D01*
X9464706Y-10769258D02*
X9455182Y-10759734D01*
X9769467Y-10778782D02*
X9655182Y-10778782D01*
X9712325Y-10778782D02*
X9712325Y-10578782D01*
X9712325Y-10578782D02*
X9693277Y-10607354D01*
X9693277Y-10607354D02*
X9674229Y-10626401D01*
X9674229Y-10626401D02*
X9655182Y-10635925D01*
X9950420Y-10578782D02*
X9855182Y-10578782D01*
X9855182Y-10578782D02*
X9845658Y-10674020D01*
X9845658Y-10674020D02*
X9855182Y-10664496D01*
X9855182Y-10664496D02*
X9874229Y-10654973D01*
X9874229Y-10654973D02*
X9921848Y-10654973D01*
X9921848Y-10654973D02*
X9940896Y-10664496D01*
X9940896Y-10664496D02*
X9950420Y-10674020D01*
X9950420Y-10674020D02*
X9959944Y-10693068D01*
X9959944Y-10693068D02*
X9959944Y-10740687D01*
X9959944Y-10740687D02*
X9950420Y-10759734D01*
X9950420Y-10759734D02*
X9940896Y-10769258D01*
X9940896Y-10769258D02*
X9921848Y-10778782D01*
X9921848Y-10778782D02*
X9874229Y-10778782D01*
X9874229Y-10778782D02*
X9855182Y-10769258D01*
X9855182Y-10769258D02*
X9845658Y-10759734D01*
X10036134Y-10578782D02*
X10036134Y-10616877D01*
X10112325Y-10578782D02*
X10112325Y-10616877D01*
X10407563Y-10854973D02*
X10398039Y-10845449D01*
X10398039Y-10845449D02*
X10378991Y-10816877D01*
X10378991Y-10816877D02*
X10369468Y-10797830D01*
X10369468Y-10797830D02*
X10359944Y-10769258D01*
X10359944Y-10769258D02*
X10350420Y-10721639D01*
X10350420Y-10721639D02*
X10350420Y-10683544D01*
X10350420Y-10683544D02*
X10359944Y-10635925D01*
X10359944Y-10635925D02*
X10369468Y-10607354D01*
X10369468Y-10607354D02*
X10378991Y-10588306D01*
X10378991Y-10588306D02*
X10398039Y-10559734D01*
X10398039Y-10559734D02*
X10407563Y-10550211D01*
X10569468Y-10578782D02*
X10531372Y-10578782D01*
X10531372Y-10578782D02*
X10512325Y-10588306D01*
X10512325Y-10588306D02*
X10502801Y-10597830D01*
X10502801Y-10597830D02*
X10483753Y-10626401D01*
X10483753Y-10626401D02*
X10474229Y-10664496D01*
X10474229Y-10664496D02*
X10474229Y-10740687D01*
X10474229Y-10740687D02*
X10483753Y-10759734D01*
X10483753Y-10759734D02*
X10493277Y-10769258D01*
X10493277Y-10769258D02*
X10512325Y-10778782D01*
X10512325Y-10778782D02*
X10550420Y-10778782D01*
X10550420Y-10778782D02*
X10569468Y-10769258D01*
X10569468Y-10769258D02*
X10578991Y-10759734D01*
X10578991Y-10759734D02*
X10588515Y-10740687D01*
X10588515Y-10740687D02*
X10588515Y-10693068D01*
X10588515Y-10693068D02*
X10578991Y-10674020D01*
X10578991Y-10674020D02*
X10569468Y-10664496D01*
X10569468Y-10664496D02*
X10550420Y-10654973D01*
X10550420Y-10654973D02*
X10512325Y-10654973D01*
X10512325Y-10654973D02*
X10493277Y-10664496D01*
X10493277Y-10664496D02*
X10483753Y-10674020D01*
X10483753Y-10674020D02*
X10474229Y-10693068D01*
X10759944Y-10645449D02*
X10759944Y-10778782D01*
X10712325Y-10569258D02*
X10664706Y-10712115D01*
X10664706Y-10712115D02*
X10788515Y-10712115D01*
X11017087Y-10778782D02*
X11017087Y-10578782D01*
X11102801Y-10778782D02*
X11102801Y-10674020D01*
X11102801Y-10674020D02*
X11093277Y-10654973D01*
X11093277Y-10654973D02*
X11074230Y-10645449D01*
X11074230Y-10645449D02*
X11045658Y-10645449D01*
X11045658Y-10645449D02*
X11026610Y-10654973D01*
X11026610Y-10654973D02*
X11017087Y-10664496D01*
X11226610Y-10778782D02*
X11207563Y-10769258D01*
X11207563Y-10769258D02*
X11198039Y-10759734D01*
X11198039Y-10759734D02*
X11188515Y-10740687D01*
X11188515Y-10740687D02*
X11188515Y-10683544D01*
X11188515Y-10683544D02*
X11198039Y-10664496D01*
X11198039Y-10664496D02*
X11207563Y-10654973D01*
X11207563Y-10654973D02*
X11226610Y-10645449D01*
X11226610Y-10645449D02*
X11255182Y-10645449D01*
X11255182Y-10645449D02*
X11274229Y-10654973D01*
X11274229Y-10654973D02*
X11283753Y-10664496D01*
X11283753Y-10664496D02*
X11293277Y-10683544D01*
X11293277Y-10683544D02*
X11293277Y-10740687D01*
X11293277Y-10740687D02*
X11283753Y-10759734D01*
X11283753Y-10759734D02*
X11274229Y-10769258D01*
X11274229Y-10769258D02*
X11255182Y-10778782D01*
X11255182Y-10778782D02*
X11226610Y-10778782D01*
X11407563Y-10778782D02*
X11388515Y-10769258D01*
X11388515Y-10769258D02*
X11378991Y-10750211D01*
X11378991Y-10750211D02*
X11378991Y-10578782D01*
X11559944Y-10769258D02*
X11540896Y-10778782D01*
X11540896Y-10778782D02*
X11502801Y-10778782D01*
X11502801Y-10778782D02*
X11483753Y-10769258D01*
X11483753Y-10769258D02*
X11474229Y-10750211D01*
X11474229Y-10750211D02*
X11474229Y-10674020D01*
X11474229Y-10674020D02*
X11483753Y-10654973D01*
X11483753Y-10654973D02*
X11502801Y-10645449D01*
X11502801Y-10645449D02*
X11540896Y-10645449D01*
X11540896Y-10645449D02*
X11559944Y-10654973D01*
X11559944Y-10654973D02*
X11569468Y-10674020D01*
X11569468Y-10674020D02*
X11569468Y-10693068D01*
X11569468Y-10693068D02*
X11474229Y-10712115D01*
X11645658Y-10769258D02*
X11664706Y-10778782D01*
X11664706Y-10778782D02*
X11702801Y-10778782D01*
X11702801Y-10778782D02*
X11721849Y-10769258D01*
X11721849Y-10769258D02*
X11731372Y-10750211D01*
X11731372Y-10750211D02*
X11731372Y-10740687D01*
X11731372Y-10740687D02*
X11721849Y-10721639D01*
X11721849Y-10721639D02*
X11702801Y-10712115D01*
X11702801Y-10712115D02*
X11674229Y-10712115D01*
X11674229Y-10712115D02*
X11655182Y-10702592D01*
X11655182Y-10702592D02*
X11645658Y-10683544D01*
X11645658Y-10683544D02*
X11645658Y-10674020D01*
X11645658Y-10674020D02*
X11655182Y-10654973D01*
X11655182Y-10654973D02*
X11674229Y-10645449D01*
X11674229Y-10645449D02*
X11702801Y-10645449D01*
X11702801Y-10645449D02*
X11721849Y-10654973D01*
X11798039Y-10854973D02*
X11807563Y-10845449D01*
X11807563Y-10845449D02*
X11826610Y-10816877D01*
X11826610Y-10816877D02*
X11836134Y-10797830D01*
X11836134Y-10797830D02*
X11845658Y-10769258D01*
X11845658Y-10769258D02*
X11855182Y-10721639D01*
X11855182Y-10721639D02*
X11855182Y-10683544D01*
X11855182Y-10683544D02*
X11845658Y-10635925D01*
X11845658Y-10635925D02*
X11836134Y-10607354D01*
X11836134Y-10607354D02*
X11826610Y-10588306D01*
X11826610Y-10588306D02*
X11807563Y-10559734D01*
X11807563Y-10559734D02*
X11798039Y-10550211D01*
X6732500Y-10851298D02*
X6732500Y-11051298D01*
X6632500Y-10951298D02*
X6832500Y-10951298D01*
X7083753Y-10861830D02*
X7093277Y-10852306D01*
X7093277Y-10852306D02*
X7112324Y-10842782D01*
X7112324Y-10842782D02*
X7159943Y-10842782D01*
X7159943Y-10842782D02*
X7178991Y-10852306D01*
X7178991Y-10852306D02*
X7188515Y-10861830D01*
X7188515Y-10861830D02*
X7198039Y-10880877D01*
X7198039Y-10880877D02*
X7198039Y-10899925D01*
X7198039Y-10899925D02*
X7188515Y-10928496D01*
X7188515Y-10928496D02*
X7074229Y-11042782D01*
X7074229Y-11042782D02*
X7198039Y-11042782D01*
X7283753Y-11023734D02*
X7293277Y-11033258D01*
X7293277Y-11033258D02*
X7283753Y-11042782D01*
X7283753Y-11042782D02*
X7274229Y-11033258D01*
X7274229Y-11033258D02*
X7283753Y-11023734D01*
X7283753Y-11023734D02*
X7283753Y-11042782D01*
X7369467Y-10861830D02*
X7378991Y-10852306D01*
X7378991Y-10852306D02*
X7398039Y-10842782D01*
X7398039Y-10842782D02*
X7445658Y-10842782D01*
X7445658Y-10842782D02*
X7464705Y-10852306D01*
X7464705Y-10852306D02*
X7474229Y-10861830D01*
X7474229Y-10861830D02*
X7483753Y-10880877D01*
X7483753Y-10880877D02*
X7483753Y-10899925D01*
X7483753Y-10899925D02*
X7474229Y-10928496D01*
X7474229Y-10928496D02*
X7359943Y-11042782D01*
X7359943Y-11042782D02*
X7483753Y-11042782D01*
X7607562Y-10842782D02*
X7626610Y-10842782D01*
X7626610Y-10842782D02*
X7645658Y-10852306D01*
X7645658Y-10852306D02*
X7655181Y-10861830D01*
X7655181Y-10861830D02*
X7664705Y-10880877D01*
X7664705Y-10880877D02*
X7674229Y-10918973D01*
X7674229Y-10918973D02*
X7674229Y-10966592D01*
X7674229Y-10966592D02*
X7664705Y-11004687D01*
X7664705Y-11004687D02*
X7655181Y-11023734D01*
X7655181Y-11023734D02*
X7645658Y-11033258D01*
X7645658Y-11033258D02*
X7626610Y-11042782D01*
X7626610Y-11042782D02*
X7607562Y-11042782D01*
X7607562Y-11042782D02*
X7588515Y-11033258D01*
X7588515Y-11033258D02*
X7578991Y-11023734D01*
X7578991Y-11023734D02*
X7569467Y-11004687D01*
X7569467Y-11004687D02*
X7559943Y-10966592D01*
X7559943Y-10966592D02*
X7559943Y-10918973D01*
X7559943Y-10918973D02*
X7569467Y-10880877D01*
X7569467Y-10880877D02*
X7578991Y-10861830D01*
X7578991Y-10861830D02*
X7588515Y-10852306D01*
X7588515Y-10852306D02*
X7607562Y-10842782D01*
X7798039Y-10842782D02*
X7817086Y-10842782D01*
X7817086Y-10842782D02*
X7836134Y-10852306D01*
X7836134Y-10852306D02*
X7845658Y-10861830D01*
X7845658Y-10861830D02*
X7855181Y-10880877D01*
X7855181Y-10880877D02*
X7864705Y-10918973D01*
X7864705Y-10918973D02*
X7864705Y-10966592D01*
X7864705Y-10966592D02*
X7855181Y-11004687D01*
X7855181Y-11004687D02*
X7845658Y-11023734D01*
X7845658Y-11023734D02*
X7836134Y-11033258D01*
X7836134Y-11033258D02*
X7817086Y-11042782D01*
X7817086Y-11042782D02*
X7798039Y-11042782D01*
X7798039Y-11042782D02*
X7778991Y-11033258D01*
X7778991Y-11033258D02*
X7769467Y-11023734D01*
X7769467Y-11023734D02*
X7759943Y-11004687D01*
X7759943Y-11004687D02*
X7750420Y-10966592D01*
X7750420Y-10966592D02*
X7750420Y-10918973D01*
X7750420Y-10918973D02*
X7759943Y-10880877D01*
X7759943Y-10880877D02*
X7769467Y-10861830D01*
X7769467Y-10861830D02*
X7778991Y-10852306D01*
X7778991Y-10852306D02*
X7798039Y-10842782D01*
X7950420Y-11042782D02*
X7950420Y-10909449D01*
X7950420Y-10928496D02*
X7959943Y-10918973D01*
X7959943Y-10918973D02*
X7978991Y-10909449D01*
X7978991Y-10909449D02*
X8007562Y-10909449D01*
X8007562Y-10909449D02*
X8026610Y-10918973D01*
X8026610Y-10918973D02*
X8036134Y-10938020D01*
X8036134Y-10938020D02*
X8036134Y-11042782D01*
X8036134Y-10938020D02*
X8045658Y-10918973D01*
X8045658Y-10918973D02*
X8064705Y-10909449D01*
X8064705Y-10909449D02*
X8093277Y-10909449D01*
X8093277Y-10909449D02*
X8112324Y-10918973D01*
X8112324Y-10918973D02*
X8121848Y-10938020D01*
X8121848Y-10938020D02*
X8121848Y-11042782D01*
X8217086Y-11042782D02*
X8217086Y-10909449D01*
X8217086Y-10928496D02*
X8226610Y-10918973D01*
X8226610Y-10918973D02*
X8245658Y-10909449D01*
X8245658Y-10909449D02*
X8274229Y-10909449D01*
X8274229Y-10909449D02*
X8293277Y-10918973D01*
X8293277Y-10918973D02*
X8302801Y-10938020D01*
X8302801Y-10938020D02*
X8302801Y-11042782D01*
X8302801Y-10938020D02*
X8312324Y-10918973D01*
X8312324Y-10918973D02*
X8331372Y-10909449D01*
X8331372Y-10909449D02*
X8359943Y-10909449D01*
X8359943Y-10909449D02*
X8378991Y-10918973D01*
X8378991Y-10918973D02*
X8388515Y-10938020D01*
X8388515Y-10938020D02*
X8388515Y-11042782D01*
X8778991Y-10833258D02*
X8607563Y-11090401D01*
X9036134Y-10842782D02*
X9055182Y-10842782D01*
X9055182Y-10842782D02*
X9074229Y-10852306D01*
X9074229Y-10852306D02*
X9083753Y-10861830D01*
X9083753Y-10861830D02*
X9093277Y-10880877D01*
X9093277Y-10880877D02*
X9102801Y-10918973D01*
X9102801Y-10918973D02*
X9102801Y-10966592D01*
X9102801Y-10966592D02*
X9093277Y-11004687D01*
X9093277Y-11004687D02*
X9083753Y-11023734D01*
X9083753Y-11023734D02*
X9074229Y-11033258D01*
X9074229Y-11033258D02*
X9055182Y-11042782D01*
X9055182Y-11042782D02*
X9036134Y-11042782D01*
X9036134Y-11042782D02*
X9017086Y-11033258D01*
X9017086Y-11033258D02*
X9007563Y-11023734D01*
X9007563Y-11023734D02*
X8998039Y-11004687D01*
X8998039Y-11004687D02*
X8988515Y-10966592D01*
X8988515Y-10966592D02*
X8988515Y-10918973D01*
X8988515Y-10918973D02*
X8998039Y-10880877D01*
X8998039Y-10880877D02*
X9007563Y-10861830D01*
X9007563Y-10861830D02*
X9017086Y-10852306D01*
X9017086Y-10852306D02*
X9036134Y-10842782D01*
X9188515Y-11023734D02*
X9198039Y-11033258D01*
X9198039Y-11033258D02*
X9188515Y-11042782D01*
X9188515Y-11042782D02*
X9178991Y-11033258D01*
X9178991Y-11033258D02*
X9188515Y-11023734D01*
X9188515Y-11023734D02*
X9188515Y-11042782D01*
X9321848Y-10842782D02*
X9340896Y-10842782D01*
X9340896Y-10842782D02*
X9359944Y-10852306D01*
X9359944Y-10852306D02*
X9369467Y-10861830D01*
X9369467Y-10861830D02*
X9378991Y-10880877D01*
X9378991Y-10880877D02*
X9388515Y-10918973D01*
X9388515Y-10918973D02*
X9388515Y-10966592D01*
X9388515Y-10966592D02*
X9378991Y-11004687D01*
X9378991Y-11004687D02*
X9369467Y-11023734D01*
X9369467Y-11023734D02*
X9359944Y-11033258D01*
X9359944Y-11033258D02*
X9340896Y-11042782D01*
X9340896Y-11042782D02*
X9321848Y-11042782D01*
X9321848Y-11042782D02*
X9302801Y-11033258D01*
X9302801Y-11033258D02*
X9293277Y-11023734D01*
X9293277Y-11023734D02*
X9283753Y-11004687D01*
X9283753Y-11004687D02*
X9274229Y-10966592D01*
X9274229Y-10966592D02*
X9274229Y-10918973D01*
X9274229Y-10918973D02*
X9283753Y-10880877D01*
X9283753Y-10880877D02*
X9293277Y-10861830D01*
X9293277Y-10861830D02*
X9302801Y-10852306D01*
X9302801Y-10852306D02*
X9321848Y-10842782D01*
X9502801Y-10928496D02*
X9483753Y-10918973D01*
X9483753Y-10918973D02*
X9474229Y-10909449D01*
X9474229Y-10909449D02*
X9464706Y-10890401D01*
X9464706Y-10890401D02*
X9464706Y-10880877D01*
X9464706Y-10880877D02*
X9474229Y-10861830D01*
X9474229Y-10861830D02*
X9483753Y-10852306D01*
X9483753Y-10852306D02*
X9502801Y-10842782D01*
X9502801Y-10842782D02*
X9540896Y-10842782D01*
X9540896Y-10842782D02*
X9559944Y-10852306D01*
X9559944Y-10852306D02*
X9569467Y-10861830D01*
X9569467Y-10861830D02*
X9578991Y-10880877D01*
X9578991Y-10880877D02*
X9578991Y-10890401D01*
X9578991Y-10890401D02*
X9569467Y-10909449D01*
X9569467Y-10909449D02*
X9559944Y-10918973D01*
X9559944Y-10918973D02*
X9540896Y-10928496D01*
X9540896Y-10928496D02*
X9502801Y-10928496D01*
X9502801Y-10928496D02*
X9483753Y-10938020D01*
X9483753Y-10938020D02*
X9474229Y-10947544D01*
X9474229Y-10947544D02*
X9464706Y-10966592D01*
X9464706Y-10966592D02*
X9464706Y-11004687D01*
X9464706Y-11004687D02*
X9474229Y-11023734D01*
X9474229Y-11023734D02*
X9483753Y-11033258D01*
X9483753Y-11033258D02*
X9502801Y-11042782D01*
X9502801Y-11042782D02*
X9540896Y-11042782D01*
X9540896Y-11042782D02*
X9559944Y-11033258D01*
X9559944Y-11033258D02*
X9569467Y-11023734D01*
X9569467Y-11023734D02*
X9578991Y-11004687D01*
X9578991Y-11004687D02*
X9578991Y-10966592D01*
X9578991Y-10966592D02*
X9569467Y-10947544D01*
X9569467Y-10947544D02*
X9559944Y-10938020D01*
X9559944Y-10938020D02*
X9540896Y-10928496D01*
X9750420Y-10842782D02*
X9712325Y-10842782D01*
X9712325Y-10842782D02*
X9693277Y-10852306D01*
X9693277Y-10852306D02*
X9683753Y-10861830D01*
X9683753Y-10861830D02*
X9664706Y-10890401D01*
X9664706Y-10890401D02*
X9655182Y-10928496D01*
X9655182Y-10928496D02*
X9655182Y-11004687D01*
X9655182Y-11004687D02*
X9664706Y-11023734D01*
X9664706Y-11023734D02*
X9674229Y-11033258D01*
X9674229Y-11033258D02*
X9693277Y-11042782D01*
X9693277Y-11042782D02*
X9731372Y-11042782D01*
X9731372Y-11042782D02*
X9750420Y-11033258D01*
X9750420Y-11033258D02*
X9759944Y-11023734D01*
X9759944Y-11023734D02*
X9769467Y-11004687D01*
X9769467Y-11004687D02*
X9769467Y-10957068D01*
X9769467Y-10957068D02*
X9759944Y-10938020D01*
X9759944Y-10938020D02*
X9750420Y-10928496D01*
X9750420Y-10928496D02*
X9731372Y-10918973D01*
X9731372Y-10918973D02*
X9693277Y-10918973D01*
X9693277Y-10918973D02*
X9674229Y-10928496D01*
X9674229Y-10928496D02*
X9664706Y-10938020D01*
X9664706Y-10938020D02*
X9655182Y-10957068D01*
X9940896Y-10842782D02*
X9902801Y-10842782D01*
X9902801Y-10842782D02*
X9883753Y-10852306D01*
X9883753Y-10852306D02*
X9874229Y-10861830D01*
X9874229Y-10861830D02*
X9855182Y-10890401D01*
X9855182Y-10890401D02*
X9845658Y-10928496D01*
X9845658Y-10928496D02*
X9845658Y-11004687D01*
X9845658Y-11004687D02*
X9855182Y-11023734D01*
X9855182Y-11023734D02*
X9864706Y-11033258D01*
X9864706Y-11033258D02*
X9883753Y-11042782D01*
X9883753Y-11042782D02*
X9921848Y-11042782D01*
X9921848Y-11042782D02*
X9940896Y-11033258D01*
X9940896Y-11033258D02*
X9950420Y-11023734D01*
X9950420Y-11023734D02*
X9959944Y-11004687D01*
X9959944Y-11004687D02*
X9959944Y-10957068D01*
X9959944Y-10957068D02*
X9950420Y-10938020D01*
X9950420Y-10938020D02*
X9940896Y-10928496D01*
X9940896Y-10928496D02*
X9921848Y-10918973D01*
X9921848Y-10918973D02*
X9883753Y-10918973D01*
X9883753Y-10918973D02*
X9864706Y-10928496D01*
X9864706Y-10928496D02*
X9855182Y-10938020D01*
X9855182Y-10938020D02*
X9845658Y-10957068D01*
X10036134Y-10842782D02*
X10036134Y-10880877D01*
X10112325Y-10842782D02*
X10112325Y-10880877D01*
X10407563Y-11118973D02*
X10398039Y-11109449D01*
X10398039Y-11109449D02*
X10378991Y-11080877D01*
X10378991Y-11080877D02*
X10369468Y-11061830D01*
X10369468Y-11061830D02*
X10359944Y-11033258D01*
X10359944Y-11033258D02*
X10350420Y-10985639D01*
X10350420Y-10985639D02*
X10350420Y-10947544D01*
X10350420Y-10947544D02*
X10359944Y-10899925D01*
X10359944Y-10899925D02*
X10369468Y-10871354D01*
X10369468Y-10871354D02*
X10378991Y-10852306D01*
X10378991Y-10852306D02*
X10398039Y-10823734D01*
X10398039Y-10823734D02*
X10407563Y-10814211D01*
X10464706Y-10842782D02*
X10588515Y-10842782D01*
X10588515Y-10842782D02*
X10521848Y-10918973D01*
X10521848Y-10918973D02*
X10550420Y-10918973D01*
X10550420Y-10918973D02*
X10569468Y-10928496D01*
X10569468Y-10928496D02*
X10578991Y-10938020D01*
X10578991Y-10938020D02*
X10588515Y-10957068D01*
X10588515Y-10957068D02*
X10588515Y-11004687D01*
X10588515Y-11004687D02*
X10578991Y-11023734D01*
X10578991Y-11023734D02*
X10569468Y-11033258D01*
X10569468Y-11033258D02*
X10550420Y-11042782D01*
X10550420Y-11042782D02*
X10493277Y-11042782D01*
X10493277Y-11042782D02*
X10474229Y-11033258D01*
X10474229Y-11033258D02*
X10464706Y-11023734D01*
X10826610Y-11042782D02*
X10826610Y-10842782D01*
X10912325Y-11042782D02*
X10912325Y-10938020D01*
X10912325Y-10938020D02*
X10902801Y-10918973D01*
X10902801Y-10918973D02*
X10883753Y-10909449D01*
X10883753Y-10909449D02*
X10855182Y-10909449D01*
X10855182Y-10909449D02*
X10836134Y-10918973D01*
X10836134Y-10918973D02*
X10826610Y-10928496D01*
X11036134Y-11042782D02*
X11017087Y-11033258D01*
X11017087Y-11033258D02*
X11007563Y-11023734D01*
X11007563Y-11023734D02*
X10998039Y-11004687D01*
X10998039Y-11004687D02*
X10998039Y-10947544D01*
X10998039Y-10947544D02*
X11007563Y-10928496D01*
X11007563Y-10928496D02*
X11017087Y-10918973D01*
X11017087Y-10918973D02*
X11036134Y-10909449D01*
X11036134Y-10909449D02*
X11064706Y-10909449D01*
X11064706Y-10909449D02*
X11083753Y-10918973D01*
X11083753Y-10918973D02*
X11093277Y-10928496D01*
X11093277Y-10928496D02*
X11102801Y-10947544D01*
X11102801Y-10947544D02*
X11102801Y-11004687D01*
X11102801Y-11004687D02*
X11093277Y-11023734D01*
X11093277Y-11023734D02*
X11083753Y-11033258D01*
X11083753Y-11033258D02*
X11064706Y-11042782D01*
X11064706Y-11042782D02*
X11036134Y-11042782D01*
X11217087Y-11042782D02*
X11198039Y-11033258D01*
X11198039Y-11033258D02*
X11188515Y-11014211D01*
X11188515Y-11014211D02*
X11188515Y-10842782D01*
X11369468Y-11033258D02*
X11350420Y-11042782D01*
X11350420Y-11042782D02*
X11312325Y-11042782D01*
X11312325Y-11042782D02*
X11293277Y-11033258D01*
X11293277Y-11033258D02*
X11283753Y-11014211D01*
X11283753Y-11014211D02*
X11283753Y-10938020D01*
X11283753Y-10938020D02*
X11293277Y-10918973D01*
X11293277Y-10918973D02*
X11312325Y-10909449D01*
X11312325Y-10909449D02*
X11350420Y-10909449D01*
X11350420Y-10909449D02*
X11369468Y-10918973D01*
X11369468Y-10918973D02*
X11378991Y-10938020D01*
X11378991Y-10938020D02*
X11378991Y-10957068D01*
X11378991Y-10957068D02*
X11283753Y-10976115D01*
X11455182Y-11033258D02*
X11474229Y-11042782D01*
X11474229Y-11042782D02*
X11512325Y-11042782D01*
X11512325Y-11042782D02*
X11531372Y-11033258D01*
X11531372Y-11033258D02*
X11540896Y-11014211D01*
X11540896Y-11014211D02*
X11540896Y-11004687D01*
X11540896Y-11004687D02*
X11531372Y-10985639D01*
X11531372Y-10985639D02*
X11512325Y-10976115D01*
X11512325Y-10976115D02*
X11483753Y-10976115D01*
X11483753Y-10976115D02*
X11464706Y-10966592D01*
X11464706Y-10966592D02*
X11455182Y-10947544D01*
X11455182Y-10947544D02*
X11455182Y-10938020D01*
X11455182Y-10938020D02*
X11464706Y-10918973D01*
X11464706Y-10918973D02*
X11483753Y-10909449D01*
X11483753Y-10909449D02*
X11512325Y-10909449D01*
X11512325Y-10909449D02*
X11531372Y-10918973D01*
X11607563Y-11118973D02*
X11617087Y-11109449D01*
X11617087Y-11109449D02*
X11636134Y-11080877D01*
X11636134Y-11080877D02*
X11645658Y-11061830D01*
X11645658Y-11061830D02*
X11655182Y-11033258D01*
X11655182Y-11033258D02*
X11664706Y-10985639D01*
X11664706Y-10985639D02*
X11664706Y-10947544D01*
X11664706Y-10947544D02*
X11655182Y-10899925D01*
X11655182Y-10899925D02*
X11645658Y-10871354D01*
X11645658Y-10871354D02*
X11636134Y-10852306D01*
X11636134Y-10852306D02*
X11617087Y-10823734D01*
X11617087Y-10823734D02*
X11607563Y-10814211D01*
M02*
