G04 #@! TF.GenerationSoftware,KiCad,Pcbnew,8.0.1*
G04 #@! TF.CreationDate,2024-04-30T12:08:52+02:00*
G04 #@! TF.ProjectId,Taiko IoBoard,5461696b-6f20-4496-9f42-6f6172642e6b,1*
G04 #@! TF.SameCoordinates,Original*
G04 #@! TF.FileFunction,Paste,Top*
G04 #@! TF.FilePolarity,Positive*
%FSLAX46Y46*%
G04 Gerber Fmt 4.6, Leading zero omitted, Abs format (unit mm)*
G04 Created by KiCad (PCBNEW 8.0.1) date 2024-04-30 12:08:52*
%MOMM*%
%LPD*%
G01*
G04 APERTURE LIST*
G04 Aperture macros list*
%AMRoundRect*
0 Rectangle with rounded corners*
0 $1 Rounding radius*
0 $2 $3 $4 $5 $6 $7 $8 $9 X,Y pos of 4 corners*
0 Add a 4 corners polygon primitive as box body*
4,1,4,$2,$3,$4,$5,$6,$7,$8,$9,$2,$3,0*
0 Add four circle primitives for the rounded corners*
1,1,$1+$1,$2,$3*
1,1,$1+$1,$4,$5*
1,1,$1+$1,$6,$7*
1,1,$1+$1,$8,$9*
0 Add four rect primitives between the rounded corners*
20,1,$1+$1,$2,$3,$4,$5,0*
20,1,$1+$1,$4,$5,$6,$7,0*
20,1,$1+$1,$6,$7,$8,$9,0*
20,1,$1+$1,$8,$9,$2,$3,0*%
G04 Aperture macros list end*
%ADD10RoundRect,0.250000X0.625000X-0.400000X0.625000X0.400000X-0.625000X0.400000X-0.625000X-0.400000X0*%
%ADD11R,2.500000X1.524000*%
%ADD12RoundRect,0.250000X-0.400000X-0.625000X0.400000X-0.625000X0.400000X0.625000X-0.400000X0.625000X0*%
%ADD13RoundRect,0.250001X0.462499X0.624999X-0.462499X0.624999X-0.462499X-0.624999X0.462499X-0.624999X0*%
G04 APERTURE END LIST*
D10*
X110350000Y-91959637D03*
X110350000Y-88859637D03*
D11*
X121850000Y-90359637D03*
X121850000Y-85209637D03*
X113350000Y-85209637D03*
X113350000Y-90359637D03*
D12*
X122612500Y-82534637D03*
X125712500Y-82534637D03*
X122612500Y-30134637D03*
X125712500Y-30134637D03*
D10*
X110350000Y-56941851D03*
X110350000Y-53841851D03*
D13*
X131587500Y-47529351D03*
X128612500Y-47529351D03*
D10*
X110350000Y-51766851D03*
X110350000Y-48666851D03*
D11*
X121850000Y-72837500D03*
X121850000Y-67687500D03*
X113350000Y-67687500D03*
X113350000Y-72837500D03*
X121850000Y-38034637D03*
X121850000Y-32884637D03*
X113350000Y-32884637D03*
X113350000Y-38034637D03*
D10*
X110350000Y-86709637D03*
X110350000Y-83609637D03*
D13*
X131587500Y-82534637D03*
X128612500Y-82534637D03*
D10*
X110350000Y-74437500D03*
X110350000Y-71337500D03*
D13*
X131587500Y-65000000D03*
X128612500Y-65000000D03*
D10*
X110350000Y-69187500D03*
X110350000Y-66087500D03*
D13*
X131587500Y-30134637D03*
X128612500Y-30134637D03*
D10*
X110350000Y-34384637D03*
X110350000Y-31284637D03*
D12*
X122612500Y-65000000D03*
X125712500Y-65000000D03*
X122612500Y-47529351D03*
X125712500Y-47529351D03*
D11*
X121850000Y-55379351D03*
X121850000Y-50229351D03*
X113350000Y-50229351D03*
X113350000Y-55379351D03*
D10*
X110350000Y-39634637D03*
X110350000Y-36534637D03*
M02*
