G04 #@! TF.GenerationSoftware,KiCad,Pcbnew,8.0.1*
G04 #@! TF.CreationDate,2024-04-30T12:08:52+02:00*
G04 #@! TF.ProjectId,Taiko IoBoard,5461696b-6f20-4496-9f42-6f6172642e6b,1*
G04 #@! TF.SameCoordinates,Original*
G04 #@! TF.FileFunction,Copper,L2,Bot*
G04 #@! TF.FilePolarity,Positive*
%FSLAX46Y46*%
G04 Gerber Fmt 4.6, Leading zero omitted, Abs format (unit mm)*
G04 Created by KiCad (PCBNEW 8.0.1) date 2024-04-30 12:08:52*
%MOMM*%
%LPD*%
G01*
G04 APERTURE LIST*
G04 Aperture macros list*
%AMRoundRect*
0 Rectangle with rounded corners*
0 $1 Rounding radius*
0 $2 $3 $4 $5 $6 $7 $8 $9 X,Y pos of 4 corners*
0 Add a 4 corners polygon primitive as box body*
4,1,4,$2,$3,$4,$5,$6,$7,$8,$9,$2,$3,0*
0 Add four circle primitives for the rounded corners*
1,1,$1+$1,$2,$3*
1,1,$1+$1,$4,$5*
1,1,$1+$1,$6,$7*
1,1,$1+$1,$8,$9*
0 Add four rect primitives between the rounded corners*
20,1,$1+$1,$2,$3,$4,$5,0*
20,1,$1+$1,$4,$5,$6,$7,0*
20,1,$1+$1,$6,$7,$8,$9,0*
20,1,$1+$1,$8,$9,$2,$3,0*%
G04 Aperture macros list end*
G04 #@! TA.AperFunction,ComponentPad*
%ADD10R,2.000000X1.200000*%
G04 #@! TD*
G04 #@! TA.AperFunction,ComponentPad*
%ADD11O,2.000000X1.200000*%
G04 #@! TD*
G04 #@! TA.AperFunction,ComponentPad*
%ADD12RoundRect,0.300000X0.600000X-0.300000X0.600000X0.300000X-0.600000X0.300000X-0.600000X-0.300000X0*%
G04 #@! TD*
G04 #@! TA.AperFunction,ComponentPad*
%ADD13O,1.800000X1.200000*%
G04 #@! TD*
G04 #@! TA.AperFunction,ComponentPad*
%ADD14C,1.900000*%
G04 #@! TD*
G04 #@! TA.AperFunction,ComponentPad*
%ADD15C,3.800000*%
G04 #@! TD*
G04 #@! TA.AperFunction,ViaPad*
%ADD16C,0.600000*%
G04 #@! TD*
G04 #@! TA.AperFunction,Conductor*
%ADD17C,0.200000*%
G04 #@! TD*
G04 APERTURE END LIST*
D10*
X72350000Y-32554351D03*
D11*
X72350000Y-35094351D03*
X72350000Y-37634351D03*
X72350000Y-40174351D03*
X72350000Y-42714351D03*
X72350000Y-45254351D03*
X72350000Y-47794351D03*
X72350000Y-50334351D03*
X72350000Y-52874351D03*
X72350000Y-55414351D03*
X72350000Y-57954351D03*
X72350000Y-60494351D03*
X72350000Y-63034351D03*
X72350000Y-65574351D03*
X72350000Y-68114351D03*
X72350000Y-70654351D03*
X72350000Y-73194351D03*
X72350000Y-75734351D03*
X72350000Y-78274351D03*
X72346320Y-80811631D03*
X72346320Y-83351631D03*
X72346320Y-85891631D03*
X95210000Y-85894351D03*
X95210000Y-83354351D03*
X95210000Y-80814351D03*
X95210000Y-78274351D03*
X95210000Y-75734351D03*
X95210000Y-73194351D03*
X95210000Y-70654351D03*
X95210000Y-68114351D03*
X95210000Y-65574351D03*
X95210000Y-63034351D03*
X95210000Y-60494351D03*
X95210000Y-57954351D03*
X95210000Y-55414351D03*
X95210000Y-52874351D03*
X95210000Y-50334351D03*
X95210000Y-47794351D03*
X95210000Y-45254351D03*
X95210000Y-42714351D03*
X95210000Y-40174351D03*
X95210000Y-37634351D03*
X95210000Y-35094351D03*
X95210000Y-32554351D03*
D12*
X126207290Y-36454803D03*
D13*
X126207290Y-34454803D03*
D14*
X103760000Y-90381262D03*
X101220000Y-87841262D03*
X103760000Y-85301262D03*
D12*
X126207290Y-71257666D03*
D13*
X126207290Y-69257666D03*
D14*
X103760000Y-55419726D03*
X101220000Y-52879726D03*
X103760000Y-50339726D03*
X104170000Y-38056262D03*
X101630000Y-35516262D03*
X104170000Y-32976262D03*
D12*
X126207290Y-88779803D03*
D13*
X126207290Y-86779803D03*
D15*
X71350000Y-28054351D03*
D12*
X126207290Y-53799517D03*
D13*
X126207290Y-51799517D03*
D15*
X117600000Y-95054351D03*
D14*
X103760000Y-72859125D03*
X101220000Y-70319125D03*
X103760000Y-67779125D03*
D15*
X117600000Y-28054351D03*
D16*
X121100000Y-30134637D03*
X121100000Y-47529351D03*
X121100000Y-65000000D03*
X121100000Y-82534637D03*
D17*
X100036207Y-42713792D02*
X97058098Y-45691901D01*
X93156252Y-47308098D02*
X72350000Y-68114351D01*
X101630000Y-38866036D02*
X101630000Y-35516262D01*
X97058098Y-45691901D02*
G75*
G02*
X95107175Y-46499988I-1950898J1950901D01*
G01*
X95107175Y-46500000D02*
G75*
G03*
X93156269Y-47308115I25J-2759000D01*
G01*
X101630000Y-38866036D02*
G75*
G02*
X100036200Y-42713785I-5441600J36D01*
G01*
X72350000Y-35094351D02*
X72350000Y-33190747D01*
X103545000Y-32351262D02*
X104795000Y-33601262D01*
X103545000Y-32351262D02*
X103509044Y-32315306D01*
X104385000Y-84676262D02*
X103760000Y-85301262D01*
X104590000Y-49509726D02*
X104385000Y-49714726D01*
X105010000Y-83167378D02*
X105010000Y-69913008D01*
X72350000Y-35094351D02*
X72350000Y-37634351D01*
X73886396Y-31654351D02*
X101913356Y-31654351D01*
X105010000Y-52473609D02*
X105010000Y-65645241D01*
X105420000Y-47505928D02*
X105420000Y-35110145D01*
X104795000Y-33601262D02*
G75*
G02*
X105419963Y-35110145I-1508900J-1508838D01*
G01*
X104385000Y-50964726D02*
G75*
G02*
X105009988Y-52473609I-1508900J-1508874D01*
G01*
X104385000Y-68404125D02*
G75*
G02*
X105009989Y-69913008I-1508900J-1508875D01*
G01*
X105010000Y-65645241D02*
G75*
G02*
X104384983Y-67154108I-2133900J41D01*
G01*
X105420000Y-47505928D02*
G75*
G02*
X104589986Y-49509712I-2833800J28D01*
G01*
X103509043Y-32315307D02*
G75*
G03*
X101913356Y-31654384I-1595643J-1595693D01*
G01*
X104385000Y-49714726D02*
G75*
G03*
X104385026Y-50964700I625000J-624974D01*
G01*
X73886396Y-31654351D02*
G75*
G03*
X72800012Y-32104363I4J-1536349D01*
G01*
X72800000Y-32104351D02*
G75*
G03*
X72350035Y-33190747I1086400J-1086349D01*
G01*
X104385001Y-67154126D02*
G75*
G03*
X104385026Y-68404099I624999J-624974D01*
G01*
X105010000Y-83167378D02*
G75*
G02*
X104385014Y-84676276I-2133900J-22D01*
G01*
X78843792Y-69060558D02*
X92087330Y-55817020D01*
X100548249Y-53551477D02*
X101220000Y-52879726D01*
X74996036Y-70654351D02*
X72350000Y-70654351D01*
X98926498Y-54223228D02*
X95935086Y-54223228D01*
X95935086Y-54223228D02*
G75*
G03*
X92087333Y-55817023I14J-5441572D01*
G01*
X100548249Y-53551477D02*
G75*
G02*
X98926498Y-54223219I-1621749J1621777D01*
G01*
X78843792Y-69060558D02*
G75*
G02*
X74996036Y-70654375I-3847792J3847758D01*
G01*
X98626883Y-72912241D02*
X101220000Y-70319125D01*
X72817615Y-73661966D02*
X72350000Y-73194351D01*
X95687960Y-74129582D02*
X73946539Y-74129582D01*
X72817616Y-73661965D02*
G75*
G03*
X73946539Y-74129541I1128884J1128965D01*
G01*
X98626883Y-72912241D02*
G75*
G02*
X95687960Y-74129549I-2938883J2938941D01*
G01*
X86710874Y-87841262D02*
X101220000Y-87841262D01*
X82863118Y-86247469D02*
X72350000Y-75734351D01*
X82863118Y-86247469D02*
G75*
G03*
X86710874Y-87841276I3847782J3847769D01*
G01*
X123000000Y-33378139D02*
X123000000Y-80996036D01*
X116212530Y-90037469D02*
X121406207Y-84843792D01*
X89369502Y-91631262D02*
X112364774Y-91631262D01*
X85521746Y-90037469D02*
X76304543Y-80820266D01*
X71100000Y-56664351D02*
X72350000Y-55414351D01*
X69850000Y-77110050D02*
X69850000Y-59682117D01*
X122050000Y-31084637D02*
X121100000Y-30134637D01*
X73117138Y-79500000D02*
X72239949Y-79500000D01*
X116212530Y-90037469D02*
G75*
G02*
X112364774Y-91631239I-3847730J3847769D01*
G01*
X85521746Y-90037469D02*
G75*
G03*
X89369502Y-91631256I3847754J3847769D01*
G01*
X71100000Y-56664351D02*
G75*
G03*
X69850023Y-59682117I3017800J-3017749D01*
G01*
X122050000Y-31084637D02*
G75*
G02*
X122999972Y-33378139I-2293500J-2293463D01*
G01*
X76304542Y-80820267D02*
G75*
G03*
X73117138Y-79499982I-3187442J-3187433D01*
G01*
X70550001Y-78799999D02*
G75*
G03*
X72239949Y-79500020I1689999J1689999D01*
G01*
X123000000Y-80996036D02*
G75*
G02*
X121406200Y-84843785I-5441600J36D01*
G01*
X69850000Y-77110050D02*
G75*
G03*
X70550015Y-78799985I2390000J50D01*
G01*
X71957106Y-77000000D02*
X72149981Y-77000000D01*
X121100000Y-47529351D02*
X121886500Y-48315851D01*
X70250000Y-75292893D02*
X70250000Y-61539275D01*
X83547432Y-87497469D02*
X73686346Y-77636383D01*
X71300000Y-59004351D02*
X72350000Y-57954351D01*
X122673000Y-50214629D02*
X122673000Y-80823036D01*
X87395188Y-89091262D02*
X114404774Y-89091262D01*
X121079207Y-84670792D02*
X118252530Y-87497469D01*
X83547432Y-87497469D02*
G75*
G03*
X87395188Y-89091266I3847768J3847769D01*
G01*
X70250000Y-75292893D02*
G75*
G03*
X70749998Y-76500002I1707100J-7D01*
G01*
X71300000Y-59004351D02*
G75*
G03*
X70249976Y-61539275I2534900J-2534949D01*
G01*
X121886500Y-48315851D02*
G75*
G02*
X122672972Y-50214629I-1898800J-1898749D01*
G01*
X118252530Y-87497469D02*
G75*
G02*
X114404774Y-89091239I-3847730J3847769D01*
G01*
X70750000Y-76500000D02*
G75*
G03*
X71957106Y-76999997I1207100J1207100D01*
G01*
X122673000Y-80823036D02*
G75*
G02*
X121079200Y-84670785I-5441600J36D01*
G01*
X73686345Y-77636384D02*
G75*
G03*
X72149981Y-77000000I-1536345J-1536316D01*
G01*
X121100000Y-65000000D02*
X121723000Y-65623000D01*
X98994251Y-83494251D02*
X102129118Y-86629118D01*
X120752206Y-84535344D02*
X119631344Y-85656207D01*
X122346000Y-67127055D02*
X122346000Y-80687588D01*
X70650000Y-73454818D02*
X70650000Y-63396432D01*
X97400459Y-76420890D02*
X97400459Y-79646495D01*
X71500000Y-61344351D02*
X72350000Y-60494351D01*
X115783588Y-87250000D02*
X103628060Y-87250000D01*
X95509150Y-74529582D02*
X71724763Y-74529582D01*
X121723000Y-65623000D02*
G75*
G02*
X122346018Y-67127055I-1504100J-1504100D01*
G01*
X119631344Y-85656207D02*
G75*
G02*
X115783588Y-87249976I-3847744J3847807D01*
G01*
X96846507Y-75083533D02*
G75*
G03*
X95509150Y-74529620I-1337307J-1337367D01*
G01*
X96846506Y-75083534D02*
G75*
G02*
X97400450Y-76420890I-1337406J-1337366D01*
G01*
X71500000Y-61344351D02*
G75*
G03*
X70650029Y-63396432I2052100J-2052049D01*
G01*
X122346000Y-80687588D02*
G75*
G02*
X120752223Y-84535361I-5441600J-12D01*
G01*
X70964791Y-74214791D02*
G75*
G03*
X71724763Y-74529602I760009J759991D01*
G01*
X97400459Y-79646495D02*
G75*
G03*
X98994250Y-83494252I5441541J-5D01*
G01*
X70650000Y-73454818D02*
G75*
G03*
X70964793Y-74214789I1074800J18D01*
G01*
X102129118Y-86629118D02*
G75*
G03*
X103628060Y-87250035I1498982J1498918D01*
G01*
X104096872Y-86923000D02*
X115648140Y-86923000D01*
X120341335Y-84483768D02*
X119495896Y-85329207D01*
X121100000Y-82652188D02*
X121100000Y-82534637D01*
X72244974Y-72000000D02*
X77043178Y-72000000D01*
X102470000Y-69792192D02*
X102470000Y-85296127D01*
X71700000Y-63684351D02*
X72350000Y-63034351D01*
X71050000Y-65253589D02*
X71050000Y-70805025D01*
X84251172Y-69014351D02*
X101692158Y-69014351D01*
X71400000Y-71650000D02*
G75*
G03*
X72244974Y-72000010I845000J845000D01*
G01*
X102946500Y-86446500D02*
G75*
G03*
X104096872Y-86923011I1150400J1150400D01*
G01*
X102242175Y-69242175D02*
G75*
G03*
X101692158Y-69014383I-549975J-550025D01*
G01*
X119495896Y-85329207D02*
G75*
G02*
X115648140Y-86923013I-3847796J3847807D01*
G01*
X121100000Y-82652188D02*
G75*
G02*
X120341331Y-84483764I-2590200J-12D01*
G01*
X71050000Y-70805025D02*
G75*
G03*
X71400007Y-71649993I1195000J25D01*
G01*
X71700000Y-63684351D02*
G75*
G03*
X71049982Y-65253589I1569200J-1569249D01*
G01*
X102242175Y-69242175D02*
G75*
G02*
X102470017Y-69792192I-549975J-550025D01*
G01*
X80647175Y-70507175D02*
G75*
G02*
X77043178Y-71999990I-3603975J3603975D01*
G01*
X84251172Y-69014351D02*
G75*
G03*
X80647184Y-70507184I28J-5096849D01*
G01*
X102470000Y-85296127D02*
G75*
G03*
X102946508Y-86446492I1626900J27D01*
G01*
G04 #@! TA.AperFunction,Conductor*
G36*
X93747460Y-75149767D02*
G01*
X93793215Y-75202571D01*
X93803159Y-75271729D01*
X93791866Y-75307344D01*
X93791994Y-75307397D01*
X93791380Y-75308878D01*
X93790905Y-75310378D01*
X93790128Y-75311901D01*
X93736597Y-75476653D01*
X93732656Y-75501537D01*
X93709500Y-75647740D01*
X93709500Y-75820962D01*
X93736598Y-75992052D01*
X93790127Y-76156796D01*
X93868768Y-76311139D01*
X93970586Y-76451279D01*
X94093072Y-76573765D01*
X94233212Y-76675583D01*
X94387555Y-76754224D01*
X94552299Y-76807753D01*
X94723389Y-76834851D01*
X94723390Y-76834851D01*
X95696610Y-76834851D01*
X95696611Y-76834851D01*
X95867701Y-76807753D01*
X96032445Y-76754224D01*
X96186788Y-76675583D01*
X96326928Y-76573765D01*
X96449414Y-76451279D01*
X96551232Y-76311139D01*
X96559583Y-76294748D01*
X96607553Y-76243954D01*
X96675374Y-76227156D01*
X96741510Y-76249691D01*
X96784963Y-76304404D01*
X96793686Y-76341312D01*
X96799577Y-76416153D01*
X96799959Y-76425883D01*
X96799959Y-77669219D01*
X96780274Y-77736258D01*
X96727470Y-77782013D01*
X96658312Y-77791957D01*
X96594756Y-77762932D01*
X96565475Y-77725515D01*
X96551233Y-77697565D01*
X96551229Y-77697559D01*
X96449414Y-77557423D01*
X96326928Y-77434937D01*
X96186788Y-77333119D01*
X96032445Y-77254478D01*
X95867701Y-77200949D01*
X95867699Y-77200948D01*
X95867698Y-77200948D01*
X95721891Y-77177855D01*
X95696611Y-77173851D01*
X94723389Y-77173851D01*
X94698109Y-77177855D01*
X94552302Y-77200948D01*
X94387552Y-77254479D01*
X94233211Y-77333119D01*
X94218772Y-77343610D01*
X94093072Y-77434937D01*
X94093070Y-77434939D01*
X94093069Y-77434939D01*
X93970588Y-77557420D01*
X93970588Y-77557421D01*
X93970586Y-77557423D01*
X93945706Y-77591667D01*
X93868768Y-77697562D01*
X93790128Y-77851903D01*
X93736597Y-78016653D01*
X93736037Y-78020191D01*
X93709500Y-78187740D01*
X93709500Y-78360962D01*
X93736598Y-78532052D01*
X93790127Y-78696796D01*
X93868768Y-78851139D01*
X93970586Y-78991279D01*
X94093072Y-79113765D01*
X94233212Y-79215583D01*
X94387555Y-79294224D01*
X94552299Y-79347753D01*
X94723389Y-79374851D01*
X94723390Y-79374851D01*
X95696610Y-79374851D01*
X95696611Y-79374851D01*
X95867701Y-79347753D01*
X96032445Y-79294224D01*
X96186788Y-79215583D01*
X96326928Y-79113765D01*
X96449414Y-78991279D01*
X96551232Y-78851139D01*
X96565474Y-78823186D01*
X96613448Y-78772391D01*
X96681269Y-78755596D01*
X96747404Y-78778133D01*
X96790856Y-78832848D01*
X96799959Y-78879482D01*
X96799959Y-79735541D01*
X96799960Y-79735554D01*
X96799960Y-79862289D01*
X96828140Y-80256304D01*
X96813288Y-80324577D01*
X96763883Y-80373982D01*
X96695610Y-80388834D01*
X96630145Y-80364417D01*
X96593971Y-80321444D01*
X96551233Y-80237564D01*
X96535937Y-80216511D01*
X96449414Y-80097423D01*
X96326928Y-79974937D01*
X96186788Y-79873119D01*
X96032445Y-79794478D01*
X95867701Y-79740949D01*
X95867699Y-79740948D01*
X95867698Y-79740948D01*
X95736271Y-79720132D01*
X95696611Y-79713851D01*
X94723389Y-79713851D01*
X94683728Y-79720132D01*
X94552302Y-79740948D01*
X94387552Y-79794479D01*
X94233211Y-79873119D01*
X94156200Y-79929072D01*
X94093072Y-79974937D01*
X94093070Y-79974939D01*
X94093069Y-79974939D01*
X93970588Y-80097420D01*
X93970588Y-80097421D01*
X93970586Y-80097423D01*
X93926859Y-80157607D01*
X93868768Y-80237562D01*
X93790128Y-80391903D01*
X93736597Y-80556653D01*
X93709500Y-80727740D01*
X93709500Y-80900961D01*
X93736166Y-81069328D01*
X93736598Y-81072052D01*
X93790127Y-81236796D01*
X93868768Y-81391139D01*
X93970586Y-81531279D01*
X94093072Y-81653765D01*
X94233212Y-81755583D01*
X94387555Y-81834224D01*
X94552299Y-81887753D01*
X94723389Y-81914851D01*
X94723390Y-81914851D01*
X95696610Y-81914851D01*
X95696611Y-81914851D01*
X95867701Y-81887753D01*
X96032445Y-81834224D01*
X96186788Y-81755583D01*
X96326928Y-81653765D01*
X96449414Y-81531279D01*
X96551232Y-81391139D01*
X96629873Y-81236796D01*
X96683402Y-81072052D01*
X96700341Y-80965098D01*
X96730270Y-80901965D01*
X96789581Y-80865033D01*
X96859443Y-80866031D01*
X96917676Y-80904640D01*
X96943980Y-80958139D01*
X96983906Y-81141677D01*
X96983909Y-81141687D01*
X97105494Y-81555772D01*
X97256324Y-81960164D01*
X97435608Y-82352741D01*
X97642444Y-82731534D01*
X97642452Y-82731547D01*
X97875764Y-83094589D01*
X97875781Y-83094613D01*
X98134410Y-83440102D01*
X98295597Y-83626121D01*
X98417046Y-83766280D01*
X98417055Y-83766289D01*
X98417067Y-83766302D01*
X98511047Y-83860282D01*
X98511053Y-83860293D01*
X98584849Y-83934084D01*
X100884817Y-86234052D01*
X100918302Y-86295375D01*
X100913318Y-86365067D01*
X100871446Y-86421000D01*
X100837399Y-86439014D01*
X100635348Y-86508378D01*
X100635342Y-86508380D01*
X100423930Y-86622791D01*
X100423924Y-86622795D01*
X100234242Y-86770431D01*
X100234239Y-86770434D01*
X100071430Y-86947291D01*
X100071427Y-86947295D01*
X99939951Y-87148531D01*
X99932040Y-87166570D01*
X99887085Y-87220057D01*
X99820349Y-87240748D01*
X99818483Y-87240762D01*
X95716361Y-87240762D01*
X95649322Y-87221077D01*
X95603567Y-87168273D01*
X95593623Y-87099115D01*
X95622648Y-87035559D01*
X95681426Y-86997785D01*
X95696963Y-86994289D01*
X95867584Y-86967265D01*
X96032257Y-86913759D01*
X96186524Y-86835155D01*
X96326602Y-86733383D01*
X96449032Y-86610953D01*
X96550804Y-86470875D01*
X96629408Y-86316606D01*
X96682914Y-86151935D01*
X96684115Y-86144351D01*
X95525686Y-86144351D01*
X95530080Y-86139957D01*
X95582741Y-86048745D01*
X95610000Y-85947012D01*
X95610000Y-85841690D01*
X95582741Y-85739957D01*
X95530080Y-85648745D01*
X95525686Y-85644351D01*
X96684115Y-85644351D01*
X96684115Y-85644350D01*
X96682914Y-85636766D01*
X96629408Y-85472095D01*
X96550804Y-85317826D01*
X96449032Y-85177748D01*
X96326602Y-85055318D01*
X96186524Y-84953546D01*
X96032257Y-84874942D01*
X95867584Y-84821436D01*
X95696571Y-84794351D01*
X95460000Y-84794351D01*
X95460000Y-85578665D01*
X95455606Y-85574271D01*
X95364394Y-85521610D01*
X95262661Y-85494351D01*
X95157339Y-85494351D01*
X95055606Y-85521610D01*
X94964394Y-85574271D01*
X94960000Y-85578665D01*
X94960000Y-84794351D01*
X94723429Y-84794351D01*
X94552415Y-84821436D01*
X94387742Y-84874942D01*
X94233475Y-84953546D01*
X94093397Y-85055318D01*
X93970967Y-85177748D01*
X93869195Y-85317826D01*
X93790591Y-85472095D01*
X93737085Y-85636766D01*
X93735884Y-85644350D01*
X93735885Y-85644351D01*
X94894314Y-85644351D01*
X94889920Y-85648745D01*
X94837259Y-85739957D01*
X94810000Y-85841690D01*
X94810000Y-85947012D01*
X94837259Y-86048745D01*
X94889920Y-86139957D01*
X94894314Y-86144351D01*
X93735885Y-86144351D01*
X93737085Y-86151935D01*
X93790591Y-86316606D01*
X93869195Y-86470875D01*
X93970967Y-86610953D01*
X94093397Y-86733383D01*
X94233475Y-86835155D01*
X94387742Y-86913759D01*
X94552415Y-86967265D01*
X94723037Y-86994289D01*
X94786172Y-87024218D01*
X94823103Y-87083530D01*
X94822105Y-87153392D01*
X94783495Y-87211625D01*
X94719532Y-87239739D01*
X94703639Y-87240762D01*
X86713303Y-87240762D01*
X86708434Y-87240666D01*
X86335920Y-87226028D01*
X86326214Y-87225264D01*
X85958409Y-87181729D01*
X85948793Y-87180206D01*
X85585537Y-87107949D01*
X85576069Y-87105676D01*
X85219611Y-87005143D01*
X85210351Y-87002135D01*
X84862860Y-86873937D01*
X84853865Y-86870211D01*
X84517506Y-86715146D01*
X84508831Y-86710725D01*
X84185696Y-86529760D01*
X84177394Y-86524673D01*
X83869436Y-86318901D01*
X83861559Y-86313178D01*
X83570698Y-86083880D01*
X83563295Y-86077557D01*
X83289258Y-85824239D01*
X83285748Y-85820864D01*
X80569234Y-83104350D01*
X93735884Y-83104350D01*
X93735885Y-83104351D01*
X94894314Y-83104351D01*
X94889920Y-83108745D01*
X94837259Y-83199957D01*
X94810000Y-83301690D01*
X94810000Y-83407012D01*
X94837259Y-83508745D01*
X94889920Y-83599957D01*
X94894314Y-83604351D01*
X93735885Y-83604351D01*
X93737085Y-83611935D01*
X93790591Y-83776606D01*
X93869195Y-83930875D01*
X93970967Y-84070953D01*
X94093397Y-84193383D01*
X94233475Y-84295155D01*
X94387742Y-84373759D01*
X94552415Y-84427265D01*
X94723429Y-84454351D01*
X94960000Y-84454351D01*
X94960000Y-83670037D01*
X94964394Y-83674431D01*
X95055606Y-83727092D01*
X95157339Y-83754351D01*
X95262661Y-83754351D01*
X95364394Y-83727092D01*
X95455606Y-83674431D01*
X95460000Y-83670037D01*
X95460000Y-84454351D01*
X95696571Y-84454351D01*
X95867584Y-84427265D01*
X96032257Y-84373759D01*
X96186524Y-84295155D01*
X96326602Y-84193383D01*
X96449032Y-84070953D01*
X96550804Y-83930875D01*
X96629408Y-83776606D01*
X96682914Y-83611935D01*
X96684115Y-83604351D01*
X95525686Y-83604351D01*
X95530080Y-83599957D01*
X95582741Y-83508745D01*
X95610000Y-83407012D01*
X95610000Y-83301690D01*
X95582741Y-83199957D01*
X95530080Y-83108745D01*
X95525686Y-83104351D01*
X96684115Y-83104351D01*
X96684115Y-83104350D01*
X96682914Y-83096766D01*
X96629408Y-82932095D01*
X96550804Y-82777826D01*
X96449032Y-82637748D01*
X96326602Y-82515318D01*
X96186524Y-82413546D01*
X96032257Y-82334942D01*
X95867584Y-82281436D01*
X95696571Y-82254351D01*
X95460000Y-82254351D01*
X95460000Y-83038665D01*
X95455606Y-83034271D01*
X95364394Y-82981610D01*
X95262661Y-82954351D01*
X95157339Y-82954351D01*
X95055606Y-82981610D01*
X94964394Y-83034271D01*
X94960000Y-83038665D01*
X94960000Y-82254351D01*
X94723429Y-82254351D01*
X94552415Y-82281436D01*
X94387742Y-82334942D01*
X94233475Y-82413546D01*
X94093397Y-82515318D01*
X93970967Y-82637748D01*
X93869195Y-82777826D01*
X93790591Y-82932095D01*
X93737085Y-83096766D01*
X93735884Y-83104350D01*
X80569234Y-83104350D01*
X73783556Y-76318672D01*
X73750071Y-76257349D01*
X73755055Y-76187657D01*
X73760749Y-76174701D01*
X73769873Y-76156796D01*
X73823402Y-75992052D01*
X73850500Y-75820962D01*
X73850500Y-75647740D01*
X73823402Y-75476650D01*
X73769873Y-75311906D01*
X73769871Y-75311903D01*
X73769871Y-75311901D01*
X73769095Y-75310378D01*
X73768974Y-75309734D01*
X73768006Y-75307397D01*
X73768496Y-75307193D01*
X73756198Y-75241709D01*
X73782473Y-75176968D01*
X73839579Y-75136711D01*
X73879579Y-75130082D01*
X93680421Y-75130082D01*
X93747460Y-75149767D01*
G37*
G04 #@! TD.AperFunction*
G04 #@! TA.AperFunction,Conductor*
G36*
X116822723Y-25569694D02*
G01*
X116868478Y-25622498D01*
X116878422Y-25691656D01*
X116849397Y-25755212D01*
X116801331Y-25789301D01*
X116576117Y-25878468D01*
X116576109Y-25878472D01*
X116311476Y-26023955D01*
X116311471Y-26023958D01*
X116086565Y-26187361D01*
X116086564Y-26187362D01*
X117017262Y-27118060D01*
X116883398Y-27215318D01*
X116760967Y-27337749D01*
X116663709Y-27471613D01*
X115735311Y-26543215D01*
X115654520Y-26640876D01*
X115654518Y-26640879D01*
X115492707Y-26895853D01*
X115492704Y-26895859D01*
X115364127Y-27169098D01*
X115364125Y-27169103D01*
X115270805Y-27456310D01*
X115214216Y-27752960D01*
X115214215Y-27752967D01*
X115195255Y-28054345D01*
X115195255Y-28054356D01*
X115214215Y-28355734D01*
X115214216Y-28355741D01*
X115270805Y-28652391D01*
X115364125Y-28939598D01*
X115364127Y-28939603D01*
X115492704Y-29212842D01*
X115492707Y-29212848D01*
X115654516Y-29467820D01*
X115735311Y-29565484D01*
X116663708Y-28637087D01*
X116760967Y-28770953D01*
X116883398Y-28893384D01*
X117017262Y-28990641D01*
X116086564Y-29921338D01*
X116086565Y-29921340D01*
X116311461Y-30084736D01*
X116311479Y-30084748D01*
X116576109Y-30230229D01*
X116576117Y-30230233D01*
X116856889Y-30341398D01*
X116856892Y-30341399D01*
X117149399Y-30416501D01*
X117448995Y-30454350D01*
X117449007Y-30454351D01*
X117750993Y-30454351D01*
X117751004Y-30454350D01*
X118050600Y-30416501D01*
X118343107Y-30341399D01*
X118343110Y-30341398D01*
X118623882Y-30230233D01*
X118623890Y-30230229D01*
X118888520Y-30084748D01*
X118888530Y-30084741D01*
X119113433Y-29921338D01*
X119113434Y-29921338D01*
X118182737Y-28990641D01*
X118316602Y-28893384D01*
X118439033Y-28770953D01*
X118536290Y-28637088D01*
X119464687Y-29565485D01*
X119545486Y-29467815D01*
X119707292Y-29212848D01*
X119707295Y-29212842D01*
X119835872Y-28939603D01*
X119835874Y-28939598D01*
X119929194Y-28652391D01*
X119985783Y-28355741D01*
X119985784Y-28355734D01*
X120004745Y-28054356D01*
X120004745Y-28054345D01*
X119985784Y-27752967D01*
X119985783Y-27752960D01*
X119929194Y-27456310D01*
X119835874Y-27169103D01*
X119835872Y-27169098D01*
X119707295Y-26895859D01*
X119707292Y-26895853D01*
X119545483Y-26640881D01*
X119464686Y-26543215D01*
X118536289Y-27471612D01*
X118439033Y-27337749D01*
X118316602Y-27215318D01*
X118182736Y-27118060D01*
X119113434Y-26187362D01*
X119113433Y-26187360D01*
X118888538Y-26023965D01*
X118888520Y-26023953D01*
X118623890Y-25878472D01*
X118623882Y-25878468D01*
X118398669Y-25789301D01*
X118343583Y-25746320D01*
X118320480Y-25680381D01*
X118336693Y-25612419D01*
X118387076Y-25564011D01*
X118444316Y-25550009D01*
X133225500Y-25550009D01*
X133292539Y-25569694D01*
X133338294Y-25622498D01*
X133349500Y-25674009D01*
X133349500Y-97183483D01*
X133329815Y-97250522D01*
X133277011Y-97296277D01*
X133225500Y-97307483D01*
X118963587Y-97307483D01*
X118896548Y-97287798D01*
X118850793Y-97234994D01*
X118840849Y-97165836D01*
X118869874Y-97102280D01*
X118890701Y-97083165D01*
X119113433Y-96921338D01*
X119113434Y-96921338D01*
X118182737Y-95990641D01*
X118316602Y-95893384D01*
X118439033Y-95770953D01*
X118536290Y-95637088D01*
X119464687Y-96565485D01*
X119545486Y-96467815D01*
X119707292Y-96212848D01*
X119707295Y-96212842D01*
X119835872Y-95939603D01*
X119835874Y-95939598D01*
X119929194Y-95652391D01*
X119985783Y-95355741D01*
X119985784Y-95355734D01*
X120004745Y-95054356D01*
X120004745Y-95054345D01*
X119985784Y-94752967D01*
X119985783Y-94752960D01*
X119929194Y-94456310D01*
X119835874Y-94169103D01*
X119835872Y-94169098D01*
X119707295Y-93895859D01*
X119707292Y-93895853D01*
X119545483Y-93640881D01*
X119464686Y-93543215D01*
X118536289Y-94471612D01*
X118439033Y-94337749D01*
X118316602Y-94215318D01*
X118182736Y-94118060D01*
X119113434Y-93187362D01*
X119113433Y-93187360D01*
X118888538Y-93023965D01*
X118888520Y-93023953D01*
X118623890Y-92878472D01*
X118623882Y-92878468D01*
X118343110Y-92767303D01*
X118343107Y-92767302D01*
X118050600Y-92692200D01*
X117751004Y-92654351D01*
X117448995Y-92654351D01*
X117149399Y-92692200D01*
X116856892Y-92767302D01*
X116856889Y-92767303D01*
X116576117Y-92878468D01*
X116576109Y-92878472D01*
X116311476Y-93023955D01*
X116311471Y-93023958D01*
X116086565Y-93187361D01*
X116086564Y-93187362D01*
X117017262Y-94118060D01*
X116883398Y-94215318D01*
X116760967Y-94337749D01*
X116663709Y-94471613D01*
X115735311Y-93543215D01*
X115654520Y-93640876D01*
X115654518Y-93640879D01*
X115492707Y-93895853D01*
X115492704Y-93895859D01*
X115364127Y-94169098D01*
X115364125Y-94169103D01*
X115270805Y-94456310D01*
X115214216Y-94752960D01*
X115214215Y-94752967D01*
X115195255Y-95054345D01*
X115195255Y-95054356D01*
X115214215Y-95355734D01*
X115214216Y-95355741D01*
X115270805Y-95652391D01*
X115364125Y-95939598D01*
X115364127Y-95939603D01*
X115492704Y-96212842D01*
X115492707Y-96212848D01*
X115654516Y-96467820D01*
X115735311Y-96565484D01*
X116663708Y-95637087D01*
X116760967Y-95770953D01*
X116883398Y-95893384D01*
X117017262Y-95990641D01*
X116086564Y-96921338D01*
X116086565Y-96921340D01*
X116309298Y-97083165D01*
X116351964Y-97138495D01*
X116357943Y-97208108D01*
X116325337Y-97269903D01*
X116264499Y-97304260D01*
X116236413Y-97307483D01*
X68974499Y-97307483D01*
X68907460Y-97287798D01*
X68861705Y-97234994D01*
X68850499Y-97183483D01*
X68850499Y-85641630D01*
X70872204Y-85641630D01*
X70872205Y-85641631D01*
X72030634Y-85641631D01*
X72026240Y-85646025D01*
X71973579Y-85737237D01*
X71946320Y-85838970D01*
X71946320Y-85944292D01*
X71973579Y-86046025D01*
X72026240Y-86137237D01*
X72030634Y-86141631D01*
X70872205Y-86141631D01*
X70873405Y-86149215D01*
X70926911Y-86313886D01*
X71005515Y-86468155D01*
X71107287Y-86608233D01*
X71229717Y-86730663D01*
X71369795Y-86832435D01*
X71524062Y-86911039D01*
X71688735Y-86964545D01*
X71859749Y-86991631D01*
X72096320Y-86991631D01*
X72096320Y-86207317D01*
X72100714Y-86211711D01*
X72191926Y-86264372D01*
X72293659Y-86291631D01*
X72398981Y-86291631D01*
X72500714Y-86264372D01*
X72591926Y-86211711D01*
X72596320Y-86207317D01*
X72596320Y-86991631D01*
X72832891Y-86991631D01*
X73003904Y-86964545D01*
X73168577Y-86911039D01*
X73322844Y-86832435D01*
X73462922Y-86730663D01*
X73585352Y-86608233D01*
X73687124Y-86468155D01*
X73765728Y-86313886D01*
X73819234Y-86149215D01*
X73820435Y-86141631D01*
X72662006Y-86141631D01*
X72666400Y-86137237D01*
X72719061Y-86046025D01*
X72746320Y-85944292D01*
X72746320Y-85838970D01*
X72719061Y-85737237D01*
X72666400Y-85646025D01*
X72662006Y-85641631D01*
X73820435Y-85641631D01*
X73820435Y-85641630D01*
X73819234Y-85634046D01*
X73765728Y-85469375D01*
X73687124Y-85315106D01*
X73585352Y-85175028D01*
X73462922Y-85052598D01*
X73322844Y-84950826D01*
X73168577Y-84872222D01*
X73003904Y-84818716D01*
X72832891Y-84791631D01*
X72596320Y-84791631D01*
X72596320Y-85575945D01*
X72591926Y-85571551D01*
X72500714Y-85518890D01*
X72398981Y-85491631D01*
X72293659Y-85491631D01*
X72191926Y-85518890D01*
X72100714Y-85571551D01*
X72096320Y-85575945D01*
X72096320Y-84791631D01*
X71859749Y-84791631D01*
X71688735Y-84818716D01*
X71524062Y-84872222D01*
X71369795Y-84950826D01*
X71229717Y-85052598D01*
X71107287Y-85175028D01*
X71005515Y-85315106D01*
X70926911Y-85469375D01*
X70873405Y-85634046D01*
X70872204Y-85641630D01*
X68850499Y-85641630D01*
X68850499Y-83438242D01*
X70845820Y-83438242D01*
X70872918Y-83609332D01*
X70926447Y-83774076D01*
X71005088Y-83928419D01*
X71106906Y-84068559D01*
X71229392Y-84191045D01*
X71369532Y-84292863D01*
X71523875Y-84371504D01*
X71688619Y-84425033D01*
X71859709Y-84452131D01*
X71859710Y-84452131D01*
X72832930Y-84452131D01*
X72832931Y-84452131D01*
X73004021Y-84425033D01*
X73168765Y-84371504D01*
X73323108Y-84292863D01*
X73463248Y-84191045D01*
X73585734Y-84068559D01*
X73687552Y-83928419D01*
X73766193Y-83774076D01*
X73819722Y-83609332D01*
X73846820Y-83438242D01*
X73846820Y-83265020D01*
X73819722Y-83093930D01*
X73766193Y-82929186D01*
X73687552Y-82774843D01*
X73585734Y-82634703D01*
X73463248Y-82512217D01*
X73323108Y-82410399D01*
X73168765Y-82331758D01*
X73004021Y-82278229D01*
X73004019Y-82278228D01*
X73004018Y-82278228D01*
X72853261Y-82254351D01*
X72832931Y-82251131D01*
X71859709Y-82251131D01*
X71839379Y-82254351D01*
X71688622Y-82278228D01*
X71523872Y-82331759D01*
X71369531Y-82410399D01*
X71289576Y-82468490D01*
X71229392Y-82512217D01*
X71229390Y-82512219D01*
X71229389Y-82512219D01*
X71106908Y-82634700D01*
X71106908Y-82634701D01*
X71106906Y-82634703D01*
X71104694Y-82637748D01*
X71005088Y-82774842D01*
X70926448Y-82929183D01*
X70872917Y-83093933D01*
X70856125Y-83199957D01*
X70845820Y-83265020D01*
X70845820Y-83438242D01*
X68850499Y-83438242D01*
X68850499Y-77058749D01*
X69249479Y-77058749D01*
X69249481Y-77256969D01*
X69278287Y-77549383D01*
X69278288Y-77549389D01*
X69335615Y-77837560D01*
X69420902Y-78118704D01*
X69420904Y-78118711D01*
X69420907Y-78118720D01*
X69420909Y-78118724D01*
X69454326Y-78199396D01*
X69533355Y-78390183D01*
X69671860Y-78649303D01*
X69835095Y-78893600D01*
X69835106Y-78893614D01*
X70021495Y-79120729D01*
X70021505Y-79120740D01*
X70073822Y-79173056D01*
X70073824Y-79173059D01*
X70125380Y-79224616D01*
X70125382Y-79224618D01*
X70176941Y-79276175D01*
X70176943Y-79276176D01*
X70182214Y-79281447D01*
X70182447Y-79281653D01*
X70229273Y-79328480D01*
X70456397Y-79514877D01*
X70456411Y-79514888D01*
X70617774Y-79622708D01*
X70700704Y-79678121D01*
X70959829Y-79816629D01*
X71089003Y-79870136D01*
X71143406Y-79913978D01*
X71165470Y-79980272D01*
X71148190Y-80047972D01*
X71129232Y-80072377D01*
X71106906Y-80094703D01*
X71005088Y-80234842D01*
X70926448Y-80389183D01*
X70872917Y-80553933D01*
X70845820Y-80725020D01*
X70845820Y-80898241D01*
X70871841Y-81062536D01*
X70872918Y-81069332D01*
X70926447Y-81234076D01*
X71005088Y-81388419D01*
X71106906Y-81528559D01*
X71229392Y-81651045D01*
X71369532Y-81752863D01*
X71523875Y-81831504D01*
X71688619Y-81885033D01*
X71859709Y-81912131D01*
X71859710Y-81912131D01*
X72832930Y-81912131D01*
X72832931Y-81912131D01*
X73004021Y-81885033D01*
X73168765Y-81831504D01*
X73323108Y-81752863D01*
X73463248Y-81651045D01*
X73585734Y-81528559D01*
X73687552Y-81388419D01*
X73766193Y-81234076D01*
X73819722Y-81069332D01*
X73846820Y-80898242D01*
X73846820Y-80725020D01*
X73819722Y-80553930D01*
X73766193Y-80389186D01*
X73766191Y-80389183D01*
X73766191Y-80389181D01*
X73750086Y-80357574D01*
X73737189Y-80288905D01*
X73763464Y-80224164D01*
X73820570Y-80183907D01*
X73887409Y-80180217D01*
X74123102Y-80232470D01*
X74133540Y-80235267D01*
X74448307Y-80334515D01*
X74458449Y-80338206D01*
X74763376Y-80464513D01*
X74773174Y-80469083D01*
X75065919Y-80621477D01*
X75075266Y-80626874D01*
X75233593Y-80727740D01*
X75353616Y-80804204D01*
X75362477Y-80810408D01*
X75624325Y-81011332D01*
X75632599Y-81018276D01*
X75691493Y-81072242D01*
X75878238Y-81243363D01*
X75882146Y-81247104D01*
X85060806Y-90425764D01*
X85060816Y-90425783D01*
X85249692Y-90614658D01*
X85249717Y-90614682D01*
X85575886Y-90897307D01*
X85921381Y-91155942D01*
X85921386Y-91155945D01*
X86284459Y-91389277D01*
X86663232Y-91596102D01*
X86663256Y-91596115D01*
X86663263Y-91596119D01*
X87055821Y-91775393D01*
X87055825Y-91775394D01*
X87055835Y-91775399D01*
X87460209Y-91926222D01*
X87460216Y-91926224D01*
X87460224Y-91926227D01*
X87805294Y-92027547D01*
X87874246Y-92047794D01*
X87874308Y-92047812D01*
X87874318Y-92047815D01*
X88296026Y-92139551D01*
X88296033Y-92139552D01*
X88723225Y-92200973D01*
X89153710Y-92231762D01*
X112451958Y-92231762D01*
X112452298Y-92231739D01*
X112580563Y-92231740D01*
X113011047Y-92200953D01*
X113438238Y-92139534D01*
X113859960Y-92047797D01*
X114274062Y-91926207D01*
X114678435Y-91775386D01*
X115071018Y-91596102D01*
X115449811Y-91389268D01*
X115812884Y-91155938D01*
X116158386Y-90897301D01*
X116484556Y-90614675D01*
X116572335Y-90526895D01*
X116572346Y-90526887D01*
X116581244Y-90517988D01*
X116581246Y-90517988D01*
X117974471Y-89124763D01*
X124806790Y-89124763D01*
X124821920Y-89259052D01*
X124821921Y-89259057D01*
X124881501Y-89429326D01*
X124977474Y-89582065D01*
X125105028Y-89709619D01*
X125127608Y-89723807D01*
X125245126Y-89797649D01*
X125257768Y-89805592D01*
X125428035Y-89865171D01*
X125428040Y-89865172D01*
X125518536Y-89875368D01*
X125562330Y-89880302D01*
X125562333Y-89880303D01*
X125562336Y-89880303D01*
X126852247Y-89880303D01*
X126852248Y-89880302D01*
X126935894Y-89870878D01*
X126986539Y-89865172D01*
X126986542Y-89865171D01*
X126986545Y-89865171D01*
X127156812Y-89805592D01*
X127309552Y-89709619D01*
X127437106Y-89582065D01*
X127533079Y-89429325D01*
X127592658Y-89259058D01*
X127607790Y-89124757D01*
X127607790Y-88434849D01*
X127592658Y-88300548D01*
X127533079Y-88130281D01*
X127437106Y-87977541D01*
X127309552Y-87849987D01*
X127255909Y-87816281D01*
X127247083Y-87810735D01*
X127200792Y-87758400D01*
X127190144Y-87689346D01*
X127218519Y-87625498D01*
X127225350Y-87618084D01*
X127346704Y-87496731D01*
X127448522Y-87356591D01*
X127527163Y-87202248D01*
X127580692Y-87037504D01*
X127607790Y-86866414D01*
X127607790Y-86693192D01*
X127580692Y-86522102D01*
X127527163Y-86357358D01*
X127448522Y-86203015D01*
X127346704Y-86062875D01*
X127224218Y-85940389D01*
X127084078Y-85838571D01*
X126929735Y-85759930D01*
X126764991Y-85706401D01*
X126764989Y-85706400D01*
X126764988Y-85706400D01*
X126633561Y-85685584D01*
X126593901Y-85679303D01*
X125820679Y-85679303D01*
X125781018Y-85685584D01*
X125649592Y-85706400D01*
X125484842Y-85759931D01*
X125330501Y-85838571D01*
X125250546Y-85896662D01*
X125190362Y-85940389D01*
X125190360Y-85940391D01*
X125190359Y-85940391D01*
X125067878Y-86062872D01*
X125067878Y-86062873D01*
X125067876Y-86062875D01*
X125024149Y-86123059D01*
X124966058Y-86203014D01*
X124887418Y-86357355D01*
X124833887Y-86522105D01*
X124817940Y-86622791D01*
X124806790Y-86693192D01*
X124806790Y-86866414D01*
X124807715Y-86872252D01*
X124831783Y-87024218D01*
X124833888Y-87037504D01*
X124887417Y-87202248D01*
X124966058Y-87356591D01*
X125067876Y-87496731D01*
X125067878Y-87496733D01*
X125189205Y-87618060D01*
X125222690Y-87679383D01*
X125217706Y-87749075D01*
X125175834Y-87805008D01*
X125167497Y-87810734D01*
X125105030Y-87849985D01*
X125105027Y-87849987D01*
X124977474Y-87977540D01*
X124881501Y-88130279D01*
X124821921Y-88300548D01*
X124821920Y-88300553D01*
X124806790Y-88434842D01*
X124806790Y-89124763D01*
X117974471Y-89124763D01*
X121886726Y-85212508D01*
X121886726Y-85212507D01*
X121892724Y-85206510D01*
X121892825Y-85206393D01*
X121983406Y-85115813D01*
X122266032Y-84789644D01*
X122266031Y-84789644D01*
X122266039Y-84789636D01*
X122524668Y-84444147D01*
X122524667Y-84444147D01*
X122524671Y-84444143D01*
X122758002Y-84081072D01*
X122964839Y-83702281D01*
X123144126Y-83309699D01*
X123294950Y-82905327D01*
X123416543Y-82491226D01*
X123508284Y-82069506D01*
X123569707Y-81642316D01*
X123600498Y-81211832D01*
X123600498Y-81089530D01*
X123600500Y-81089526D01*
X123600500Y-71602626D01*
X124806790Y-71602626D01*
X124821920Y-71736915D01*
X124821921Y-71736920D01*
X124881501Y-71907189D01*
X124977474Y-72059928D01*
X125105028Y-72187482D01*
X125195370Y-72244248D01*
X125209488Y-72253119D01*
X125257768Y-72283455D01*
X125316737Y-72304089D01*
X125428035Y-72343034D01*
X125428040Y-72343035D01*
X125518536Y-72353231D01*
X125562330Y-72358165D01*
X125562333Y-72358166D01*
X125562336Y-72358166D01*
X126852247Y-72358166D01*
X126852248Y-72358165D01*
X126919394Y-72350600D01*
X126986539Y-72343035D01*
X126986542Y-72343034D01*
X126986545Y-72343034D01*
X127156812Y-72283455D01*
X127309552Y-72187482D01*
X127437106Y-72059928D01*
X127533079Y-71907188D01*
X127592658Y-71736921D01*
X127593432Y-71730058D01*
X127607789Y-71602626D01*
X127607790Y-71602622D01*
X127607790Y-70912709D01*
X127607789Y-70912705D01*
X127607715Y-70912052D01*
X127594921Y-70798495D01*
X127592659Y-70778416D01*
X127592658Y-70778411D01*
X127536951Y-70619210D01*
X127533079Y-70608144D01*
X127507691Y-70567740D01*
X127437105Y-70455403D01*
X127309552Y-70327850D01*
X127247083Y-70288598D01*
X127200792Y-70236263D01*
X127190144Y-70167209D01*
X127218519Y-70103361D01*
X127225350Y-70095947D01*
X127346704Y-69974594D01*
X127448522Y-69834454D01*
X127527163Y-69680111D01*
X127580692Y-69515367D01*
X127607790Y-69344277D01*
X127607790Y-69171055D01*
X127580692Y-68999965D01*
X127527163Y-68835221D01*
X127448522Y-68680878D01*
X127346704Y-68540738D01*
X127224218Y-68418252D01*
X127084078Y-68316434D01*
X126929735Y-68237793D01*
X126764991Y-68184264D01*
X126764989Y-68184263D01*
X126764988Y-68184263D01*
X126633561Y-68163447D01*
X126593901Y-68157166D01*
X125820679Y-68157166D01*
X125781018Y-68163447D01*
X125649592Y-68184263D01*
X125484842Y-68237794D01*
X125330501Y-68316434D01*
X125253956Y-68372048D01*
X125190362Y-68418252D01*
X125190360Y-68418254D01*
X125190359Y-68418254D01*
X125067878Y-68540735D01*
X125067878Y-68540736D01*
X125067876Y-68540738D01*
X125058739Y-68553314D01*
X124966058Y-68680877D01*
X124887418Y-68835218D01*
X124833887Y-68999968D01*
X124806790Y-69171055D01*
X124806790Y-69344276D01*
X124824209Y-69454260D01*
X124833888Y-69515367D01*
X124866315Y-69615167D01*
X124887418Y-69680113D01*
X124889563Y-69684322D01*
X124966058Y-69834454D01*
X125067876Y-69974594D01*
X125067878Y-69974596D01*
X125189205Y-70095923D01*
X125222690Y-70157246D01*
X125217706Y-70226938D01*
X125175834Y-70282871D01*
X125167497Y-70288597D01*
X125105030Y-70327848D01*
X125105027Y-70327850D01*
X124977474Y-70455403D01*
X124881501Y-70608142D01*
X124821921Y-70778411D01*
X124821920Y-70778416D01*
X124806790Y-70912705D01*
X124806790Y-71602626D01*
X123600500Y-71602626D01*
X123600500Y-54144477D01*
X124806790Y-54144477D01*
X124821920Y-54278766D01*
X124821921Y-54278771D01*
X124881501Y-54449040D01*
X124891669Y-54465222D01*
X124977474Y-54601779D01*
X125105028Y-54729333D01*
X125122606Y-54740378D01*
X125255256Y-54823728D01*
X125257768Y-54825306D01*
X125366186Y-54863243D01*
X125428035Y-54884885D01*
X125428040Y-54884886D01*
X125518536Y-54895082D01*
X125562330Y-54900016D01*
X125562333Y-54900017D01*
X125562336Y-54900017D01*
X126852247Y-54900017D01*
X126852248Y-54900016D01*
X126919394Y-54892451D01*
X126986539Y-54884886D01*
X126986542Y-54884885D01*
X126986545Y-54884885D01*
X127156812Y-54825306D01*
X127309552Y-54729333D01*
X127437106Y-54601779D01*
X127533079Y-54449039D01*
X127592658Y-54278772D01*
X127594132Y-54265696D01*
X127607789Y-54144477D01*
X127607790Y-54144473D01*
X127607790Y-53454560D01*
X127607789Y-53454556D01*
X127592659Y-53320267D01*
X127592658Y-53320262D01*
X127533078Y-53149993D01*
X127437105Y-52997254D01*
X127309552Y-52869701D01*
X127247083Y-52830449D01*
X127200792Y-52778114D01*
X127190144Y-52709060D01*
X127218519Y-52645212D01*
X127225350Y-52637798D01*
X127346704Y-52516445D01*
X127448522Y-52376305D01*
X127527163Y-52221962D01*
X127580692Y-52057218D01*
X127607790Y-51886128D01*
X127607790Y-51712906D01*
X127580692Y-51541816D01*
X127527163Y-51377072D01*
X127448522Y-51222729D01*
X127346704Y-51082589D01*
X127224218Y-50960103D01*
X127084078Y-50858285D01*
X126929735Y-50779644D01*
X126764991Y-50726115D01*
X126764989Y-50726114D01*
X126764988Y-50726114D01*
X126633561Y-50705298D01*
X126593901Y-50699017D01*
X125820679Y-50699017D01*
X125781018Y-50705298D01*
X125649592Y-50726114D01*
X125484842Y-50779645D01*
X125330501Y-50858285D01*
X125288485Y-50888812D01*
X125190362Y-50960103D01*
X125190360Y-50960105D01*
X125190359Y-50960105D01*
X125067878Y-51082586D01*
X125067878Y-51082587D01*
X125067876Y-51082589D01*
X125024149Y-51142773D01*
X124966058Y-51222728D01*
X124887418Y-51377069D01*
X124833887Y-51541819D01*
X124813172Y-51672609D01*
X124806790Y-51712906D01*
X124806790Y-51886128D01*
X124833888Y-52057218D01*
X124887417Y-52221962D01*
X124966058Y-52376305D01*
X125067876Y-52516445D01*
X125067878Y-52516447D01*
X125189205Y-52637774D01*
X125222690Y-52699097D01*
X125217706Y-52768789D01*
X125175834Y-52824722D01*
X125167497Y-52830448D01*
X125105030Y-52869699D01*
X125105027Y-52869701D01*
X124977474Y-52997254D01*
X124881501Y-53149993D01*
X124821921Y-53320262D01*
X124821920Y-53320267D01*
X124806790Y-53454556D01*
X124806790Y-54144477D01*
X123600500Y-54144477D01*
X123600500Y-36799763D01*
X124806790Y-36799763D01*
X124821920Y-36934052D01*
X124821921Y-36934057D01*
X124881501Y-37104326D01*
X124949097Y-37211903D01*
X124977474Y-37257065D01*
X125105028Y-37384619D01*
X125257768Y-37480592D01*
X125428035Y-37540171D01*
X125428040Y-37540172D01*
X125518536Y-37550368D01*
X125562330Y-37555302D01*
X125562333Y-37555303D01*
X125562336Y-37555303D01*
X126852247Y-37555303D01*
X126852248Y-37555302D01*
X126919394Y-37547737D01*
X126986539Y-37540172D01*
X126986542Y-37540171D01*
X126986545Y-37540171D01*
X127156812Y-37480592D01*
X127309552Y-37384619D01*
X127437106Y-37257065D01*
X127533079Y-37104325D01*
X127592658Y-36934058D01*
X127594533Y-36917423D01*
X127602420Y-36847418D01*
X127607790Y-36799757D01*
X127607790Y-36109849D01*
X127592658Y-35975548D01*
X127533079Y-35805281D01*
X127437106Y-35652541D01*
X127309552Y-35524987D01*
X127247083Y-35485735D01*
X127200792Y-35433400D01*
X127190144Y-35364346D01*
X127218519Y-35300498D01*
X127225350Y-35293084D01*
X127346704Y-35171731D01*
X127448522Y-35031591D01*
X127527163Y-34877248D01*
X127580692Y-34712504D01*
X127607790Y-34541414D01*
X127607790Y-34368192D01*
X127580692Y-34197102D01*
X127527163Y-34032358D01*
X127448522Y-33878015D01*
X127346704Y-33737875D01*
X127224218Y-33615389D01*
X127084078Y-33513571D01*
X126929735Y-33434930D01*
X126764991Y-33381401D01*
X126764989Y-33381400D01*
X126764988Y-33381400D01*
X126633561Y-33360584D01*
X126593901Y-33354303D01*
X125820679Y-33354303D01*
X125781018Y-33360584D01*
X125649592Y-33381400D01*
X125484842Y-33434931D01*
X125330501Y-33513571D01*
X125321668Y-33519989D01*
X125190362Y-33615389D01*
X125190360Y-33615391D01*
X125190359Y-33615391D01*
X125067878Y-33737872D01*
X125067878Y-33737873D01*
X125067876Y-33737875D01*
X125024149Y-33798059D01*
X124966058Y-33878014D01*
X124887418Y-34032355D01*
X124887417Y-34032357D01*
X124887417Y-34032358D01*
X124877751Y-34062106D01*
X124833887Y-34197105D01*
X124809355Y-34351998D01*
X124806790Y-34368192D01*
X124806790Y-34541414D01*
X124833888Y-34712504D01*
X124887417Y-34877248D01*
X124966058Y-35031591D01*
X125067876Y-35171731D01*
X125067878Y-35171733D01*
X125189205Y-35293060D01*
X125222690Y-35354383D01*
X125217706Y-35424075D01*
X125175834Y-35480008D01*
X125167497Y-35485734D01*
X125105030Y-35524985D01*
X125105027Y-35524987D01*
X124977474Y-35652540D01*
X124881501Y-35805279D01*
X124821921Y-35975548D01*
X124821920Y-35975553D01*
X124806790Y-36109842D01*
X124806790Y-36799763D01*
X123600500Y-36799763D01*
X123600500Y-33290889D01*
X123600472Y-33290478D01*
X123600474Y-33210314D01*
X123571223Y-32875926D01*
X123512939Y-32545361D01*
X123450362Y-32311812D01*
X123426069Y-32221142D01*
X123426060Y-32221114D01*
X123311269Y-31905721D01*
X123311267Y-31905716D01*
X123311265Y-31905710D01*
X123169410Y-31601493D01*
X123001581Y-31310798D01*
X122879274Y-31136122D01*
X122809058Y-31035840D01*
X122742789Y-30956863D01*
X122593295Y-30778700D01*
X122540728Y-30726132D01*
X122540718Y-30726120D01*
X121930700Y-30116102D01*
X121897215Y-30054779D01*
X121895163Y-30042323D01*
X121885368Y-29955382D01*
X121825789Y-29785115D01*
X121729816Y-29632375D01*
X121602262Y-29504821D01*
X121449523Y-29408848D01*
X121279254Y-29349268D01*
X121279249Y-29349267D01*
X121100004Y-29329072D01*
X121099996Y-29329072D01*
X120920750Y-29349267D01*
X120920745Y-29349268D01*
X120750476Y-29408848D01*
X120597737Y-29504821D01*
X120470184Y-29632374D01*
X120374211Y-29785113D01*
X120314631Y-29955382D01*
X120314630Y-29955387D01*
X120294435Y-30134633D01*
X120294435Y-30134640D01*
X120314630Y-30313886D01*
X120314631Y-30313891D01*
X120374211Y-30484160D01*
X120470184Y-30636899D01*
X120597738Y-30764453D01*
X120750478Y-30860426D01*
X120920745Y-30920005D01*
X121007669Y-30929798D01*
X121072080Y-30956863D01*
X121081465Y-30965337D01*
X121622896Y-31506768D01*
X121627675Y-31511823D01*
X121818232Y-31725059D01*
X121826902Y-31735931D01*
X121990351Y-31966295D01*
X121997749Y-31978069D01*
X122134374Y-32225279D01*
X122140408Y-32237807D01*
X122248502Y-32498777D01*
X122253094Y-32511902D01*
X122331287Y-32783322D01*
X122334381Y-32796880D01*
X122381690Y-33075343D01*
X122383247Y-33089161D01*
X122399305Y-33375154D01*
X122399500Y-33382105D01*
X122399500Y-47680254D01*
X122379815Y-47747293D01*
X122327011Y-47793048D01*
X122257853Y-47802992D01*
X122194297Y-47773967D01*
X122187819Y-47767935D01*
X121930700Y-47510816D01*
X121897215Y-47449493D01*
X121895163Y-47437037D01*
X121885368Y-47350096D01*
X121825789Y-47179829D01*
X121729816Y-47027089D01*
X121602262Y-46899535D01*
X121576719Y-46883485D01*
X121449523Y-46803562D01*
X121279254Y-46743982D01*
X121279249Y-46743981D01*
X121100004Y-46723786D01*
X121099996Y-46723786D01*
X120920750Y-46743981D01*
X120920745Y-46743982D01*
X120750476Y-46803562D01*
X120597737Y-46899535D01*
X120470184Y-47027088D01*
X120374211Y-47179827D01*
X120314631Y-47350096D01*
X120314630Y-47350101D01*
X120294435Y-47529347D01*
X120294435Y-47529354D01*
X120314630Y-47708600D01*
X120314631Y-47708605D01*
X120374211Y-47878874D01*
X120452127Y-48002875D01*
X120470184Y-48031613D01*
X120597738Y-48159167D01*
X120750478Y-48255140D01*
X120920745Y-48314719D01*
X121007669Y-48324512D01*
X121072080Y-48351577D01*
X121081465Y-48360051D01*
X121459405Y-48737991D01*
X121464185Y-48743047D01*
X121613021Y-48909600D01*
X121621689Y-48920469D01*
X121682972Y-49006842D01*
X121748911Y-49099777D01*
X121756308Y-49111550D01*
X121761672Y-49121255D01*
X121862655Y-49303975D01*
X121868689Y-49316504D01*
X121952826Y-49519637D01*
X121957418Y-49532762D01*
X122018280Y-49744027D01*
X122021374Y-49757584D01*
X122058199Y-49974335D01*
X122059756Y-49988152D01*
X122072305Y-50211645D01*
X122072500Y-50218597D01*
X122072500Y-64625724D01*
X122052815Y-64692763D01*
X122000011Y-64738518D01*
X121930853Y-64748462D01*
X121867297Y-64719437D01*
X121831459Y-64666679D01*
X121825790Y-64650480D01*
X121825789Y-64650478D01*
X121729816Y-64497738D01*
X121602262Y-64370184D01*
X121449523Y-64274211D01*
X121279254Y-64214631D01*
X121279249Y-64214630D01*
X121100004Y-64194435D01*
X121099996Y-64194435D01*
X120920750Y-64214630D01*
X120920745Y-64214631D01*
X120750476Y-64274211D01*
X120597737Y-64370184D01*
X120470184Y-64497737D01*
X120374211Y-64650476D01*
X120314631Y-64820745D01*
X120314630Y-64820750D01*
X120294435Y-64999996D01*
X120294435Y-65000003D01*
X120314630Y-65179249D01*
X120314631Y-65179254D01*
X120374211Y-65349523D01*
X120460212Y-65486391D01*
X120470184Y-65502262D01*
X120597738Y-65629816D01*
X120750478Y-65725789D01*
X120920745Y-65785368D01*
X121007669Y-65795161D01*
X121072080Y-65822226D01*
X121081465Y-65830700D01*
X121264720Y-66013955D01*
X121264721Y-66013957D01*
X121264722Y-66013957D01*
X121295516Y-66044752D01*
X121301061Y-66050673D01*
X121424682Y-66191636D01*
X121434556Y-66204503D01*
X121536470Y-66357025D01*
X121544580Y-66371073D01*
X121625710Y-66535586D01*
X121631917Y-66550570D01*
X121690881Y-66724266D01*
X121695079Y-66739933D01*
X121730868Y-66919841D01*
X121732985Y-66935921D01*
X121745234Y-67122734D01*
X121745500Y-67130847D01*
X121745500Y-80685164D01*
X121745404Y-80690032D01*
X121730769Y-81062536D01*
X121730006Y-81072242D01*
X121686472Y-81440070D01*
X121684948Y-81449687D01*
X121630395Y-81723945D01*
X121598010Y-81785856D01*
X121537295Y-81820430D01*
X121467525Y-81816691D01*
X121454979Y-81811476D01*
X121449515Y-81808844D01*
X121279262Y-81749270D01*
X121279249Y-81749267D01*
X121100004Y-81729072D01*
X121099996Y-81729072D01*
X120920750Y-81749267D01*
X120920745Y-81749268D01*
X120750476Y-81808848D01*
X120597737Y-81904821D01*
X120470184Y-82032374D01*
X120374211Y-82185113D01*
X120314631Y-82355382D01*
X120314630Y-82355387D01*
X120294435Y-82534633D01*
X120294435Y-82534640D01*
X120314630Y-82713886D01*
X120314633Y-82713899D01*
X120374209Y-82884155D01*
X120374211Y-82884159D01*
X120436573Y-82983408D01*
X120455573Y-83050645D01*
X120453827Y-83070149D01*
X120450781Y-83088078D01*
X120447687Y-83101637D01*
X120389771Y-83302668D01*
X120385178Y-83315793D01*
X120305120Y-83509069D01*
X120299087Y-83521597D01*
X120197890Y-83704698D01*
X120190491Y-83716473D01*
X120069431Y-83887088D01*
X120060761Y-83897959D01*
X119918977Y-84056614D01*
X119914198Y-84061669D01*
X119865165Y-84110700D01*
X119865161Y-84110706D01*
X119122837Y-84853031D01*
X119122836Y-84853032D01*
X119073002Y-84902865D01*
X119069493Y-84906239D01*
X118795728Y-85159304D01*
X118788325Y-85165627D01*
X118497462Y-85394925D01*
X118489585Y-85400648D01*
X118181626Y-85606420D01*
X118173324Y-85611507D01*
X117850187Y-85792473D01*
X117841512Y-85796894D01*
X117505152Y-85951959D01*
X117496157Y-85955685D01*
X117148665Y-86083883D01*
X117139405Y-86086891D01*
X116782948Y-86187424D01*
X116773481Y-86189697D01*
X116410219Y-86261957D01*
X116400602Y-86263480D01*
X116032799Y-86307014D01*
X116023093Y-86307778D01*
X115650910Y-86322404D01*
X115646041Y-86322500D01*
X105054554Y-86322500D01*
X104987515Y-86302815D01*
X104941760Y-86250011D01*
X104931816Y-86180853D01*
X104950746Y-86130678D01*
X104995046Y-86062872D01*
X105040049Y-85993990D01*
X105136610Y-85773853D01*
X105195620Y-85540825D01*
X105207710Y-85394925D01*
X105215471Y-85301267D01*
X105215471Y-85301256D01*
X105195620Y-85061702D01*
X105195620Y-85061699D01*
X105136610Y-84828671D01*
X105132177Y-84818566D01*
X105123275Y-84749269D01*
X105140740Y-84702787D01*
X105273090Y-84492149D01*
X105273094Y-84492141D01*
X105273097Y-84492137D01*
X105406348Y-84215429D01*
X105507780Y-83925542D01*
X105576118Y-83626121D01*
X105578010Y-83609332D01*
X105605251Y-83367533D01*
X105610501Y-83320932D01*
X105610500Y-83167372D01*
X105610500Y-83132708D01*
X105610500Y-69833951D01*
X105610500Y-69826085D01*
X105610489Y-69825913D01*
X105610489Y-69759448D01*
X105610488Y-69759444D01*
X105605239Y-69712859D01*
X105596779Y-69637764D01*
X105576106Y-69454278D01*
X105576103Y-69454260D01*
X105573796Y-69444154D01*
X105507765Y-69154846D01*
X105406332Y-68864961D01*
X105273081Y-68588257D01*
X105140730Y-68377619D01*
X105121731Y-68310383D01*
X105132173Y-68261831D01*
X105136607Y-68251723D01*
X105136610Y-68251715D01*
X105195620Y-68018688D01*
X105215471Y-67779125D01*
X105208243Y-67691903D01*
X105195620Y-67539565D01*
X105195620Y-67539562D01*
X105136610Y-67306534D01*
X105132161Y-67296393D01*
X105123257Y-67227094D01*
X105140719Y-67180614D01*
X105273065Y-66969994D01*
X105406322Y-66693293D01*
X105507760Y-66403412D01*
X105576105Y-66103996D01*
X105606751Y-65832052D01*
X105610497Y-65798814D01*
X105610497Y-65784122D01*
X105610497Y-65736133D01*
X105610500Y-65736117D01*
X105610500Y-65612696D01*
X105610501Y-65572339D01*
X105610500Y-65572334D01*
X105610500Y-52394552D01*
X105610500Y-52386554D01*
X105610488Y-52386370D01*
X105610488Y-52320049D01*
X105610487Y-52320045D01*
X105605238Y-52273460D01*
X105592165Y-52157421D01*
X105576105Y-52014879D01*
X105576102Y-52014861D01*
X105569460Y-51985759D01*
X105507765Y-51715447D01*
X105406332Y-51425563D01*
X105273080Y-51148858D01*
X105231439Y-51082586D01*
X105140731Y-50938221D01*
X105121731Y-50870984D01*
X105132170Y-50822438D01*
X105136610Y-50812317D01*
X105195620Y-50579289D01*
X105215471Y-50339726D01*
X105195620Y-50100163D01*
X105141260Y-49885497D01*
X105143885Y-49815678D01*
X105165608Y-49776399D01*
X105347968Y-49554197D01*
X105535437Y-49273635D01*
X105694503Y-48976048D01*
X105823635Y-48664303D01*
X105823635Y-48664300D01*
X105823638Y-48664295D01*
X105921588Y-48341406D01*
X105921589Y-48341403D01*
X105987421Y-48010456D01*
X106020499Y-47674650D01*
X106020500Y-47505934D01*
X106020500Y-47433020D01*
X106020500Y-35031088D01*
X106020500Y-35023149D01*
X106020464Y-35022607D01*
X106020466Y-34956599D01*
X105986086Y-34651412D01*
X105925593Y-34386352D01*
X105917753Y-34351998D01*
X105917751Y-34351992D01*
X105902759Y-34309145D01*
X105816324Y-34062109D01*
X105816323Y-34062106D01*
X105816320Y-34062099D01*
X105683079Y-33785409D01*
X105683073Y-33785397D01*
X105550728Y-33574760D01*
X105531729Y-33507523D01*
X105542169Y-33458977D01*
X105546610Y-33448853D01*
X105605620Y-33215825D01*
X105617261Y-33075343D01*
X105625471Y-32976267D01*
X105625471Y-32976256D01*
X105605620Y-32736702D01*
X105605620Y-32736699D01*
X105546610Y-32503671D01*
X105450049Y-32283534D01*
X105444170Y-32274536D01*
X105318572Y-32082295D01*
X105318571Y-32082293D01*
X105155764Y-31905437D01*
X105155759Y-31905433D01*
X105155757Y-31905431D01*
X104966075Y-31757795D01*
X104966069Y-31757791D01*
X104754657Y-31643380D01*
X104754652Y-31643378D01*
X104527300Y-31565328D01*
X104349468Y-31535653D01*
X104290192Y-31525762D01*
X104049808Y-31525762D01*
X104015901Y-31531420D01*
X103812703Y-31565327D01*
X103694335Y-31605963D01*
X103624536Y-31609112D01*
X103585184Y-31591784D01*
X103384015Y-31457371D01*
X103383991Y-31457357D01*
X103136424Y-31325035D01*
X103136421Y-31325034D01*
X103136419Y-31325033D01*
X103136417Y-31325032D01*
X102877057Y-31217607D01*
X102877050Y-31217604D01*
X102608421Y-31136122D01*
X102608418Y-31136121D01*
X102608417Y-31136121D01*
X102538160Y-31122147D01*
X102333086Y-31081359D01*
X102333076Y-31081358D01*
X102209886Y-31069227D01*
X102053708Y-31053848D01*
X102053704Y-31053848D01*
X101913344Y-31053851D01*
X73937772Y-31053851D01*
X73937718Y-31053835D01*
X73886394Y-31053835D01*
X73766387Y-31053835D01*
X73766384Y-31053835D01*
X73527892Y-31080708D01*
X73527882Y-31080710D01*
X73293893Y-31134117D01*
X73293890Y-31134119D01*
X73067350Y-31213391D01*
X73067345Y-31213393D01*
X73067343Y-31213394D01*
X72973230Y-31258717D01*
X72851098Y-31317535D01*
X72664411Y-31434844D01*
X72598437Y-31453851D01*
X71302129Y-31453851D01*
X71302123Y-31453852D01*
X71242516Y-31460259D01*
X71107671Y-31510553D01*
X71107664Y-31510557D01*
X70992455Y-31596803D01*
X70992452Y-31596806D01*
X70906206Y-31712015D01*
X70906202Y-31712022D01*
X70855908Y-31846868D01*
X70849501Y-31906467D01*
X70849500Y-31906486D01*
X70849500Y-33202221D01*
X70849501Y-33202227D01*
X70855908Y-33261834D01*
X70906202Y-33396679D01*
X70906206Y-33396686D01*
X70992452Y-33511895D01*
X70992455Y-33511898D01*
X71107664Y-33598144D01*
X71107671Y-33598148D01*
X71152618Y-33614912D01*
X71242517Y-33648442D01*
X71302127Y-33654851D01*
X71625500Y-33654850D01*
X71692539Y-33674534D01*
X71738294Y-33727338D01*
X71749500Y-33778850D01*
X71749500Y-33912272D01*
X71729815Y-33979311D01*
X71677011Y-34025066D01*
X71663822Y-34030201D01*
X71629191Y-34041453D01*
X71527550Y-34074479D01*
X71373211Y-34153119D01*
X71293256Y-34211210D01*
X71233072Y-34254937D01*
X71233070Y-34254939D01*
X71233069Y-34254939D01*
X71110588Y-34377420D01*
X71110588Y-34377421D01*
X71110586Y-34377423D01*
X71103131Y-34387684D01*
X71008768Y-34517562D01*
X70930128Y-34671903D01*
X70876597Y-34836653D01*
X70849500Y-35007740D01*
X70849500Y-35180961D01*
X70868432Y-35300498D01*
X70876598Y-35352052D01*
X70930127Y-35516796D01*
X71008768Y-35671139D01*
X71110586Y-35811279D01*
X71233072Y-35933765D01*
X71373212Y-36035583D01*
X71446133Y-36072738D01*
X71527550Y-36114222D01*
X71527552Y-36114222D01*
X71527555Y-36114224D01*
X71663819Y-36158499D01*
X71721494Y-36197937D01*
X71748692Y-36262296D01*
X71749500Y-36276430D01*
X71749500Y-36452272D01*
X71729815Y-36519311D01*
X71677011Y-36565066D01*
X71663822Y-36570201D01*
X71629191Y-36581453D01*
X71527550Y-36614479D01*
X71373211Y-36693119D01*
X71293256Y-36751210D01*
X71233072Y-36794937D01*
X71233070Y-36794939D01*
X71233069Y-36794939D01*
X71110588Y-36917420D01*
X71110588Y-36917421D01*
X71110586Y-36917423D01*
X71098501Y-36934057D01*
X71008768Y-37057562D01*
X70930128Y-37211903D01*
X70876597Y-37376653D01*
X70860135Y-37480591D01*
X70849500Y-37547740D01*
X70849500Y-37720962D01*
X70876598Y-37892052D01*
X70930127Y-38056796D01*
X71008768Y-38211139D01*
X71110586Y-38351279D01*
X71233072Y-38473765D01*
X71373212Y-38575583D01*
X71527555Y-38654224D01*
X71692299Y-38707753D01*
X71863389Y-38734851D01*
X71863390Y-38734851D01*
X72836610Y-38734851D01*
X72836611Y-38734851D01*
X73007701Y-38707753D01*
X73172445Y-38654224D01*
X73326788Y-38575583D01*
X73466928Y-38473765D01*
X73589414Y-38351279D01*
X73691232Y-38211139D01*
X73769873Y-38056796D01*
X73823402Y-37892052D01*
X73850500Y-37720962D01*
X93709500Y-37720962D01*
X93736598Y-37892052D01*
X93790127Y-38056796D01*
X93868768Y-38211139D01*
X93970586Y-38351279D01*
X94093072Y-38473765D01*
X94233212Y-38575583D01*
X94387555Y-38654224D01*
X94552299Y-38707753D01*
X94723389Y-38734851D01*
X94723390Y-38734851D01*
X95696610Y-38734851D01*
X95696611Y-38734851D01*
X95867701Y-38707753D01*
X96032445Y-38654224D01*
X96186788Y-38575583D01*
X96326928Y-38473765D01*
X96449414Y-38351279D01*
X96551232Y-38211139D01*
X96629873Y-38056796D01*
X96683402Y-37892052D01*
X96710500Y-37720962D01*
X96710500Y-37547740D01*
X96683402Y-37376650D01*
X96629873Y-37211906D01*
X96551232Y-37057563D01*
X96449414Y-36917423D01*
X96326928Y-36794937D01*
X96186788Y-36693119D01*
X96032445Y-36614478D01*
X95867701Y-36560949D01*
X95867699Y-36560948D01*
X95867698Y-36560948D01*
X95736271Y-36540132D01*
X95696611Y-36533851D01*
X94723389Y-36533851D01*
X94683728Y-36540132D01*
X94552302Y-36560948D01*
X94387552Y-36614479D01*
X94233211Y-36693119D01*
X94153256Y-36751210D01*
X94093072Y-36794937D01*
X94093070Y-36794939D01*
X94093069Y-36794939D01*
X93970588Y-36917420D01*
X93970588Y-36917421D01*
X93970586Y-36917423D01*
X93958501Y-36934057D01*
X93868768Y-37057562D01*
X93790128Y-37211903D01*
X93736597Y-37376653D01*
X93720135Y-37480591D01*
X93709500Y-37547740D01*
X93709500Y-37720962D01*
X73850500Y-37720962D01*
X73850500Y-37547740D01*
X73823402Y-37376650D01*
X73769873Y-37211906D01*
X73691232Y-37057563D01*
X73589414Y-36917423D01*
X73466928Y-36794937D01*
X73326788Y-36693119D01*
X73311425Y-36685291D01*
X73172449Y-36614479D01*
X73088145Y-36587087D01*
X73036180Y-36570202D01*
X72978506Y-36530765D01*
X72951308Y-36466406D01*
X72950500Y-36452272D01*
X72950500Y-36276430D01*
X72970185Y-36209391D01*
X73022989Y-36163636D01*
X73036177Y-36158500D01*
X73172445Y-36114224D01*
X73326788Y-36035583D01*
X73466928Y-35933765D01*
X73589414Y-35811279D01*
X73691232Y-35671139D01*
X73769873Y-35516796D01*
X73823402Y-35352052D01*
X73850500Y-35180962D01*
X73850500Y-35180961D01*
X93709500Y-35180961D01*
X93728432Y-35300498D01*
X93736598Y-35352052D01*
X93790127Y-35516796D01*
X93868768Y-35671139D01*
X93970586Y-35811279D01*
X94093072Y-35933765D01*
X94233212Y-36035583D01*
X94387555Y-36114224D01*
X94552299Y-36167753D01*
X94723389Y-36194851D01*
X94723390Y-36194851D01*
X95696610Y-36194851D01*
X95696611Y-36194851D01*
X95867701Y-36167753D01*
X96032445Y-36114224D01*
X96186788Y-36035583D01*
X96326928Y-35933765D01*
X96449414Y-35811279D01*
X96551232Y-35671139D01*
X96629873Y-35516796D01*
X96683402Y-35352052D01*
X96710500Y-35180962D01*
X96710500Y-35007740D01*
X96683402Y-34836650D01*
X96629873Y-34671906D01*
X96551232Y-34517563D01*
X96449414Y-34377423D01*
X96326928Y-34254937D01*
X96186788Y-34153119D01*
X96032445Y-34074478D01*
X95867701Y-34020949D01*
X95867699Y-34020948D01*
X95867698Y-34020948D01*
X95736271Y-34000132D01*
X95696611Y-33993851D01*
X94723389Y-33993851D01*
X94683728Y-34000132D01*
X94552302Y-34020948D01*
X94387552Y-34074479D01*
X94233211Y-34153119D01*
X94153256Y-34211210D01*
X94093072Y-34254937D01*
X94093070Y-34254939D01*
X94093069Y-34254939D01*
X93970588Y-34377420D01*
X93970588Y-34377421D01*
X93970586Y-34377423D01*
X93963131Y-34387684D01*
X93868768Y-34517562D01*
X93790128Y-34671903D01*
X93736597Y-34836653D01*
X93709500Y-35007740D01*
X93709500Y-35180961D01*
X73850500Y-35180961D01*
X73850500Y-35007740D01*
X73823402Y-34836650D01*
X73769873Y-34671906D01*
X73691232Y-34517563D01*
X73589414Y-34377423D01*
X73466928Y-34254937D01*
X73326788Y-34153119D01*
X73172449Y-34074479D01*
X73088145Y-34047087D01*
X73036180Y-34030202D01*
X72978506Y-33990765D01*
X72951308Y-33926406D01*
X72950500Y-33912272D01*
X72950500Y-33778850D01*
X72970185Y-33711811D01*
X73022989Y-33666056D01*
X73074500Y-33654850D01*
X73397871Y-33654850D01*
X73397872Y-33654850D01*
X73457483Y-33648442D01*
X73592331Y-33598147D01*
X73707546Y-33511897D01*
X73793796Y-33396682D01*
X73844091Y-33261834D01*
X73850500Y-33202224D01*
X73850499Y-32378850D01*
X73870183Y-32311812D01*
X73922987Y-32266057D01*
X73974499Y-32254851D01*
X93636443Y-32254851D01*
X93703482Y-32274536D01*
X93730732Y-32298318D01*
X93735885Y-32304351D01*
X94894314Y-32304351D01*
X94889920Y-32308745D01*
X94837259Y-32399957D01*
X94810000Y-32501690D01*
X94810000Y-32607012D01*
X94837259Y-32708745D01*
X94889920Y-32799957D01*
X94894314Y-32804351D01*
X93735885Y-32804351D01*
X93737085Y-32811935D01*
X93790591Y-32976606D01*
X93869195Y-33130875D01*
X93970967Y-33270953D01*
X94093397Y-33393383D01*
X94233475Y-33495155D01*
X94387742Y-33573759D01*
X94552415Y-33627265D01*
X94723429Y-33654351D01*
X94960000Y-33654351D01*
X94960000Y-32870037D01*
X94964394Y-32874431D01*
X95055606Y-32927092D01*
X95157339Y-32954351D01*
X95262661Y-32954351D01*
X95364394Y-32927092D01*
X95455606Y-32874431D01*
X95460000Y-32870037D01*
X95460000Y-33654351D01*
X95696571Y-33654351D01*
X95867584Y-33627265D01*
X96032257Y-33573759D01*
X96186524Y-33495155D01*
X96326602Y-33393383D01*
X96449032Y-33270953D01*
X96550804Y-33130875D01*
X96629408Y-32976606D01*
X96682914Y-32811935D01*
X96684115Y-32804351D01*
X95525686Y-32804351D01*
X95530080Y-32799957D01*
X95582741Y-32708745D01*
X95610000Y-32607012D01*
X95610000Y-32501690D01*
X95582741Y-32399957D01*
X95530080Y-32308745D01*
X95525686Y-32304351D01*
X96684115Y-32304351D01*
X96689268Y-32298318D01*
X96747775Y-32260126D01*
X96783557Y-32254851D01*
X101840450Y-32254851D01*
X101840454Y-32254852D01*
X101909303Y-32254851D01*
X101917412Y-32255116D01*
X102121440Y-32268485D01*
X102137503Y-32270599D01*
X102334052Y-32309691D01*
X102349702Y-32313884D01*
X102539465Y-32378297D01*
X102554440Y-32384500D01*
X102703695Y-32458101D01*
X102755114Y-32505404D01*
X102772797Y-32572999D01*
X102769058Y-32599752D01*
X102734379Y-32736700D01*
X102714529Y-32976256D01*
X102714529Y-32976267D01*
X102734379Y-33215821D01*
X102793389Y-33448851D01*
X102889951Y-33668991D01*
X103021427Y-33870228D01*
X103021429Y-33870231D01*
X103184236Y-34047087D01*
X103184239Y-34047089D01*
X103184242Y-34047092D01*
X103373924Y-34194728D01*
X103373930Y-34194732D01*
X103373933Y-34194734D01*
X103485182Y-34254939D01*
X103564365Y-34297791D01*
X103585344Y-34309144D01*
X103585347Y-34309145D01*
X103812699Y-34387195D01*
X103812701Y-34387195D01*
X103812703Y-34387196D01*
X104049808Y-34426762D01*
X104049809Y-34426762D01*
X104290191Y-34426762D01*
X104290192Y-34426762D01*
X104399894Y-34408455D01*
X104532356Y-34386352D01*
X104532578Y-34387684D01*
X104596112Y-34390057D01*
X104653440Y-34429999D01*
X104667972Y-34452801D01*
X104699161Y-34516048D01*
X104705367Y-34531033D01*
X104764609Y-34705568D01*
X104768807Y-34721235D01*
X104804763Y-34902015D01*
X104806880Y-34918097D01*
X104819234Y-35106650D01*
X104819499Y-35114757D01*
X104819499Y-35190640D01*
X104819500Y-35190657D01*
X104819500Y-36572497D01*
X104799815Y-36639536D01*
X104747011Y-36685291D01*
X104677853Y-36695235D01*
X104655238Y-36689778D01*
X104527178Y-36645815D01*
X104290149Y-36606262D01*
X104049851Y-36606262D01*
X103812823Y-36645815D01*
X103585550Y-36723838D01*
X103585544Y-36723840D01*
X103374209Y-36838210D01*
X103335571Y-36868281D01*
X104123553Y-37656262D01*
X104117339Y-37656262D01*
X104015606Y-37683521D01*
X103924394Y-37736182D01*
X103849920Y-37810656D01*
X103797259Y-37901868D01*
X103770000Y-38003601D01*
X103770000Y-38009815D01*
X102982688Y-37222503D01*
X102890392Y-37363773D01*
X102793865Y-37583833D01*
X102734874Y-37816785D01*
X102715031Y-38056256D01*
X102715031Y-38056267D01*
X102734874Y-38295738D01*
X102793865Y-38528690D01*
X102890392Y-38748750D01*
X102982687Y-38890019D01*
X103770000Y-38102708D01*
X103770000Y-38108923D01*
X103797259Y-38210656D01*
X103849920Y-38301868D01*
X103924394Y-38376342D01*
X104015606Y-38429003D01*
X104117339Y-38456262D01*
X104123551Y-38456262D01*
X103335572Y-39244241D01*
X103374208Y-39274313D01*
X103585544Y-39388683D01*
X103585550Y-39388685D01*
X103812823Y-39466708D01*
X104049851Y-39506262D01*
X104290149Y-39506262D01*
X104527176Y-39466708D01*
X104655237Y-39422745D01*
X104725035Y-39419595D01*
X104785457Y-39454681D01*
X104817317Y-39516863D01*
X104819500Y-39540026D01*
X104819500Y-47502439D01*
X104819305Y-47509393D01*
X104805845Y-47749017D01*
X104804288Y-47762835D01*
X104764667Y-47996014D01*
X104761572Y-48009571D01*
X104696096Y-48236835D01*
X104691504Y-48249959D01*
X104600990Y-48468476D01*
X104594956Y-48481005D01*
X104480549Y-48688004D01*
X104473151Y-48699778D01*
X104336285Y-48892671D01*
X104327614Y-48903543D01*
X104315829Y-48916730D01*
X104256480Y-48953600D01*
X104186618Y-48952530D01*
X104183110Y-48951384D01*
X104117299Y-48928792D01*
X103934881Y-48898352D01*
X103880192Y-48889226D01*
X103639808Y-48889226D01*
X103592387Y-48897139D01*
X103402699Y-48928792D01*
X103175347Y-49006842D01*
X103175342Y-49006844D01*
X102963930Y-49121255D01*
X102963924Y-49121259D01*
X102774242Y-49268895D01*
X102774239Y-49268898D01*
X102611430Y-49445755D01*
X102611427Y-49445759D01*
X102479951Y-49646996D01*
X102383389Y-49867136D01*
X102324379Y-50100166D01*
X102304529Y-50339720D01*
X102304529Y-50339731D01*
X102324379Y-50579285D01*
X102383389Y-50812315D01*
X102479951Y-51032455D01*
X102611427Y-51233692D01*
X102611429Y-51233695D01*
X102774236Y-51410551D01*
X102774239Y-51410553D01*
X102774242Y-51410556D01*
X102963924Y-51558192D01*
X102963930Y-51558196D01*
X102963933Y-51558198D01*
X103137399Y-51652073D01*
X103154365Y-51661255D01*
X103175344Y-51672608D01*
X103175347Y-51672609D01*
X103402699Y-51750659D01*
X103402701Y-51750659D01*
X103402703Y-51750660D01*
X103639808Y-51790226D01*
X103639809Y-51790226D01*
X103880191Y-51790226D01*
X103880192Y-51790226D01*
X103989894Y-51771919D01*
X104122356Y-51749816D01*
X104122577Y-51751144D01*
X104186129Y-51753522D01*
X104243454Y-51793467D01*
X104257983Y-51816266D01*
X104289172Y-51879511D01*
X104295380Y-51894497D01*
X104354630Y-52069045D01*
X104358827Y-52084712D01*
X104394784Y-52265482D01*
X104396902Y-52281563D01*
X104409235Y-52469739D01*
X104409500Y-52477849D01*
X104409500Y-53935961D01*
X104389815Y-54003000D01*
X104337011Y-54048755D01*
X104267853Y-54058699D01*
X104245238Y-54053242D01*
X104117178Y-54009279D01*
X103880149Y-53969726D01*
X103639851Y-53969726D01*
X103402823Y-54009279D01*
X103175550Y-54087302D01*
X103175544Y-54087304D01*
X102964209Y-54201674D01*
X102925571Y-54231745D01*
X103713553Y-55019726D01*
X103707339Y-55019726D01*
X103605606Y-55046985D01*
X103514394Y-55099646D01*
X103439920Y-55174120D01*
X103387259Y-55265332D01*
X103360000Y-55367065D01*
X103360000Y-55373279D01*
X102572688Y-54585967D01*
X102480392Y-54727237D01*
X102383865Y-54947297D01*
X102324874Y-55180249D01*
X102305031Y-55419720D01*
X102305031Y-55419731D01*
X102324874Y-55659202D01*
X102383865Y-55892154D01*
X102480392Y-56112214D01*
X102572687Y-56253483D01*
X103360000Y-55466172D01*
X103360000Y-55472387D01*
X103387259Y-55574120D01*
X103439920Y-55665332D01*
X103514394Y-55739806D01*
X103605606Y-55792467D01*
X103707339Y-55819726D01*
X103713551Y-55819726D01*
X102925572Y-56607705D01*
X102964208Y-56637777D01*
X103175544Y-56752147D01*
X103175550Y-56752149D01*
X103402823Y-56830172D01*
X103639851Y-56869726D01*
X103880149Y-56869726D01*
X104117176Y-56830172D01*
X104245237Y-56786209D01*
X104315035Y-56783059D01*
X104375457Y-56818145D01*
X104407317Y-56880327D01*
X104409500Y-56903490D01*
X104409500Y-65641174D01*
X104409234Y-65649287D01*
X104396909Y-65837263D01*
X104394792Y-65853344D01*
X104358829Y-66034124D01*
X104354631Y-66049790D01*
X104295380Y-66224331D01*
X104289173Y-66239316D01*
X104257973Y-66302582D01*
X104210667Y-66354001D01*
X104143072Y-66371682D01*
X104122396Y-66368793D01*
X104122356Y-66369035D01*
X103989894Y-66346931D01*
X103880192Y-66328625D01*
X103639808Y-66328625D01*
X103592387Y-66336538D01*
X103402699Y-66368191D01*
X103175347Y-66446241D01*
X103175342Y-66446243D01*
X102963930Y-66560654D01*
X102963924Y-66560658D01*
X102774242Y-66708294D01*
X102774239Y-66708297D01*
X102611430Y-66885154D01*
X102611427Y-66885158D01*
X102479951Y-67086395D01*
X102383389Y-67306535D01*
X102324379Y-67539565D01*
X102304529Y-67779119D01*
X102304529Y-67779130D01*
X102324379Y-68018684D01*
X102383389Y-68251714D01*
X102439032Y-68378567D01*
X102447935Y-68447867D01*
X102417958Y-68510979D01*
X102358618Y-68547866D01*
X102288757Y-68546816D01*
X102278029Y-68542940D01*
X102136154Y-68484181D01*
X102136128Y-68484173D01*
X101961616Y-68437422D01*
X101961609Y-68437421D01*
X101931796Y-68433497D01*
X101782471Y-68413847D01*
X101782468Y-68413847D01*
X101692126Y-68413851D01*
X96821967Y-68413851D01*
X96754928Y-68394166D01*
X96709173Y-68341362D01*
X96699229Y-68272204D01*
X96699494Y-68270454D01*
X96710500Y-68200962D01*
X96710500Y-68027740D01*
X96683402Y-67856653D01*
X96683402Y-67856650D01*
X96629873Y-67691906D01*
X96551232Y-67537563D01*
X96449414Y-67397423D01*
X96326928Y-67274937D01*
X96186788Y-67173119D01*
X96032445Y-67094478D01*
X95867701Y-67040949D01*
X95867699Y-67040948D01*
X95867698Y-67040948D01*
X95736271Y-67020132D01*
X95696611Y-67013851D01*
X94723389Y-67013851D01*
X94683728Y-67020132D01*
X94552302Y-67040948D01*
X94387552Y-67094479D01*
X94233211Y-67173119D01*
X94158922Y-67227094D01*
X94093072Y-67274937D01*
X94093070Y-67274939D01*
X94093069Y-67274939D01*
X93970588Y-67397420D01*
X93970588Y-67397421D01*
X93970586Y-67397423D01*
X93926859Y-67457607D01*
X93868768Y-67537562D01*
X93790128Y-67691903D01*
X93736597Y-67856653D01*
X93709500Y-68027740D01*
X93709500Y-68200962D01*
X93709499Y-68200962D01*
X93720506Y-68270454D01*
X93711551Y-68339747D01*
X93666555Y-68393199D01*
X93599803Y-68413838D01*
X93598033Y-68413851D01*
X84302543Y-68413851D01*
X84302502Y-68413839D01*
X84027326Y-68413839D01*
X84027313Y-68413840D01*
X83581013Y-68448967D01*
X83580995Y-68448969D01*
X83138824Y-68519004D01*
X83138821Y-68519004D01*
X83138819Y-68519005D01*
X82703493Y-68623520D01*
X82660224Y-68637579D01*
X82277708Y-68761867D01*
X82277696Y-68761871D01*
X81864104Y-68933188D01*
X81864091Y-68933194D01*
X81465185Y-69136447D01*
X81465174Y-69136454D01*
X81083482Y-69370357D01*
X81083460Y-69370371D01*
X80721268Y-69633520D01*
X80721266Y-69633521D01*
X80380848Y-69924267D01*
X80380842Y-69924273D01*
X80227551Y-70077563D01*
X80227537Y-70077577D01*
X80224455Y-70080658D01*
X80220561Y-70084385D01*
X79937352Y-70343898D01*
X79929065Y-70350852D01*
X79626460Y-70583049D01*
X79617599Y-70589254D01*
X79295903Y-70794196D01*
X79286535Y-70799604D01*
X78948206Y-70975726D01*
X78938402Y-70980298D01*
X78586013Y-71126262D01*
X78575847Y-71129962D01*
X78212078Y-71244657D01*
X78201629Y-71247457D01*
X77829239Y-71330013D01*
X77818586Y-71331891D01*
X77440430Y-71381675D01*
X77429653Y-71382618D01*
X77045647Y-71399382D01*
X77040239Y-71399500D01*
X76134134Y-71399500D01*
X76067095Y-71379815D01*
X76021340Y-71327011D01*
X76011396Y-71257853D01*
X76040421Y-71194297D01*
X76099199Y-71156523D01*
X76107775Y-71154334D01*
X76244467Y-71124597D01*
X76491232Y-71070915D01*
X76905334Y-70949321D01*
X77309707Y-70798495D01*
X77702290Y-70619206D01*
X78081082Y-70412368D01*
X78444153Y-70179033D01*
X78789654Y-69920392D01*
X79115823Y-69637762D01*
X79195066Y-69558516D01*
X79195069Y-69558515D01*
X79212507Y-69541077D01*
X79212508Y-69541077D01*
X83092624Y-65660961D01*
X93709500Y-65660961D01*
X93735041Y-65822226D01*
X93736598Y-65832052D01*
X93790127Y-65996796D01*
X93868768Y-66151139D01*
X93970586Y-66291279D01*
X94093072Y-66413765D01*
X94233212Y-66515583D01*
X94387555Y-66594224D01*
X94552299Y-66647753D01*
X94723389Y-66674851D01*
X94723390Y-66674851D01*
X95696610Y-66674851D01*
X95696611Y-66674851D01*
X95867701Y-66647753D01*
X96032445Y-66594224D01*
X96186788Y-66515583D01*
X96326928Y-66413765D01*
X96449414Y-66291279D01*
X96551232Y-66151139D01*
X96629873Y-65996796D01*
X96683402Y-65832052D01*
X96710500Y-65660962D01*
X96710500Y-65487740D01*
X96683402Y-65316650D01*
X96629873Y-65151906D01*
X96551232Y-64997563D01*
X96449414Y-64857423D01*
X96326928Y-64734937D01*
X96186788Y-64633119D01*
X96032445Y-64554478D01*
X95867701Y-64500949D01*
X95867699Y-64500948D01*
X95867698Y-64500948D01*
X95708127Y-64475675D01*
X95696611Y-64473851D01*
X94723389Y-64473851D01*
X94711873Y-64475675D01*
X94552302Y-64500948D01*
X94387552Y-64554479D01*
X94233211Y-64633119D01*
X94153256Y-64691210D01*
X94093072Y-64734937D01*
X94093070Y-64734939D01*
X94093069Y-64734939D01*
X93970588Y-64857420D01*
X93970588Y-64857421D01*
X93970586Y-64857423D01*
X93926859Y-64917607D01*
X93868768Y-64997562D01*
X93790128Y-65151903D01*
X93736597Y-65316653D01*
X93709500Y-65487740D01*
X93709500Y-65660961D01*
X83092624Y-65660961D01*
X85632623Y-63120962D01*
X93709500Y-63120962D01*
X93736598Y-63292052D01*
X93790127Y-63456796D01*
X93868768Y-63611139D01*
X93970586Y-63751279D01*
X94093072Y-63873765D01*
X94233212Y-63975583D01*
X94387555Y-64054224D01*
X94552299Y-64107753D01*
X94723389Y-64134851D01*
X94723390Y-64134851D01*
X95696610Y-64134851D01*
X95696611Y-64134851D01*
X95867701Y-64107753D01*
X96032445Y-64054224D01*
X96186788Y-63975583D01*
X96326928Y-63873765D01*
X96449414Y-63751279D01*
X96551232Y-63611139D01*
X96629873Y-63456796D01*
X96683402Y-63292052D01*
X96710500Y-63120962D01*
X96710500Y-62947740D01*
X96683402Y-62776650D01*
X96629873Y-62611906D01*
X96551232Y-62457563D01*
X96449414Y-62317423D01*
X96326928Y-62194937D01*
X96186788Y-62093119D01*
X96032445Y-62014478D01*
X95867701Y-61960949D01*
X95867699Y-61960948D01*
X95867698Y-61960948D01*
X95736271Y-61940132D01*
X95696611Y-61933851D01*
X94723389Y-61933851D01*
X94683728Y-61940132D01*
X94552302Y-61960948D01*
X94387552Y-62014479D01*
X94233211Y-62093119D01*
X94153256Y-62151210D01*
X94093072Y-62194937D01*
X94093070Y-62194939D01*
X94093069Y-62194939D01*
X93970588Y-62317420D01*
X93970588Y-62317421D01*
X93970586Y-62317423D01*
X93926859Y-62377607D01*
X93868768Y-62457562D01*
X93790128Y-62611903D01*
X93736597Y-62776653D01*
X93709500Y-62947740D01*
X93709500Y-63120962D01*
X85632623Y-63120962D01*
X88172623Y-60580962D01*
X93709500Y-60580962D01*
X93736598Y-60752052D01*
X93790127Y-60916796D01*
X93868768Y-61071139D01*
X93970586Y-61211279D01*
X94093072Y-61333765D01*
X94233212Y-61435583D01*
X94387555Y-61514224D01*
X94552299Y-61567753D01*
X94723389Y-61594851D01*
X94723390Y-61594851D01*
X95696610Y-61594851D01*
X95696611Y-61594851D01*
X95867701Y-61567753D01*
X96032445Y-61514224D01*
X96186788Y-61435583D01*
X96326928Y-61333765D01*
X96449414Y-61211279D01*
X96551232Y-61071139D01*
X96629873Y-60916796D01*
X96683402Y-60752052D01*
X96710500Y-60580962D01*
X96710500Y-60407740D01*
X96683402Y-60236650D01*
X96629873Y-60071906D01*
X96551232Y-59917563D01*
X96449414Y-59777423D01*
X96326928Y-59654937D01*
X96186788Y-59553119D01*
X96032445Y-59474478D01*
X95867701Y-59420949D01*
X95867699Y-59420948D01*
X95867698Y-59420948D01*
X95736271Y-59400132D01*
X95696611Y-59393851D01*
X94723389Y-59393851D01*
X94683728Y-59400132D01*
X94552302Y-59420948D01*
X94387552Y-59474479D01*
X94233211Y-59553119D01*
X94164474Y-59603060D01*
X94093072Y-59654937D01*
X94093070Y-59654939D01*
X94093069Y-59654939D01*
X93970588Y-59777420D01*
X93970588Y-59777421D01*
X93970586Y-59777423D01*
X93926859Y-59837607D01*
X93868768Y-59917562D01*
X93790128Y-60071903D01*
X93736597Y-60236653D01*
X93709500Y-60407740D01*
X93709500Y-60580962D01*
X88172623Y-60580962D01*
X90712623Y-58040962D01*
X93709500Y-58040962D01*
X93736598Y-58212052D01*
X93790127Y-58376796D01*
X93868768Y-58531139D01*
X93970586Y-58671279D01*
X94093072Y-58793765D01*
X94233212Y-58895583D01*
X94387555Y-58974224D01*
X94552299Y-59027753D01*
X94723389Y-59054851D01*
X94723390Y-59054851D01*
X95696610Y-59054851D01*
X95696611Y-59054851D01*
X95867701Y-59027753D01*
X96032445Y-58974224D01*
X96186788Y-58895583D01*
X96326928Y-58793765D01*
X96449414Y-58671279D01*
X96551232Y-58531139D01*
X96629873Y-58376796D01*
X96683402Y-58212052D01*
X96710500Y-58040962D01*
X96710500Y-57867740D01*
X96683402Y-57696650D01*
X96629873Y-57531906D01*
X96551232Y-57377563D01*
X96449414Y-57237423D01*
X96326928Y-57114937D01*
X96186788Y-57013119D01*
X96032445Y-56934478D01*
X95867701Y-56880949D01*
X95867699Y-56880948D01*
X95867698Y-56880948D01*
X95736271Y-56860132D01*
X95696611Y-56853851D01*
X94723389Y-56853851D01*
X94683728Y-56860132D01*
X94552302Y-56880948D01*
X94387552Y-56934479D01*
X94233211Y-57013119D01*
X94153256Y-57071210D01*
X94093072Y-57114937D01*
X94093070Y-57114939D01*
X94093069Y-57114939D01*
X93970588Y-57237420D01*
X93970588Y-57237421D01*
X93970586Y-57237423D01*
X93926859Y-57297607D01*
X93868768Y-57377562D01*
X93790128Y-57531903D01*
X93736597Y-57696653D01*
X93709500Y-57867740D01*
X93709500Y-58040962D01*
X90712623Y-58040962D01*
X92510231Y-56243354D01*
X92513696Y-56240021D01*
X92787515Y-55986907D01*
X92794894Y-55980605D01*
X93085766Y-55751301D01*
X93093625Y-55745590D01*
X93401619Y-55539795D01*
X93409861Y-55534744D01*
X93534777Y-55464787D01*
X93602882Y-55449207D01*
X93668604Y-55472922D01*
X93711072Y-55528404D01*
X93717834Y-55553581D01*
X93735533Y-55665332D01*
X93736598Y-55672052D01*
X93790127Y-55836796D01*
X93868768Y-55991139D01*
X93970586Y-56131279D01*
X94093072Y-56253765D01*
X94233212Y-56355583D01*
X94387555Y-56434224D01*
X94552299Y-56487753D01*
X94723389Y-56514851D01*
X94723390Y-56514851D01*
X95696610Y-56514851D01*
X95696611Y-56514851D01*
X95867701Y-56487753D01*
X96032445Y-56434224D01*
X96186788Y-56355583D01*
X96326928Y-56253765D01*
X96449414Y-56131279D01*
X96551232Y-55991139D01*
X96629873Y-55836796D01*
X96683402Y-55672052D01*
X96710500Y-55500962D01*
X96710500Y-55327740D01*
X96683402Y-55156650D01*
X96629873Y-54991906D01*
X96629872Y-54991904D01*
X96628367Y-54987272D01*
X96630314Y-54986639D01*
X96623758Y-54925726D01*
X96655025Y-54863243D01*
X96715109Y-54827583D01*
X96745790Y-54823728D01*
X99013518Y-54823728D01*
X99013657Y-54823719D01*
X99068667Y-54823719D01*
X99068670Y-54823719D01*
X99351646Y-54795849D01*
X99630528Y-54740377D01*
X99902630Y-54657837D01*
X100165331Y-54549024D01*
X100416102Y-54414986D01*
X100639532Y-54265695D01*
X100706209Y-54244818D01*
X100748681Y-54251516D01*
X100827839Y-54278691D01*
X100862702Y-54290660D01*
X100981255Y-54310443D01*
X101099808Y-54330226D01*
X101099809Y-54330226D01*
X101340191Y-54330226D01*
X101340192Y-54330226D01*
X101577297Y-54290660D01*
X101804656Y-54212608D01*
X102016067Y-54098198D01*
X102205764Y-53950551D01*
X102368571Y-53773695D01*
X102500049Y-53572454D01*
X102596610Y-53352317D01*
X102655620Y-53119289D01*
X102675471Y-52879726D01*
X102674640Y-52869701D01*
X102655620Y-52640166D01*
X102655620Y-52640163D01*
X102596610Y-52407135D01*
X102500049Y-52186998D01*
X102368571Y-51985757D01*
X102205764Y-51808901D01*
X102205759Y-51808897D01*
X102205757Y-51808895D01*
X102016075Y-51661259D01*
X102016069Y-51661255D01*
X101804657Y-51546844D01*
X101804652Y-51546842D01*
X101577300Y-51468792D01*
X101399468Y-51439117D01*
X101340192Y-51429226D01*
X101099808Y-51429226D01*
X101052387Y-51437139D01*
X100862699Y-51468792D01*
X100635347Y-51546842D01*
X100635342Y-51546844D01*
X100423930Y-51661255D01*
X100423924Y-51661259D01*
X100234242Y-51808895D01*
X100234239Y-51808898D01*
X100071430Y-51985755D01*
X100071427Y-51985759D01*
X99939951Y-52186996D01*
X99843389Y-52407136D01*
X99784379Y-52640166D01*
X99764529Y-52879720D01*
X99764529Y-52879731D01*
X99784379Y-53119285D01*
X99820755Y-53262933D01*
X99818129Y-53332754D01*
X99778173Y-53390071D01*
X99755392Y-53404586D01*
X99581672Y-53490254D01*
X99566686Y-53496461D01*
X99372368Y-53562421D01*
X99356702Y-53566618D01*
X99155457Y-53606648D01*
X99139376Y-53608765D01*
X98930407Y-53622462D01*
X98922297Y-53622728D01*
X96666153Y-53622728D01*
X96599114Y-53603043D01*
X96553359Y-53550239D01*
X96543415Y-53481081D01*
X96555668Y-53442434D01*
X96603086Y-53349369D01*
X96629873Y-53296796D01*
X96683402Y-53132052D01*
X96710500Y-52960962D01*
X96710500Y-52787740D01*
X96683402Y-52616650D01*
X96629873Y-52451906D01*
X96551232Y-52297563D01*
X96449414Y-52157423D01*
X96326928Y-52034937D01*
X96186788Y-51933119D01*
X96032445Y-51854478D01*
X95867701Y-51800949D01*
X95867699Y-51800948D01*
X95867698Y-51800948D01*
X95736271Y-51780132D01*
X95696611Y-51773851D01*
X94723389Y-51773851D01*
X94683728Y-51780132D01*
X94552302Y-51800948D01*
X94387552Y-51854479D01*
X94233211Y-51933119D01*
X94160765Y-51985755D01*
X94093072Y-52034937D01*
X94093070Y-52034939D01*
X94093069Y-52034939D01*
X93970588Y-52157420D01*
X93970588Y-52157421D01*
X93970586Y-52157423D01*
X93926859Y-52217607D01*
X93868768Y-52297562D01*
X93790128Y-52451903D01*
X93736597Y-52616653D01*
X93709500Y-52787740D01*
X93709500Y-52960961D01*
X93734576Y-53119289D01*
X93736598Y-53132052D01*
X93790127Y-53296796D01*
X93868768Y-53451139D01*
X93970586Y-53591279D01*
X93970588Y-53591281D01*
X94095839Y-53716532D01*
X94129324Y-53777855D01*
X94124340Y-53847547D01*
X94082468Y-53903480D01*
X94043096Y-53923189D01*
X94025793Y-53928270D01*
X93621416Y-54079094D01*
X93228839Y-54258378D01*
X92850047Y-54465214D01*
X92850034Y-54465222D01*
X92486992Y-54698534D01*
X92486968Y-54698551D01*
X92141473Y-54957185D01*
X91815306Y-55239811D01*
X91815280Y-55239835D01*
X91711547Y-55343567D01*
X78470732Y-68584382D01*
X78470726Y-68584386D01*
X78420911Y-68634203D01*
X78417401Y-68637579D01*
X78143616Y-68890665D01*
X78136212Y-68896988D01*
X77845357Y-69126281D01*
X77837480Y-69132004D01*
X77529527Y-69337774D01*
X77521226Y-69342861D01*
X77198069Y-69523841D01*
X77189409Y-69528253D01*
X76853060Y-69683315D01*
X76844065Y-69687040D01*
X76496562Y-69815243D01*
X76487302Y-69818252D01*
X76130845Y-69918786D01*
X76121378Y-69921059D01*
X75758116Y-69993319D01*
X75748499Y-69994842D01*
X75380695Y-70038376D01*
X75370989Y-70039140D01*
X74999086Y-70053755D01*
X74994217Y-70053851D01*
X73737185Y-70053851D01*
X73670146Y-70034166D01*
X73636867Y-70002737D01*
X73631131Y-69994842D01*
X73589414Y-69937423D01*
X73466928Y-69814937D01*
X73326788Y-69713119D01*
X73172445Y-69634478D01*
X73007701Y-69580949D01*
X73007699Y-69580948D01*
X73007698Y-69580948D01*
X72866058Y-69558515D01*
X72836611Y-69553851D01*
X71863389Y-69553851D01*
X71793897Y-69564857D01*
X71724604Y-69555902D01*
X71671152Y-69510906D01*
X71650513Y-69444154D01*
X71650500Y-69442384D01*
X71650500Y-69326317D01*
X71670185Y-69259278D01*
X71722989Y-69213523D01*
X71792147Y-69203579D01*
X71793777Y-69203825D01*
X71863389Y-69214851D01*
X71863391Y-69214851D01*
X72836610Y-69214851D01*
X72836611Y-69214851D01*
X73007701Y-69187753D01*
X73172445Y-69134224D01*
X73326788Y-69055583D01*
X73466928Y-68953765D01*
X73589414Y-68831279D01*
X73691232Y-68691139D01*
X73769873Y-68536796D01*
X73823402Y-68372052D01*
X73850500Y-68200962D01*
X73850500Y-68027740D01*
X73823402Y-67856650D01*
X73769873Y-67691906D01*
X73760751Y-67674003D01*
X73747855Y-67605338D01*
X73774130Y-67540597D01*
X73783546Y-67530038D01*
X90892622Y-50420961D01*
X93709500Y-50420961D01*
X93734576Y-50579289D01*
X93736598Y-50592052D01*
X93790127Y-50756796D01*
X93868768Y-50911139D01*
X93970586Y-51051279D01*
X94093072Y-51173765D01*
X94233212Y-51275583D01*
X94387555Y-51354224D01*
X94552299Y-51407753D01*
X94723389Y-51434851D01*
X94723390Y-51434851D01*
X95696610Y-51434851D01*
X95696611Y-51434851D01*
X95867701Y-51407753D01*
X96032445Y-51354224D01*
X96186788Y-51275583D01*
X96326928Y-51173765D01*
X96449414Y-51051279D01*
X96551232Y-50911139D01*
X96629873Y-50756796D01*
X96683402Y-50592052D01*
X96710500Y-50420962D01*
X96710500Y-50247740D01*
X96683402Y-50076650D01*
X96629873Y-49911906D01*
X96551232Y-49757563D01*
X96449414Y-49617423D01*
X96326928Y-49494937D01*
X96186788Y-49393119D01*
X96032445Y-49314478D01*
X95867701Y-49260949D01*
X95867699Y-49260948D01*
X95867698Y-49260948D01*
X95736271Y-49240132D01*
X95696611Y-49233851D01*
X94723389Y-49233851D01*
X94683728Y-49240132D01*
X94552302Y-49260948D01*
X94387552Y-49314479D01*
X94233211Y-49393119D01*
X94160765Y-49445755D01*
X94093072Y-49494937D01*
X94093070Y-49494939D01*
X94093069Y-49494939D01*
X93970588Y-49617420D01*
X93970588Y-49617421D01*
X93970586Y-49617423D01*
X93926859Y-49677607D01*
X93868768Y-49757562D01*
X93790128Y-49911903D01*
X93736597Y-50076653D01*
X93709500Y-50247740D01*
X93709500Y-50420961D01*
X90892622Y-50420961D01*
X93499561Y-47814022D01*
X93560882Y-47780539D01*
X93630574Y-47785523D01*
X93686507Y-47827395D01*
X93709713Y-47882307D01*
X93733360Y-48031613D01*
X93736598Y-48052052D01*
X93790127Y-48216796D01*
X93868768Y-48371139D01*
X93970586Y-48511279D01*
X94093072Y-48633765D01*
X94233212Y-48735583D01*
X94387555Y-48814224D01*
X94552299Y-48867753D01*
X94723389Y-48894851D01*
X94723390Y-48894851D01*
X95696610Y-48894851D01*
X95696611Y-48894851D01*
X95867701Y-48867753D01*
X96032445Y-48814224D01*
X96186788Y-48735583D01*
X96326928Y-48633765D01*
X96449414Y-48511279D01*
X96551232Y-48371139D01*
X96629873Y-48216796D01*
X96683402Y-48052052D01*
X96710500Y-47880962D01*
X96710500Y-47707740D01*
X96683402Y-47536650D01*
X96629873Y-47371906D01*
X96551232Y-47217563D01*
X96449414Y-47077423D01*
X96399545Y-47027554D01*
X96366060Y-46966231D01*
X96371044Y-46896539D01*
X96412916Y-46840606D01*
X96439763Y-46825317D01*
X96545285Y-46781610D01*
X96836395Y-46626010D01*
X97110852Y-46442625D01*
X97366012Y-46233222D01*
X97482715Y-46116519D01*
X97534273Y-46064961D01*
X100516726Y-43082508D01*
X100522724Y-43076510D01*
X100522825Y-43076393D01*
X100613406Y-42985813D01*
X100896032Y-42659644D01*
X100896031Y-42659644D01*
X100896039Y-42659636D01*
X101154668Y-42314147D01*
X101154667Y-42314147D01*
X101154671Y-42314143D01*
X101388002Y-41951072D01*
X101594839Y-41572281D01*
X101774126Y-41179699D01*
X101924950Y-40775327D01*
X102046543Y-40361226D01*
X102138284Y-39939506D01*
X102199707Y-39512316D01*
X102230498Y-39081832D01*
X102230498Y-38959530D01*
X102230500Y-38959526D01*
X102230500Y-36914457D01*
X102250185Y-36847418D01*
X102295483Y-36805402D01*
X102305903Y-36799763D01*
X102426067Y-36734734D01*
X102615764Y-36587087D01*
X102778571Y-36410231D01*
X102910049Y-36208990D01*
X103006610Y-35988853D01*
X103065620Y-35755825D01*
X103084748Y-35524987D01*
X103085471Y-35516267D01*
X103085471Y-35516256D01*
X103067592Y-35300498D01*
X103065620Y-35276699D01*
X103006610Y-35043671D01*
X102910049Y-34823534D01*
X102778571Y-34622293D01*
X102615764Y-34445437D01*
X102615759Y-34445433D01*
X102615757Y-34445431D01*
X102426075Y-34297795D01*
X102426069Y-34297791D01*
X102214657Y-34183380D01*
X102214652Y-34183378D01*
X101987300Y-34105328D01*
X101802424Y-34074478D01*
X101750192Y-34065762D01*
X101509808Y-34065762D01*
X101462387Y-34073675D01*
X101272699Y-34105328D01*
X101045347Y-34183378D01*
X101045342Y-34183380D01*
X100833930Y-34297791D01*
X100833924Y-34297795D01*
X100644242Y-34445431D01*
X100644239Y-34445434D01*
X100644236Y-34445436D01*
X100644236Y-34445437D01*
X100608294Y-34484479D01*
X100481430Y-34622291D01*
X100481427Y-34622295D01*
X100349951Y-34823532D01*
X100253389Y-35043672D01*
X100194379Y-35276702D01*
X100174529Y-35516256D01*
X100174529Y-35516267D01*
X100194379Y-35755821D01*
X100253389Y-35988851D01*
X100349951Y-36208991D01*
X100394012Y-36276430D01*
X100481429Y-36410231D01*
X100644236Y-36587087D01*
X100644239Y-36587089D01*
X100644242Y-36587092D01*
X100833924Y-36734728D01*
X100833931Y-36734732D01*
X100833933Y-36734734D01*
X100954089Y-36799759D01*
X100964517Y-36805402D01*
X101014108Y-36854621D01*
X101029500Y-36914457D01*
X101029500Y-38863605D01*
X101029404Y-38868474D01*
X101014765Y-39240988D01*
X101014001Y-39250694D01*
X100970467Y-39618496D01*
X100968944Y-39628113D01*
X100896685Y-39991374D01*
X100894412Y-40000841D01*
X100793880Y-40357298D01*
X100790872Y-40366558D01*
X100662674Y-40714049D01*
X100658948Y-40723044D01*
X100503883Y-41059404D01*
X100499464Y-41068075D01*
X100318492Y-41391223D01*
X100313411Y-41399516D01*
X100107639Y-41707475D01*
X100101916Y-41715351D01*
X99872619Y-42006214D01*
X99866296Y-42013618D01*
X99613037Y-42287591D01*
X99609662Y-42291101D01*
X96880611Y-45020152D01*
X96819288Y-45053637D01*
X96749596Y-45048653D01*
X96693663Y-45006781D01*
X96674999Y-44970789D01*
X96629873Y-44831906D01*
X96551232Y-44677563D01*
X96449414Y-44537423D01*
X96326928Y-44414937D01*
X96186788Y-44313119D01*
X96032445Y-44234478D01*
X95867701Y-44180949D01*
X95867699Y-44180948D01*
X95867698Y-44180948D01*
X95736271Y-44160132D01*
X95696611Y-44153851D01*
X94723389Y-44153851D01*
X94683728Y-44160132D01*
X94552302Y-44180948D01*
X94387552Y-44234479D01*
X94233211Y-44313119D01*
X94153256Y-44371210D01*
X94093072Y-44414937D01*
X94093070Y-44414939D01*
X94093069Y-44414939D01*
X93970588Y-44537420D01*
X93970588Y-44537421D01*
X93970586Y-44537423D01*
X93926859Y-44597607D01*
X93868768Y-44677562D01*
X93790128Y-44831903D01*
X93736597Y-44996653D01*
X93727572Y-45053637D01*
X93709500Y-45167740D01*
X93709500Y-45340962D01*
X93736598Y-45512052D01*
X93790127Y-45676796D01*
X93868768Y-45831139D01*
X93946376Y-45937957D01*
X93969856Y-46003762D01*
X93954031Y-46071816D01*
X93903925Y-46120511D01*
X93893518Y-46125399D01*
X93724089Y-46195582D01*
X93669049Y-46218381D01*
X93377948Y-46373982D01*
X93377933Y-46373990D01*
X93103487Y-46557374D01*
X93103483Y-46557377D01*
X92848338Y-46766774D01*
X92848325Y-46766786D01*
X92761998Y-46853116D01*
X92761996Y-46853119D01*
X92731627Y-46883487D01*
X92715580Y-46899535D01*
X92715577Y-46899537D01*
X74060440Y-65554674D01*
X73999117Y-65588159D01*
X73929425Y-65583175D01*
X73873492Y-65541303D01*
X73850286Y-65486391D01*
X73828608Y-65349523D01*
X73823402Y-65316650D01*
X73769873Y-65151906D01*
X73691232Y-64997563D01*
X73589414Y-64857423D01*
X73466928Y-64734937D01*
X73326788Y-64633119D01*
X73172445Y-64554478D01*
X73007701Y-64500949D01*
X73007699Y-64500948D01*
X73007698Y-64500948D01*
X72848127Y-64475675D01*
X72836611Y-64473851D01*
X72079575Y-64473851D01*
X72012536Y-64454166D01*
X71966781Y-64401362D01*
X71956837Y-64332204D01*
X71976463Y-64280975D01*
X71980500Y-64274932D01*
X71990361Y-64262081D01*
X72064899Y-64177090D01*
X72123901Y-64139667D01*
X72158125Y-64134851D01*
X72836610Y-64134851D01*
X72836611Y-64134851D01*
X73007701Y-64107753D01*
X73172445Y-64054224D01*
X73326788Y-63975583D01*
X73466928Y-63873765D01*
X73589414Y-63751279D01*
X73691232Y-63611139D01*
X73769873Y-63456796D01*
X73823402Y-63292052D01*
X73850500Y-63120962D01*
X73850500Y-62947740D01*
X73823402Y-62776650D01*
X73769873Y-62611906D01*
X73691232Y-62457563D01*
X73589414Y-62317423D01*
X73466928Y-62194937D01*
X73326788Y-62093119D01*
X73172445Y-62014478D01*
X73007701Y-61960949D01*
X73007699Y-61960948D01*
X73007698Y-61960948D01*
X72876271Y-61940132D01*
X72836611Y-61933851D01*
X72059096Y-61933851D01*
X71992057Y-61914166D01*
X71946302Y-61861362D01*
X71936358Y-61792204D01*
X71965383Y-61728648D01*
X71971397Y-61722187D01*
X72062417Y-61631168D01*
X72123740Y-61597685D01*
X72150097Y-61594851D01*
X72836610Y-61594851D01*
X72836611Y-61594851D01*
X73007701Y-61567753D01*
X73172445Y-61514224D01*
X73326788Y-61435583D01*
X73466928Y-61333765D01*
X73589414Y-61211279D01*
X73691232Y-61071139D01*
X73769873Y-60916796D01*
X73823402Y-60752052D01*
X73850500Y-60580962D01*
X73850500Y-60407740D01*
X73823402Y-60236650D01*
X73769873Y-60071906D01*
X73691232Y-59917563D01*
X73589414Y-59777423D01*
X73466928Y-59654937D01*
X73326788Y-59553119D01*
X73172445Y-59474478D01*
X73007701Y-59420949D01*
X73007699Y-59420948D01*
X73007698Y-59420948D01*
X72876271Y-59400132D01*
X72836611Y-59393851D01*
X72059097Y-59393851D01*
X71992058Y-59374166D01*
X71946303Y-59321362D01*
X71936359Y-59252204D01*
X71965384Y-59188648D01*
X71971416Y-59182170D01*
X72062416Y-59091170D01*
X72123739Y-59057685D01*
X72150097Y-59054851D01*
X72836610Y-59054851D01*
X72836611Y-59054851D01*
X73007701Y-59027753D01*
X73172445Y-58974224D01*
X73326788Y-58895583D01*
X73466928Y-58793765D01*
X73589414Y-58671279D01*
X73691232Y-58531139D01*
X73769873Y-58376796D01*
X73823402Y-58212052D01*
X73850500Y-58040962D01*
X73850500Y-57867740D01*
X73823402Y-57696650D01*
X73769873Y-57531906D01*
X73691232Y-57377563D01*
X73589414Y-57237423D01*
X73466928Y-57114937D01*
X73326788Y-57013119D01*
X73172445Y-56934478D01*
X73007701Y-56880949D01*
X73007699Y-56880948D01*
X73007698Y-56880948D01*
X72876271Y-56860132D01*
X72836611Y-56853851D01*
X72059097Y-56853851D01*
X71992058Y-56834166D01*
X71946303Y-56781362D01*
X71936359Y-56712204D01*
X71965384Y-56648648D01*
X71971416Y-56642170D01*
X72062416Y-56551170D01*
X72123739Y-56517685D01*
X72150097Y-56514851D01*
X72836610Y-56514851D01*
X72836611Y-56514851D01*
X73007701Y-56487753D01*
X73172445Y-56434224D01*
X73326788Y-56355583D01*
X73466928Y-56253765D01*
X73589414Y-56131279D01*
X73691232Y-55991139D01*
X73769873Y-55836796D01*
X73823402Y-55672052D01*
X73850500Y-55500962D01*
X73850500Y-55327740D01*
X73823402Y-55156650D01*
X73769873Y-54991906D01*
X73691232Y-54837563D01*
X73589414Y-54697423D01*
X73466928Y-54574937D01*
X73326788Y-54473119D01*
X73279528Y-54449039D01*
X73172447Y-54394479D01*
X73172446Y-54394478D01*
X73172445Y-54394478D01*
X73007701Y-54340949D01*
X73007699Y-54340948D01*
X73007698Y-54340948D01*
X72876271Y-54320132D01*
X72836611Y-54313851D01*
X71863389Y-54313851D01*
X71823728Y-54320132D01*
X71692302Y-54340948D01*
X71527552Y-54394479D01*
X71373211Y-54473119D01*
X71293256Y-54531210D01*
X71233072Y-54574937D01*
X71233070Y-54574939D01*
X71233069Y-54574939D01*
X71110588Y-54697420D01*
X71110588Y-54697421D01*
X71110586Y-54697423D01*
X71088925Y-54727237D01*
X71008768Y-54837562D01*
X70930128Y-54991903D01*
X70876597Y-55156653D01*
X70863426Y-55239815D01*
X70849500Y-55327740D01*
X70849500Y-55500962D01*
X70855653Y-55539808D01*
X70875533Y-55665332D01*
X70876598Y-55672052D01*
X70915724Y-55792467D01*
X70930126Y-55836793D01*
X70930128Y-55836798D01*
X70939248Y-55854697D01*
X70952143Y-55923366D01*
X70925866Y-55988106D01*
X70916444Y-55998671D01*
X70711712Y-56203403D01*
X70711642Y-56203441D01*
X70540112Y-56374973D01*
X70306376Y-56648648D01*
X70291668Y-56665869D01*
X70228985Y-56752147D01*
X70066815Y-56975358D01*
X70066808Y-56975368D01*
X69866936Y-57301535D01*
X69866923Y-57301558D01*
X69693266Y-57642385D01*
X69693261Y-57642396D01*
X69670789Y-57696650D01*
X69546869Y-57995826D01*
X69546866Y-57995833D01*
X69546863Y-57995842D01*
X69428658Y-58359646D01*
X69339353Y-58731637D01*
X69279510Y-59109486D01*
X69249499Y-59490836D01*
X69249499Y-59490850D01*
X69249500Y-59603060D01*
X69249500Y-77031015D01*
X69249499Y-77031037D01*
X69249499Y-77058681D01*
X69249479Y-77058749D01*
X68850499Y-77058749D01*
X68850499Y-52960961D01*
X70849500Y-52960961D01*
X70874576Y-53119289D01*
X70876598Y-53132052D01*
X70930127Y-53296796D01*
X71008768Y-53451139D01*
X71110586Y-53591279D01*
X71233072Y-53713765D01*
X71373212Y-53815583D01*
X71527555Y-53894224D01*
X71692299Y-53947753D01*
X71863389Y-53974851D01*
X71863390Y-53974851D01*
X72836610Y-53974851D01*
X72836611Y-53974851D01*
X73007701Y-53947753D01*
X73172445Y-53894224D01*
X73326788Y-53815583D01*
X73466928Y-53713765D01*
X73589414Y-53591279D01*
X73691232Y-53451139D01*
X73769873Y-53296796D01*
X73823402Y-53132052D01*
X73850500Y-52960962D01*
X73850500Y-52787740D01*
X73823402Y-52616650D01*
X73769873Y-52451906D01*
X73691232Y-52297563D01*
X73589414Y-52157423D01*
X73466928Y-52034937D01*
X73326788Y-51933119D01*
X73172445Y-51854478D01*
X73007701Y-51800949D01*
X73007699Y-51800948D01*
X73007698Y-51800948D01*
X72876271Y-51780132D01*
X72836611Y-51773851D01*
X71863389Y-51773851D01*
X71823728Y-51780132D01*
X71692302Y-51800948D01*
X71527552Y-51854479D01*
X71373211Y-51933119D01*
X71300765Y-51985755D01*
X71233072Y-52034937D01*
X71233070Y-52034939D01*
X71233069Y-52034939D01*
X71110588Y-52157420D01*
X71110588Y-52157421D01*
X71110586Y-52157423D01*
X71066859Y-52217607D01*
X71008768Y-52297562D01*
X70930128Y-52451903D01*
X70876597Y-52616653D01*
X70849500Y-52787740D01*
X70849500Y-52960961D01*
X68850499Y-52960961D01*
X68850499Y-50420961D01*
X70849500Y-50420961D01*
X70874576Y-50579289D01*
X70876598Y-50592052D01*
X70930127Y-50756796D01*
X71008768Y-50911139D01*
X71110586Y-51051279D01*
X71233072Y-51173765D01*
X71373212Y-51275583D01*
X71527555Y-51354224D01*
X71692299Y-51407753D01*
X71863389Y-51434851D01*
X71863390Y-51434851D01*
X72836610Y-51434851D01*
X72836611Y-51434851D01*
X73007701Y-51407753D01*
X73172445Y-51354224D01*
X73326788Y-51275583D01*
X73466928Y-51173765D01*
X73589414Y-51051279D01*
X73691232Y-50911139D01*
X73769873Y-50756796D01*
X73823402Y-50592052D01*
X73850500Y-50420962D01*
X73850500Y-50247740D01*
X73823402Y-50076650D01*
X73769873Y-49911906D01*
X73691232Y-49757563D01*
X73589414Y-49617423D01*
X73466928Y-49494937D01*
X73326788Y-49393119D01*
X73172445Y-49314478D01*
X73007701Y-49260949D01*
X73007699Y-49260948D01*
X73007698Y-49260948D01*
X72876271Y-49240132D01*
X72836611Y-49233851D01*
X71863389Y-49233851D01*
X71823728Y-49240132D01*
X71692302Y-49260948D01*
X71527552Y-49314479D01*
X71373211Y-49393119D01*
X71300765Y-49445755D01*
X71233072Y-49494937D01*
X71233070Y-49494939D01*
X71233069Y-49494939D01*
X71110588Y-49617420D01*
X71110588Y-49617421D01*
X71110586Y-49617423D01*
X71066859Y-49677607D01*
X71008768Y-49757562D01*
X70930128Y-49911903D01*
X70876597Y-50076653D01*
X70849500Y-50247740D01*
X70849500Y-50420961D01*
X68850499Y-50420961D01*
X68850499Y-47880961D01*
X70849500Y-47880961D01*
X70873360Y-48031613D01*
X70876598Y-48052052D01*
X70930127Y-48216796D01*
X71008768Y-48371139D01*
X71110586Y-48511279D01*
X71233072Y-48633765D01*
X71373212Y-48735583D01*
X71527555Y-48814224D01*
X71692299Y-48867753D01*
X71863389Y-48894851D01*
X71863390Y-48894851D01*
X72836610Y-48894851D01*
X72836611Y-48894851D01*
X73007701Y-48867753D01*
X73172445Y-48814224D01*
X73326788Y-48735583D01*
X73466928Y-48633765D01*
X73589414Y-48511279D01*
X73691232Y-48371139D01*
X73769873Y-48216796D01*
X73823402Y-48052052D01*
X73850500Y-47880962D01*
X73850500Y-47707740D01*
X73823402Y-47536650D01*
X73769873Y-47371906D01*
X73691232Y-47217563D01*
X73589414Y-47077423D01*
X73466928Y-46954937D01*
X73326788Y-46853119D01*
X73172445Y-46774478D01*
X73007701Y-46720949D01*
X73007699Y-46720948D01*
X73007698Y-46720948D01*
X72876271Y-46700132D01*
X72836611Y-46693851D01*
X71863389Y-46693851D01*
X71823728Y-46700132D01*
X71692302Y-46720948D01*
X71527552Y-46774479D01*
X71373211Y-46853119D01*
X71309326Y-46899535D01*
X71233072Y-46954937D01*
X71233070Y-46954939D01*
X71233069Y-46954939D01*
X71110588Y-47077420D01*
X71110588Y-47077421D01*
X71110586Y-47077423D01*
X71066859Y-47137607D01*
X71008768Y-47217562D01*
X70930128Y-47371903D01*
X70876597Y-47536653D01*
X70849500Y-47707740D01*
X70849500Y-47880961D01*
X68850499Y-47880961D01*
X68850499Y-45340962D01*
X70849500Y-45340962D01*
X70876598Y-45512052D01*
X70930127Y-45676796D01*
X71008768Y-45831139D01*
X71110586Y-45971279D01*
X71233072Y-46093765D01*
X71373212Y-46195583D01*
X71527555Y-46274224D01*
X71692299Y-46327753D01*
X71863389Y-46354851D01*
X71863390Y-46354851D01*
X72836610Y-46354851D01*
X72836611Y-46354851D01*
X73007701Y-46327753D01*
X73172445Y-46274224D01*
X73326788Y-46195583D01*
X73466928Y-46093765D01*
X73589414Y-45971279D01*
X73691232Y-45831139D01*
X73769873Y-45676796D01*
X73823402Y-45512052D01*
X73850500Y-45340962D01*
X73850500Y-45167740D01*
X73823402Y-44996650D01*
X73769873Y-44831906D01*
X73691232Y-44677563D01*
X73589414Y-44537423D01*
X73466928Y-44414937D01*
X73326788Y-44313119D01*
X73172445Y-44234478D01*
X73007701Y-44180949D01*
X73007699Y-44180948D01*
X73007698Y-44180948D01*
X72876271Y-44160132D01*
X72836611Y-44153851D01*
X71863389Y-44153851D01*
X71823728Y-44160132D01*
X71692302Y-44180948D01*
X71527552Y-44234479D01*
X71373211Y-44313119D01*
X71293256Y-44371210D01*
X71233072Y-44414937D01*
X71233070Y-44414939D01*
X71233069Y-44414939D01*
X71110588Y-44537420D01*
X71110588Y-44537421D01*
X71110586Y-44537423D01*
X71066859Y-44597607D01*
X71008768Y-44677562D01*
X70930128Y-44831903D01*
X70876597Y-44996653D01*
X70867572Y-45053637D01*
X70849500Y-45167740D01*
X70849500Y-45340962D01*
X68850499Y-45340962D01*
X68850499Y-42800962D01*
X70849500Y-42800962D01*
X70876598Y-42972052D01*
X70930127Y-43136796D01*
X71008768Y-43291139D01*
X71110586Y-43431279D01*
X71233072Y-43553765D01*
X71373212Y-43655583D01*
X71527555Y-43734224D01*
X71692299Y-43787753D01*
X71863389Y-43814851D01*
X71863390Y-43814851D01*
X72836610Y-43814851D01*
X72836611Y-43814851D01*
X73007701Y-43787753D01*
X73172445Y-43734224D01*
X73326788Y-43655583D01*
X73466928Y-43553765D01*
X73589414Y-43431279D01*
X73691232Y-43291139D01*
X73769873Y-43136796D01*
X73823402Y-42972052D01*
X73850500Y-42800962D01*
X93709500Y-42800962D01*
X93736598Y-42972052D01*
X93790127Y-43136796D01*
X93868768Y-43291139D01*
X93970586Y-43431279D01*
X94093072Y-43553765D01*
X94233212Y-43655583D01*
X94387555Y-43734224D01*
X94552299Y-43787753D01*
X94723389Y-43814851D01*
X94723390Y-43814851D01*
X95696610Y-43814851D01*
X95696611Y-43814851D01*
X95867701Y-43787753D01*
X96032445Y-43734224D01*
X96186788Y-43655583D01*
X96326928Y-43553765D01*
X96449414Y-43431279D01*
X96551232Y-43291139D01*
X96629873Y-43136796D01*
X96683402Y-42972052D01*
X96710500Y-42800962D01*
X96710500Y-42627740D01*
X96683402Y-42456650D01*
X96629873Y-42291906D01*
X96551232Y-42137563D01*
X96449414Y-41997423D01*
X96326928Y-41874937D01*
X96186788Y-41773119D01*
X96032445Y-41694478D01*
X95867701Y-41640949D01*
X95867699Y-41640948D01*
X95867698Y-41640948D01*
X95736271Y-41620132D01*
X95696611Y-41613851D01*
X94723389Y-41613851D01*
X94683728Y-41620132D01*
X94552302Y-41640948D01*
X94387552Y-41694479D01*
X94233211Y-41773119D01*
X94153256Y-41831210D01*
X94093072Y-41874937D01*
X94093070Y-41874939D01*
X94093069Y-41874939D01*
X93970588Y-41997420D01*
X93970588Y-41997421D01*
X93970586Y-41997423D01*
X93964199Y-42006214D01*
X93868768Y-42137562D01*
X93790128Y-42291903D01*
X93736597Y-42456653D01*
X93709500Y-42627740D01*
X93709500Y-42800962D01*
X73850500Y-42800962D01*
X73850500Y-42627740D01*
X73823402Y-42456650D01*
X73769873Y-42291906D01*
X73691232Y-42137563D01*
X73589414Y-41997423D01*
X73466928Y-41874937D01*
X73326788Y-41773119D01*
X73172445Y-41694478D01*
X73007701Y-41640949D01*
X73007699Y-41640948D01*
X73007698Y-41640948D01*
X72876271Y-41620132D01*
X72836611Y-41613851D01*
X71863389Y-41613851D01*
X71823728Y-41620132D01*
X71692302Y-41640948D01*
X71527552Y-41694479D01*
X71373211Y-41773119D01*
X71293256Y-41831210D01*
X71233072Y-41874937D01*
X71233070Y-41874939D01*
X71233069Y-41874939D01*
X71110588Y-41997420D01*
X71110588Y-41997421D01*
X71110586Y-41997423D01*
X71104199Y-42006214D01*
X71008768Y-42137562D01*
X70930128Y-42291903D01*
X70876597Y-42456653D01*
X70849500Y-42627740D01*
X70849500Y-42800962D01*
X68850499Y-42800962D01*
X68850499Y-40260962D01*
X70849500Y-40260962D01*
X70876598Y-40432052D01*
X70930127Y-40596796D01*
X71008768Y-40751139D01*
X71110586Y-40891279D01*
X71233072Y-41013765D01*
X71373212Y-41115583D01*
X71527555Y-41194224D01*
X71692299Y-41247753D01*
X71863389Y-41274851D01*
X71863390Y-41274851D01*
X72836610Y-41274851D01*
X72836611Y-41274851D01*
X73007701Y-41247753D01*
X73172445Y-41194224D01*
X73326788Y-41115583D01*
X73466928Y-41013765D01*
X73589414Y-40891279D01*
X73691232Y-40751139D01*
X73769873Y-40596796D01*
X73823402Y-40432052D01*
X73850500Y-40260962D01*
X93709500Y-40260962D01*
X93736598Y-40432052D01*
X93790127Y-40596796D01*
X93868768Y-40751139D01*
X93970586Y-40891279D01*
X94093072Y-41013765D01*
X94233212Y-41115583D01*
X94387555Y-41194224D01*
X94552299Y-41247753D01*
X94723389Y-41274851D01*
X94723390Y-41274851D01*
X95696610Y-41274851D01*
X95696611Y-41274851D01*
X95867701Y-41247753D01*
X96032445Y-41194224D01*
X96186788Y-41115583D01*
X96326928Y-41013765D01*
X96449414Y-40891279D01*
X96551232Y-40751139D01*
X96629873Y-40596796D01*
X96683402Y-40432052D01*
X96710500Y-40260962D01*
X96710500Y-40087740D01*
X96683402Y-39916650D01*
X96629873Y-39751906D01*
X96551232Y-39597563D01*
X96449414Y-39457423D01*
X96326928Y-39334937D01*
X96186788Y-39233119D01*
X96032445Y-39154478D01*
X95867701Y-39100949D01*
X95867699Y-39100948D01*
X95867698Y-39100948D01*
X95736271Y-39080132D01*
X95696611Y-39073851D01*
X94723389Y-39073851D01*
X94683728Y-39080132D01*
X94552302Y-39100948D01*
X94387552Y-39154479D01*
X94233211Y-39233119D01*
X94153256Y-39291210D01*
X94093072Y-39334937D01*
X94093070Y-39334939D01*
X94093069Y-39334939D01*
X93970588Y-39457420D01*
X93970588Y-39457421D01*
X93970586Y-39457423D01*
X93963840Y-39466708D01*
X93868768Y-39597562D01*
X93790128Y-39751903D01*
X93736597Y-39916653D01*
X93724763Y-39991374D01*
X93709500Y-40087740D01*
X93709500Y-40260962D01*
X73850500Y-40260962D01*
X73850500Y-40087740D01*
X73823402Y-39916650D01*
X73769873Y-39751906D01*
X73691232Y-39597563D01*
X73589414Y-39457423D01*
X73466928Y-39334937D01*
X73326788Y-39233119D01*
X73172445Y-39154478D01*
X73007701Y-39100949D01*
X73007699Y-39100948D01*
X73007698Y-39100948D01*
X72876271Y-39080132D01*
X72836611Y-39073851D01*
X71863389Y-39073851D01*
X71823728Y-39080132D01*
X71692302Y-39100948D01*
X71527552Y-39154479D01*
X71373211Y-39233119D01*
X71293256Y-39291210D01*
X71233072Y-39334937D01*
X71233070Y-39334939D01*
X71233069Y-39334939D01*
X71110588Y-39457420D01*
X71110588Y-39457421D01*
X71110586Y-39457423D01*
X71103840Y-39466708D01*
X71008768Y-39597562D01*
X70930128Y-39751903D01*
X70876597Y-39916653D01*
X70864763Y-39991374D01*
X70849500Y-40087740D01*
X70849500Y-40260962D01*
X68850499Y-40260962D01*
X68850499Y-28911145D01*
X68870184Y-28844106D01*
X68922988Y-28798351D01*
X68992146Y-28788407D01*
X69055702Y-28817432D01*
X69092430Y-28872827D01*
X69114125Y-28939598D01*
X69114127Y-28939603D01*
X69242704Y-29212842D01*
X69242707Y-29212848D01*
X69404516Y-29467820D01*
X69485311Y-29565484D01*
X70413708Y-28637087D01*
X70510967Y-28770953D01*
X70633398Y-28893384D01*
X70767262Y-28990641D01*
X69836564Y-29921338D01*
X69836565Y-29921340D01*
X70061461Y-30084736D01*
X70061479Y-30084748D01*
X70326109Y-30230229D01*
X70326117Y-30230233D01*
X70606889Y-30341398D01*
X70606892Y-30341399D01*
X70899399Y-30416501D01*
X71198995Y-30454350D01*
X71199007Y-30454351D01*
X71500993Y-30454351D01*
X71501004Y-30454350D01*
X71800600Y-30416501D01*
X72093107Y-30341399D01*
X72093110Y-30341398D01*
X72373882Y-30230233D01*
X72373890Y-30230229D01*
X72638520Y-30084748D01*
X72638530Y-30084741D01*
X72863433Y-29921338D01*
X72863434Y-29921338D01*
X71932737Y-28990641D01*
X72066602Y-28893384D01*
X72189033Y-28770953D01*
X72286290Y-28637088D01*
X73214687Y-29565485D01*
X73295486Y-29467815D01*
X73457292Y-29212848D01*
X73457295Y-29212842D01*
X73585872Y-28939603D01*
X73585874Y-28939598D01*
X73679194Y-28652391D01*
X73735783Y-28355741D01*
X73735784Y-28355734D01*
X73754745Y-28054356D01*
X73754745Y-28054345D01*
X73735784Y-27752967D01*
X73735783Y-27752960D01*
X73679194Y-27456310D01*
X73585874Y-27169103D01*
X73585872Y-27169098D01*
X73457295Y-26895859D01*
X73457292Y-26895853D01*
X73295483Y-26640881D01*
X73214686Y-26543215D01*
X72286289Y-27471612D01*
X72189033Y-27337749D01*
X72066602Y-27215318D01*
X71932736Y-27118060D01*
X72863434Y-26187362D01*
X72863433Y-26187360D01*
X72638538Y-26023965D01*
X72638520Y-26023953D01*
X72373890Y-25878472D01*
X72373882Y-25878468D01*
X72148669Y-25789301D01*
X72093583Y-25746320D01*
X72070480Y-25680381D01*
X72086693Y-25612419D01*
X72137076Y-25564011D01*
X72194316Y-25550009D01*
X116755684Y-25550009D01*
X116822723Y-25569694D01*
G37*
G04 #@! TD.AperFunction*
G04 #@! TA.AperFunction,Conductor*
G36*
X70572723Y-25569694D02*
G01*
X70618478Y-25622498D01*
X70628422Y-25691656D01*
X70599397Y-25755212D01*
X70551331Y-25789301D01*
X70326117Y-25878468D01*
X70326109Y-25878472D01*
X70061476Y-26023955D01*
X70061471Y-26023958D01*
X69836565Y-26187361D01*
X69836564Y-26187362D01*
X70767262Y-27118060D01*
X70633398Y-27215318D01*
X70510967Y-27337749D01*
X70413709Y-27471613D01*
X69485311Y-26543215D01*
X69404520Y-26640876D01*
X69404518Y-26640879D01*
X69242707Y-26895853D01*
X69242704Y-26895859D01*
X69114127Y-27169098D01*
X69092430Y-27235875D01*
X69052992Y-27293550D01*
X68988633Y-27320748D01*
X68919787Y-27308833D01*
X68868311Y-27261589D01*
X68850499Y-27197556D01*
X68850499Y-25674009D01*
X68870184Y-25606970D01*
X68922988Y-25561215D01*
X68974499Y-25550009D01*
X70505684Y-25550009D01*
X70572723Y-25569694D01*
G37*
G04 #@! TD.AperFunction*
G04 #@! TA.AperFunction,NonConductor*
G36*
X71793777Y-66663825D02*
G01*
X71863389Y-66674851D01*
X71863391Y-66674851D01*
X72640903Y-66674851D01*
X72707942Y-66694536D01*
X72753697Y-66747340D01*
X72763641Y-66816498D01*
X72734616Y-66880054D01*
X72728584Y-66886532D01*
X72637584Y-66977532D01*
X72576261Y-67011017D01*
X72549903Y-67013851D01*
X71863389Y-67013851D01*
X71793897Y-67024857D01*
X71724604Y-67015902D01*
X71671152Y-66970906D01*
X71650513Y-66904154D01*
X71650500Y-66902384D01*
X71650500Y-66786317D01*
X71670185Y-66719278D01*
X71722989Y-66673523D01*
X71792147Y-66663579D01*
X71793777Y-66663825D01*
G37*
G04 #@! TD.AperFunction*
G04 #@! TA.AperFunction,NonConductor*
G36*
X103110878Y-69079268D02*
G01*
X103130740Y-69087869D01*
X103161998Y-69104784D01*
X103175344Y-69112007D01*
X103175347Y-69112008D01*
X103402699Y-69190058D01*
X103402701Y-69190058D01*
X103402703Y-69190059D01*
X103639808Y-69229625D01*
X103639809Y-69229625D01*
X103880191Y-69229625D01*
X103880192Y-69229625D01*
X103989894Y-69211318D01*
X104122356Y-69189215D01*
X104122577Y-69190543D01*
X104186129Y-69192921D01*
X104243454Y-69232866D01*
X104257984Y-69255666D01*
X104289175Y-69318916D01*
X104295382Y-69333902D01*
X104354631Y-69508449D01*
X104358828Y-69524115D01*
X104394785Y-69704881D01*
X104396903Y-69720962D01*
X104407855Y-69888079D01*
X104409235Y-69909123D01*
X104409500Y-69917233D01*
X104409500Y-71375360D01*
X104389815Y-71442399D01*
X104337011Y-71488154D01*
X104267853Y-71498098D01*
X104245238Y-71492641D01*
X104117178Y-71448678D01*
X103880149Y-71409125D01*
X103639851Y-71409125D01*
X103402821Y-71448678D01*
X103234762Y-71506373D01*
X103164964Y-71509523D01*
X103104543Y-71474436D01*
X103072682Y-71412254D01*
X103070500Y-71389092D01*
X103070500Y-69843565D01*
X103070517Y-69843503D01*
X103070516Y-69792186D01*
X103070517Y-69792186D01*
X103070515Y-69701842D01*
X103046928Y-69522701D01*
X103000159Y-69348171D01*
X102957162Y-69244377D01*
X102949693Y-69174911D01*
X102980965Y-69112431D01*
X103041053Y-69076777D01*
X103110878Y-69079268D01*
G37*
G04 #@! TD.AperFunction*
G04 #@! TA.AperFunction,NonConductor*
G36*
X94060835Y-69634536D02*
G01*
X94106590Y-69687340D01*
X94116534Y-69756498D01*
X94087509Y-69820054D01*
X94081477Y-69826532D01*
X93970588Y-69937420D01*
X93970588Y-69937421D01*
X93970586Y-69937423D01*
X93943581Y-69974592D01*
X93868768Y-70077562D01*
X93790128Y-70231903D01*
X93736597Y-70396653D01*
X93731111Y-70431292D01*
X93709500Y-70567740D01*
X93709500Y-70740962D01*
X93736598Y-70912052D01*
X93790127Y-71076796D01*
X93868768Y-71231139D01*
X93970586Y-71371279D01*
X94093072Y-71493765D01*
X94233212Y-71595583D01*
X94387555Y-71674224D01*
X94552299Y-71727753D01*
X94723389Y-71754851D01*
X94723390Y-71754851D01*
X95696610Y-71754851D01*
X95696611Y-71754851D01*
X95867701Y-71727753D01*
X96032445Y-71674224D01*
X96186788Y-71595583D01*
X96326928Y-71493765D01*
X96449414Y-71371279D01*
X96551232Y-71231139D01*
X96629873Y-71076796D01*
X96683402Y-70912052D01*
X96710500Y-70740962D01*
X96710500Y-70567740D01*
X96683402Y-70396650D01*
X96629873Y-70231906D01*
X96551232Y-70077563D01*
X96449414Y-69937423D01*
X96338523Y-69826532D01*
X96305038Y-69765209D01*
X96310022Y-69695517D01*
X96351894Y-69639584D01*
X96417358Y-69615167D01*
X96426204Y-69614851D01*
X99755220Y-69614851D01*
X99822259Y-69634536D01*
X99868014Y-69687340D01*
X99877958Y-69756498D01*
X99868777Y-69788655D01*
X99852435Y-69825913D01*
X99843388Y-69846538D01*
X99784379Y-70079565D01*
X99764529Y-70319119D01*
X99764529Y-70319130D01*
X99784379Y-70558686D01*
X99837163Y-70767130D01*
X99834537Y-70836950D01*
X99804638Y-70885250D01*
X98204439Y-72485449D01*
X98200031Y-72489647D01*
X97948229Y-72717863D01*
X97938822Y-72725582D01*
X97668335Y-72926185D01*
X97658217Y-72932946D01*
X97369361Y-73106076D01*
X97358629Y-73111812D01*
X97054202Y-73255791D01*
X97042960Y-73260448D01*
X96876274Y-73320088D01*
X96806521Y-73324138D01*
X96745652Y-73289835D01*
X96712992Y-73228069D01*
X96710500Y-73203336D01*
X96710500Y-73107740D01*
X96683402Y-72936653D01*
X96683402Y-72936650D01*
X96629873Y-72771906D01*
X96551232Y-72617563D01*
X96449414Y-72477423D01*
X96326928Y-72354937D01*
X96186788Y-72253119D01*
X96032445Y-72174478D01*
X95867701Y-72120949D01*
X95867699Y-72120948D01*
X95867698Y-72120948D01*
X95736271Y-72100132D01*
X95696611Y-72093851D01*
X94723389Y-72093851D01*
X94683728Y-72100132D01*
X94552302Y-72120948D01*
X94387552Y-72174479D01*
X94233211Y-72253119D01*
X94191458Y-72283455D01*
X94093072Y-72354937D01*
X94093070Y-72354939D01*
X94093069Y-72354939D01*
X93970588Y-72477420D01*
X93970588Y-72477421D01*
X93970586Y-72477423D01*
X93961705Y-72489647D01*
X93868768Y-72617562D01*
X93790128Y-72771903D01*
X93736597Y-72936653D01*
X93709500Y-73107740D01*
X93709500Y-73280962D01*
X93709499Y-73280962D01*
X93726086Y-73385685D01*
X93717131Y-73454978D01*
X93672135Y-73508430D01*
X93605383Y-73529069D01*
X93603613Y-73529082D01*
X74027049Y-73529082D01*
X74027033Y-73529081D01*
X73956386Y-73529081D01*
X73889347Y-73509396D01*
X73843592Y-73456592D01*
X73833648Y-73387434D01*
X73833892Y-73385819D01*
X73850500Y-73280962D01*
X73850500Y-73107740D01*
X73823402Y-72936650D01*
X73769873Y-72771906D01*
X73769872Y-72771904D01*
X73768367Y-72767272D01*
X73769354Y-72766951D01*
X73762423Y-72702486D01*
X73793697Y-72640006D01*
X73853785Y-72604352D01*
X73884453Y-72600500D01*
X77130575Y-72600500D01*
X77130719Y-72600490D01*
X77267024Y-72600491D01*
X77664140Y-72569238D01*
X77713329Y-72565368D01*
X77713329Y-72565367D01*
X77713341Y-72565367D01*
X78155526Y-72495333D01*
X78590853Y-72390822D01*
X79016638Y-72252477D01*
X79430256Y-72081152D01*
X79829157Y-71877902D01*
X80210882Y-71643982D01*
X80573076Y-71380833D01*
X80913508Y-71090077D01*
X81027455Y-70976129D01*
X81069903Y-70933682D01*
X81073742Y-70930006D01*
X81357031Y-70670418D01*
X81365262Y-70663513D01*
X81667906Y-70431285D01*
X81676738Y-70425101D01*
X81998475Y-70220131D01*
X82007786Y-70214755D01*
X82346146Y-70038616D01*
X82355938Y-70034049D01*
X82708351Y-69888073D01*
X82718487Y-69884384D01*
X83082291Y-69769676D01*
X83092706Y-69766885D01*
X83465132Y-69684318D01*
X83475751Y-69682446D01*
X83853944Y-69632655D01*
X83864682Y-69631715D01*
X84248198Y-69614969D01*
X84253607Y-69614851D01*
X93993796Y-69614851D01*
X94060835Y-69634536D01*
G37*
G04 #@! TD.AperFunction*
G04 #@! TA.AperFunction,NonConductor*
G36*
X70653438Y-77199082D02*
G01*
X70833448Y-77312189D01*
X70839119Y-77315752D01*
X71036477Y-77410794D01*
X71088337Y-77457616D01*
X71106650Y-77525043D01*
X71085602Y-77591667D01*
X71082994Y-77595399D01*
X71008770Y-77697559D01*
X70930128Y-77851901D01*
X70899153Y-77947233D01*
X70859715Y-78004908D01*
X70795356Y-78032106D01*
X70726510Y-78020191D01*
X70675034Y-77972946D01*
X70670010Y-77963758D01*
X70590300Y-77802124D01*
X70584093Y-77787140D01*
X70563173Y-77725515D01*
X70514075Y-77580880D01*
X70509877Y-77565213D01*
X70467379Y-77351578D01*
X70465262Y-77335497D01*
X70463734Y-77312189D01*
X70478991Y-77244005D01*
X70528688Y-77194894D01*
X70597048Y-77180448D01*
X70653438Y-77199082D01*
G37*
G04 #@! TD.AperFunction*
G04 #@! TA.AperFunction,NonConductor*
G36*
X103234763Y-74211876D02*
G01*
X103402823Y-74269571D01*
X103639851Y-74309125D01*
X103880149Y-74309125D01*
X104117176Y-74269571D01*
X104245237Y-74225608D01*
X104315035Y-74222458D01*
X104375457Y-74257544D01*
X104407317Y-74319726D01*
X104409500Y-74342889D01*
X104409500Y-83163319D01*
X104409235Y-83171428D01*
X104396915Y-83359423D01*
X104394798Y-83375504D01*
X104358840Y-83556287D01*
X104354642Y-83571954D01*
X104295394Y-83746499D01*
X104289187Y-83761485D01*
X104258001Y-83824725D01*
X104210696Y-83876145D01*
X104143100Y-83893827D01*
X104122394Y-83890932D01*
X104122355Y-83891172D01*
X103953326Y-83862966D01*
X103880192Y-83850762D01*
X103639808Y-83850762D01*
X103621231Y-83853862D01*
X103402699Y-83890328D01*
X103234763Y-83947981D01*
X103164964Y-83951131D01*
X103104543Y-83916045D01*
X103072682Y-83853862D01*
X103070500Y-83830700D01*
X103070500Y-74329157D01*
X103090185Y-74262118D01*
X103142989Y-74216363D01*
X103212147Y-74206419D01*
X103234763Y-74211876D01*
G37*
G04 #@! TD.AperFunction*
G04 #@! TA.AperFunction,NonConductor*
G36*
X101835457Y-71718073D02*
G01*
X101867317Y-71780255D01*
X101869500Y-71803418D01*
X101869500Y-85217089D01*
X101869499Y-85217111D01*
X101869499Y-85220902D01*
X101869295Y-85221594D01*
X101868991Y-85228315D01*
X101868990Y-85228326D01*
X101867362Y-85228178D01*
X101849814Y-85287941D01*
X101797010Y-85333696D01*
X101727852Y-85343640D01*
X101664296Y-85314615D01*
X101657818Y-85308583D01*
X99470165Y-83120930D01*
X99420592Y-83071356D01*
X99417218Y-83067847D01*
X99164153Y-82794083D01*
X99157830Y-82786680D01*
X98959135Y-82534637D01*
X98928529Y-82495815D01*
X98922809Y-82487941D01*
X98873100Y-82413546D01*
X98717033Y-82179974D01*
X98711957Y-82171689D01*
X98530984Y-81848540D01*
X98526565Y-81839869D01*
X98517604Y-81820430D01*
X98371498Y-81503501D01*
X98367776Y-81494514D01*
X98239580Y-81147023D01*
X98236572Y-81137764D01*
X98222970Y-81089535D01*
X98136039Y-80781300D01*
X98133767Y-80771836D01*
X98117009Y-80687589D01*
X98061510Y-80408574D01*
X98059988Y-80398963D01*
X98059153Y-80391906D01*
X98016453Y-80031140D01*
X98015692Y-80021470D01*
X98004459Y-79735541D01*
X98001055Y-79648898D01*
X98000959Y-79644030D01*
X98000959Y-76333495D01*
X98000949Y-76333347D01*
X98000949Y-76280947D01*
X98000948Y-76280946D01*
X97998289Y-76257349D01*
X97969613Y-76002840D01*
X97907336Y-75729985D01*
X97814901Y-75465819D01*
X97693471Y-75213663D01*
X97544573Y-74976688D01*
X97370078Y-74757873D01*
X97328971Y-74716765D01*
X97328931Y-74716719D01*
X97307947Y-74695736D01*
X97307880Y-74695614D01*
X97264460Y-74652197D01*
X97230973Y-74590875D01*
X97235955Y-74521183D01*
X97277824Y-74465248D01*
X97313819Y-74446582D01*
X97335619Y-74439500D01*
X97680954Y-74296461D01*
X98014001Y-74126769D01*
X98173354Y-74029119D01*
X98332694Y-73931479D01*
X98332696Y-73931477D01*
X98332708Y-73931470D01*
X98635110Y-73711767D01*
X98919342Y-73469015D01*
X98985392Y-73402964D01*
X98985397Y-73402961D01*
X98995597Y-73392760D01*
X98995599Y-73392760D01*
X100655806Y-71732552D01*
X100717127Y-71699069D01*
X100783748Y-71702954D01*
X100862699Y-71730058D01*
X100862701Y-71730058D01*
X100862703Y-71730059D01*
X101099808Y-71769625D01*
X101099809Y-71769625D01*
X101340191Y-71769625D01*
X101340192Y-71769625D01*
X101577297Y-71730059D01*
X101705238Y-71686136D01*
X101775035Y-71682987D01*
X101835457Y-71718073D01*
G37*
G04 #@! TD.AperFunction*
G04 #@! TA.AperFunction,NonConductor*
G36*
X102839832Y-87736405D02*
G01*
X102873786Y-87748287D01*
X102873795Y-87748289D01*
X103171642Y-87816278D01*
X103171651Y-87816279D01*
X103171663Y-87816282D01*
X103380939Y-87839865D01*
X103475275Y-87850497D01*
X103475279Y-87850497D01*
X103539001Y-87850497D01*
X103539021Y-87850500D01*
X103549003Y-87850500D01*
X103628049Y-87850500D01*
X103700963Y-87850501D01*
X103700967Y-87850500D01*
X115783587Y-87850500D01*
X115862645Y-87850500D01*
X115870551Y-87850500D01*
X115870918Y-87850476D01*
X115999378Y-87850476D01*
X116323906Y-87827266D01*
X116392176Y-87842118D01*
X116441581Y-87891523D01*
X116456433Y-87959796D01*
X116432016Y-88025261D01*
X116384663Y-88063560D01*
X116261790Y-88120205D01*
X116252794Y-88123931D01*
X115905315Y-88252121D01*
X115896055Y-88255130D01*
X115539586Y-88355662D01*
X115530119Y-88357935D01*
X115166858Y-88430190D01*
X115157241Y-88431713D01*
X114789426Y-88475246D01*
X114779720Y-88476009D01*
X114406627Y-88490666D01*
X114401759Y-88490762D01*
X102708806Y-88490762D01*
X102641767Y-88471077D01*
X102596012Y-88418273D01*
X102586068Y-88349115D01*
X102595250Y-88316952D01*
X102596610Y-88313853D01*
X102655620Y-88080825D01*
X102671306Y-87891523D01*
X102675310Y-87843209D01*
X102700463Y-87778024D01*
X102756865Y-87736786D01*
X102826608Y-87732588D01*
X102839832Y-87736405D01*
G37*
G04 #@! TD.AperFunction*
G04 #@! TA.AperFunction,NonConductor*
G36*
X115536714Y-89611013D02*
G01*
X115589518Y-89656768D01*
X115609202Y-89723807D01*
X115589517Y-89790847D01*
X115569374Y-89814863D01*
X115523351Y-89857405D01*
X115514518Y-89865572D01*
X115512367Y-89867560D01*
X115504962Y-89873884D01*
X115214098Y-90103180D01*
X115206221Y-90108903D01*
X114898262Y-90314672D01*
X114889960Y-90319759D01*
X114566813Y-90500727D01*
X114558139Y-90505147D01*
X114221790Y-90660205D01*
X114212794Y-90663931D01*
X113865315Y-90792121D01*
X113856055Y-90795130D01*
X113499586Y-90895662D01*
X113490119Y-90897935D01*
X113126858Y-90970190D01*
X113117241Y-90971713D01*
X112749426Y-91015246D01*
X112739720Y-91016009D01*
X112366627Y-91030666D01*
X112361759Y-91030762D01*
X105248260Y-91030762D01*
X105181221Y-91011077D01*
X105135466Y-90958273D01*
X105125522Y-90889115D01*
X105134703Y-90856953D01*
X105136136Y-90853685D01*
X105195125Y-90620738D01*
X105214969Y-90381267D01*
X105214969Y-90381256D01*
X105195125Y-90141785D01*
X105136134Y-89908833D01*
X105117159Y-89865572D01*
X105108256Y-89796271D01*
X105138234Y-89733159D01*
X105197573Y-89696273D01*
X105230715Y-89691762D01*
X114491958Y-89691762D01*
X114492298Y-89691739D01*
X114620563Y-89691740D01*
X115051047Y-89660953D01*
X115467558Y-89601069D01*
X115536714Y-89611013D01*
G37*
G04 #@! TD.AperFunction*
G04 #@! TA.AperFunction,NonConductor*
G36*
X86256796Y-89585426D02*
G01*
X86321719Y-89599550D01*
X86748910Y-89660972D01*
X87179395Y-89691761D01*
X87301689Y-89691761D01*
X87301697Y-89691762D01*
X102289285Y-89691762D01*
X102356324Y-89711447D01*
X102402079Y-89764251D01*
X102412023Y-89833409D01*
X102402841Y-89865572D01*
X102383865Y-89908833D01*
X102324874Y-90141785D01*
X102305031Y-90381256D01*
X102305031Y-90381267D01*
X102324874Y-90620738D01*
X102383863Y-90853685D01*
X102385297Y-90856953D01*
X102385483Y-90858402D01*
X102385528Y-90858533D01*
X102385501Y-90858542D01*
X102394198Y-90926254D01*
X102364221Y-90989366D01*
X102304881Y-91026251D01*
X102271740Y-91030762D01*
X89371927Y-91030762D01*
X89367059Y-91030666D01*
X88994544Y-91016030D01*
X88984837Y-91015266D01*
X88617032Y-90971733D01*
X88607416Y-90970210D01*
X88244159Y-90897954D01*
X88234691Y-90895681D01*
X87878227Y-90795148D01*
X87868968Y-90792140D01*
X87521484Y-90663947D01*
X87512488Y-90660221D01*
X87223263Y-90526887D01*
X87176133Y-90505160D01*
X87167460Y-90500741D01*
X86844303Y-90319765D01*
X86836001Y-90314677D01*
X86528054Y-90108913D01*
X86520178Y-90103190D01*
X86229311Y-89873890D01*
X86221907Y-89867567D01*
X86146270Y-89797649D01*
X86110403Y-89737688D01*
X86112648Y-89667854D01*
X86152291Y-89610320D01*
X86216746Y-89583352D01*
X86256796Y-89585426D01*
G37*
G04 #@! TD.AperFunction*
M02*
